<?xml version="1.0" encoding="UTF-8"?><svg id="Layer_2" xmlns="http://www.w3.org/2000/svg" viewBox="0 0 302.68 148.75"><defs><style>.cls-1{fill:#7fcc00;}.cls-2{fill:#65a300;}.cls-3{fill:none;stroke:#c1c1c1;stroke-miterlimit:10;stroke-width:4px;}</style></defs><g id="Layer_1-2"><path class="cls-1" d="M38.92,4.1c-.59-.47-1.35-.66-2.09-.5-5.38,1.13-10.98-.02-15.49-3.16-.85-.59-1.98-.59-2.84,0C13.99,3.59,8.39,4.73,3.01,3.61c-.74-.16-1.51,.02-2.09,.5C.34,4.58,0,5.29,0,6.05V24.59c0,7.24,3.49,14.04,9.39,18.25l9.09,6.47c.86,.62,2.02,.62,2.89,0l9.09-6.47c5.89-4.21,9.39-11.01,9.39-18.25V6.05c0-.75-.34-1.47-.92-1.94Z"/><path class="cls-2" d="M73.33,59.61c1.73,1.45,2.82,3.36,3.25,5.73h-6.55c-.19-.93-.62-1.66-1.29-2.19-.67-.53-1.51-.8-2.52-.8-.79,0-1.39,.17-1.8,.51-.41,.34-.61,.83-.61,1.45,0,.71,.38,1.24,1.13,1.6,.75,.35,1.93,.71,3.54,1.06,1.75,.41,3.18,.83,4.3,1.25,1.12,.42,2.09,1.11,2.91,2.07,.82,.96,1.23,2.24,1.23,3.85,0,1.31-.36,2.47-1.06,3.48-.71,1.01-1.73,1.8-3.07,2.37s-2.92,.86-4.75,.86c-3.08,0-5.55-.68-7.41-2.05s-2.99-3.32-3.4-5.85h6.75c.11,.98,.53,1.73,1.25,2.25,.72,.52,1.66,.78,2.8,.78,.79,0,1.39-.18,1.8-.55,.41-.37,.61-.85,.61-1.45,0-.79-.38-1.36-1.13-1.7s-1.97-.7-3.66-1.08c-1.69-.36-3.09-.74-4.18-1.15-1.09-.41-2.03-1.07-2.82-1.99-.79-.91-1.19-2.16-1.19-3.74,0-2.05,.78-3.7,2.33-4.97,1.56-1.27,3.75-1.9,6.59-1.9s5.21,.72,6.94,2.17Z"/><path class="cls-2" d="M102.41,70.42h-15.84c.08,1.72,.52,2.95,1.31,3.7,.79,.75,1.8,1.13,3.03,1.13,1.04,0,1.9-.26,2.58-.78,.68-.52,1.13-1.19,1.35-2.01h7.41c-.3,1.61-.95,3.05-1.96,4.32-1.01,1.27-2.29,2.27-3.85,2.99-1.56,.72-3.29,1.08-5.2,1.08-2.24,0-4.22-.47-5.96-1.41-1.73-.94-3.09-2.3-4.07-4.07-.98-1.77-1.47-3.85-1.47-6.22s.48-4.48,1.45-6.24c.97-1.76,2.33-3.11,4.07-4.05,1.75-.94,3.74-1.41,5.98-1.41s4.26,.46,5.98,1.39c1.72,.93,3.05,2.23,3.99,3.91s1.41,3.61,1.41,5.79c0,.57-.07,1.2-.2,1.88Zm-8.09-6.32c-.83-.75-1.86-1.13-3.09-1.13s-2.35,.38-3.19,1.15c-.85,.76-1.32,1.88-1.43,3.36h8.92c.03-1.5-.38-2.63-1.21-3.38Z"/><path class="cls-2" d="M119.57,58.63c1.26,.79,2.18,1.87,2.78,3.23v-4.13h6.96v22.72c0,2.13-.41,4.05-1.23,5.75-.82,1.71-2.07,3.06-3.77,4.07-1.69,1.01-3.79,1.51-6.3,1.51-3.44,0-6.19-.81-8.25-2.44-2.06-1.62-3.3-3.83-3.7-6.61h6.92c.22,.93,.72,1.65,1.49,2.17,.78,.52,1.79,.78,3.05,.78,1.45,0,2.61-.42,3.5-1.25s1.33-2.16,1.33-3.99v-4.01c-.6,1.36-1.53,2.44-2.78,3.23-1.26,.79-2.76,1.19-4.5,1.19-1.88,0-3.57-.47-5.06-1.41-1.49-.94-2.66-2.3-3.52-4.07-.86-1.77-1.29-3.85-1.29-6.22s.43-4.48,1.29-6.24c.86-1.76,2.03-3.11,3.52-4.05s3.17-1.41,5.06-1.41c1.75,0,3.25,.4,4.5,1.19Zm-5.87,6.43c-.91,.98-1.37,2.35-1.37,4.09s.46,3.11,1.37,4.09c.91,.98,2.12,1.47,3.62,1.47s2.68-.5,3.62-1.51c.94-1.01,1.41-2.36,1.41-4.05s-.47-3.08-1.41-4.07c-.94-1-2.15-1.49-3.62-1.49s-2.71,.49-3.62,1.47Z"/><path class="cls-2" d="M156.98,57.73v22.84h-7.04v-4.13c-.65,1.34-1.63,2.4-2.93,3.19-1.3,.79-2.8,1.19-4.52,1.19-2.62,0-4.7-.87-6.24-2.62-1.54-1.75-2.31-4.15-2.31-7.2v-13.26h6.96v12.4c0,1.56,.4,2.76,1.21,3.62,.8,.86,1.89,1.29,3.25,1.29s2.54-.45,3.36-1.35c.82-.9,1.23-2.18,1.23-3.85v-12.12h7.04Z"/><path class="cls-2" d="M172.31,58.71c1.38-.82,2.87-1.23,4.48-1.23v7.49h-2.01c-1.86,0-3.29,.4-4.32,1.19-1.02,.79-1.53,2.13-1.53,4.01v10.4h-7v-22.84h7v4.3c.87-1.39,2-2.5,3.38-3.32Z"/><path class="cls-2" d="M196.63,58.86c1.79,.94,3.19,2.3,4.22,4.07s1.53,3.85,1.53,6.22-.51,4.45-1.53,6.22c-1.02,1.77-2.43,3.13-4.22,4.07-1.79,.94-3.81,1.41-6.08,1.41s-4.3-.47-6.1-1.41c-1.8-.94-3.21-2.3-4.24-4.07-1.02-1.77-1.53-3.85-1.53-6.22s.51-4.45,1.53-6.22c1.02-1.77,2.44-3.13,4.24-4.07s3.83-1.41,6.1-1.41,4.29,.47,6.08,1.41Zm-9.46,6.1c-.91,.97-1.37,2.37-1.37,4.2s.46,3.22,1.37,4.18c.91,.96,2.04,1.43,3.38,1.43s2.46-.48,3.36-1.43c.9-.95,1.35-2.35,1.35-4.18s-.45-3.23-1.35-4.2c-.9-.97-2.02-1.45-3.36-1.45s-2.46,.49-3.38,1.45Z"/><g><path id="hat" class="cls-2" d="M279.69,127.82h13.51c.02-.55,.04-1.11,.04-1.67-.03-22.59-18.32-40.91-40.92-40.96v13.5c15.15,.02,27.42,12.31,27.41,27.46,0,.55-.02,1.11-.05,1.67Z"/><path id="pagarme" d="M124.08,148.31c-1.1-.24-2.18-.59-3.21-1.05-.79-.36-1.55-.77-2.29-1.22-.53-.31-1.03-.67-1.49-1.07l-.44-.44,2.69-3.98,.37,.38c.33,.29,.68,.57,1.05,.82,.55,.4,1.13,.76,1.74,1.07,1.66,.79,3.47,1.2,5.3,1.22,2.13,.2,4.25-.45,5.9-1.81,1.29-1.43,1.95-3.33,1.82-5.25v-2.14c-.1,.14-.2,.27-.3,.39-.29,.33-.61,.64-.94,.92-.5,.45-1.04,.84-1.62,1.17-.76,.4-1.56,.69-2.39,.89-1.05,.27-2.13,.4-3.22,.39-3.31,.13-6.54-1.05-8.98-3.29-2.46-2.49-3.73-5.91-3.51-9.41-.14-3.46,1.16-6.82,3.58-9.28,2.32-2.35,5.51-3.63,8.81-3.56,1.65-.03,3.3,.29,4.82,.92,1.09,.4,2.09,1.02,2.94,1.82l.8,.89v-3.23h5.38v22.59c0,8.46-4.28,12.69-12.84,12.69h-.05c-1.31,0-2.62-.14-3.9-.43h0Zm-2.1-28.35c-1.42,1.63-2.16,3.74-2.06,5.9-.09,2.15,.67,4.25,2.11,5.85,1.45,1.53,3.49,2.35,5.6,2.26,2.16,.1,4.27-.71,5.82-2.22,1.5-1.59,2.29-3.71,2.19-5.9,.09-2.19-.72-4.32-2.24-5.9-1.54-1.53-3.65-2.35-5.82-2.26-2.11-.1-4.15,.73-5.6,2.27h0Zm-65.27,28.23v-34.74h5.37v3.33c.07-.1,.18-.24,.32-.42,.31-.33,.64-.64,.99-.92,.52-.44,1.09-.82,1.69-1.15,.79-.39,1.63-.7,2.49-.92,1.06-.29,2.15-.43,3.25-.42,3.3-.12,6.5,1.18,8.78,3.56,2.34,2.55,3.57,5.92,3.41,9.38,.2,3.53-1.03,7-3.41,9.61-2.38,2.37-5.63,3.63-8.98,3.48-1.07,0-2.14-.13-3.18-.4-.85-.21-1.68-.53-2.44-.97-.57-.34-1.12-.71-1.64-1.12-.37-.27-.7-.59-.99-.94l-.3-.4v13.04h-5.37Zm7.42-28.26c-1.5,1.66-2.29,3.84-2.19,6.07-.12,2.25,.67,4.46,2.19,6.12,1.57,1.54,3.72,2.35,5.91,2.24,2.09,.1,4.12-.75,5.52-2.31,1.41-1.67,2.14-3.81,2.04-6,.09-2.23-.66-4.41-2.12-6.1-1.42-1.58-3.47-2.45-5.59-2.37-2.17-.08-4.27,.77-5.77,2.35h0Zm189.37,19.21c-4.54,0-8.05-1.19-10.52-3.56-2.56-2.59-3.91-6.14-3.71-9.78-.13-3.58,1.24-7.06,3.78-9.58,2.55-2.48,6-3.82,9.56-3.71,3.69-.2,7.27,1.22,9.83,3.88,2.51,2.98,3.78,6.8,3.56,10.69v1.29h-18.82c0,.17,.03,.34,.08,.5,.12,.36,.28,.71,.47,1.05,.27,.5,.61,.95,1.02,1.34,.55,.48,1.2,.84,1.89,1.07,.95,.33,1.95,.49,2.96,.47,1.25,0,2.48-.24,3.64-.72,.92-.34,1.78-.84,2.54-1.47l.74-.75,4.09,4.77c-.1,.13-.24,.3-.42,.5-.4,.39-.83,.75-1.29,1.07-.69,.52-1.42,.98-2.19,1.37-.99,.47-2.03,.83-3.1,1.07-1.32,.32-2.67,.47-4.02,.47h-.05Zm-3.29-19.91c-.61,.24-1.15,.61-1.59,1.1-.34,.4-.64,.83-.9,1.29-.2,.34-.33,.71-.4,1.1l-.1,.44h10.8c-.03-.12-.06-.3-.1-.47-.11-.36-.25-.71-.42-1.05-.24-.49-.55-.95-.92-1.34-.46-.44-1-.8-1.6-1.05-.75-.33-1.57-.49-2.39-.47h-.12c-.78,0-1.55,.15-2.27,.45h0Zm-61.13,18.59c-.86-.84-1.34-1.98-1.34-3.18,0-1.2,.48-2.35,1.34-3.19,.88-.85,2.06-1.32,3.28-1.29,1.22-.02,2.41,.44,3.29,1.29,.86,.84,1.34,1.99,1.34,3.19,0,1.2-.48,2.35-1.34,3.18-.89,.83-2.07,1.29-3.29,1.29-1.22,0-2.39-.46-3.28-1.29h0Zm-32.85,1.2c-3.32,.12-6.55-1.07-8.98-3.33-2.47-2.55-3.74-6.02-3.5-9.55-.16-3.51,1.14-6.93,3.58-9.45,2.31-2.36,5.5-3.66,8.81-3.58,1.65-.03,3.3,.29,4.82,.92,1.09,.4,2.09,1.02,2.94,1.81l.8,.9v-3.19h5.37v25.08h-5.38v-3.44c-.07,.1-.16,.24-.3,.42-.29,.34-.6,.65-.95,.92-.5,.43-1.04,.82-1.62,1.14-.76,.4-1.56,.71-2.39,.92-1.02,.28-2.07,.42-3.12,.42h-.09Zm-5.05-19.01c-1.43,1.67-2.17,3.82-2.07,6.02-.09,2.2,.67,4.36,2.12,6.02,1.43,1.57,3.48,2.43,5.6,2.34,2.18,.11,4.3-.7,5.85-2.24,1.51-1.67,2.29-3.87,2.17-6.12,.1-2.23-.71-4.4-2.24-6.02-1.53-1.54-3.65-2.37-5.82-2.29-2.11-.1-4.16,.74-5.59,2.29h0Zm-53.37,19c-3.32,.13-6.55-1.07-8.98-3.33-2.47-2.55-3.74-6.02-3.51-9.55-.16-3.51,1.14-6.93,3.58-9.45,2.32-2.36,5.5-3.65,8.81-3.58,1.66-.03,3.3,.29,4.83,.92,1.09,.4,2.09,1.02,2.94,1.81l.79,.9v-3.19h5.37v25.08h-5.37v-3.44c-.1,.14-.19,.28-.3,.42-.29,.34-.6,.65-.94,.92-.5,.43-1.04,.82-1.62,1.14-.76,.4-1.56,.71-2.39,.92-1.02,.28-2.07,.42-3.12,.42h-.09Zm-5.05-19.01c-1.43,1.67-2.17,3.82-2.06,6.02-.09,2.2,.66,4.36,2.11,6.02,1.43,1.57,3.48,2.43,5.6,2.34,2.18,.11,4.3-.7,5.85-2.24,1.51-1.67,2.29-3.87,2.16-6.12,.1-2.23-.71-4.4-2.24-6.02-1.53-1.54-3.65-2.37-5.82-2.29-2.11-.1-4.16,.74-5.6,2.29h0Zm137.1,18.61v-15.67c0-2.62-.96-3.93-2.89-3.93-2.39,0-3.58,1.74-3.58,5.22v14.38h-7.56v-15.67c0-2.62-.96-3.93-2.89-3.93-2.39,0-3.58,1.74-3.58,5.22v14.38h-7.56v-25.57h7.56v3.33c.07-.1,.15-.23,.25-.4,.22-.31,.46-.61,.72-.89,.38-.43,.8-.81,1.27-1.14,.58-.39,1.22-.69,1.89-.9,.82-.27,1.67-.4,2.54-.39,.86-.01,1.72,.12,2.54,.37,.65,.19,1.26,.5,1.81,.9,.4,.31,.78,.65,1.12,1.02,.25,.27,.47,.57,.65,.89l.15,.35c.06-.1,.16-.22,.27-.38,.26-.3,.53-.58,.82-.84,.43-.41,.89-.78,1.39-1.1,.62-.37,1.29-.65,1.99-.84,.84-.25,1.71-.38,2.59-.38,5.38,0,8.06,3.1,8.06,9.31v16.67l-7.56-.02Zm-55.56,0v-25.13h5.37v4.53c.06-.19,.13-.37,.22-.55,.24-.43,.51-.84,.8-1.24,.39-.57,.86-1.09,1.39-1.54,.65-.51,1.39-.9,2.17-1.17,.95-.35,1.97-.49,2.99-.42l-.44,5.82c-1.9-.31-3.83,.29-5.22,1.62-1.32,1.42-2,3.32-1.89,5.25v12.84h-5.38Z"/></g><line class="cls-3" x1="19.92" y1="59.77" x2="19.92" y2="148.75"/><g><path class="cls-2" d="M66.59,28.54v10.1h-6.96V9.84h11.28c3.42,0,6.03,.85,7.82,2.55s2.69,3.98,2.69,6.86c0,1.79-.4,3.39-1.2,4.79-.8,1.4-1.99,2.5-3.56,3.3-1.58,.8-3.49,1.2-5.74,1.2h-4.32Zm7.74-9.29c0-2.52-1.4-3.79-4.2-3.79h-3.54v7.49h3.54c2.8,0,4.2-1.24,4.2-3.71Z"/><path class="cls-2" d="M97.95,16.81c1.25,.79,2.17,1.86,2.77,3.22v-4.11h6.92v22.73h-6.92v-4.11c-.6,1.36-1.52,2.43-2.77,3.22-1.25,.79-2.74,1.18-4.48,1.18-1.87,0-3.55-.47-5.03-1.41-1.48-.94-2.65-2.29-3.5-4.05-.86-1.76-1.28-3.83-1.28-6.19s.43-4.46,1.28-6.21c.86-1.75,2.02-3.1,3.5-4.03s3.16-1.4,5.03-1.4c1.74,0,3.23,.39,4.48,1.18Zm-5.84,6.39c-.91,.98-1.36,2.34-1.36,4.07s.45,3.1,1.36,4.07c.91,.98,2.11,1.47,3.6,1.47s2.67-.5,3.6-1.51,1.41-2.35,1.41-4.03-.47-3.06-1.41-4.05c-.94-.99-2.14-1.49-3.6-1.49s-2.69,.49-3.6,1.47Z"/><path class="cls-2" d="M125.56,16.81c1.25,.79,2.17,1.86,2.77,3.22v-4.11h6.92v22.6c0,2.12-.41,4.02-1.22,5.72-.81,1.7-2.06,3.05-3.75,4.05-1.68,1-3.77,1.51-6.27,1.51-3.42,0-6.16-.81-8.21-2.42-2.05-1.62-3.28-3.81-3.69-6.58h6.88c.22,.92,.71,1.64,1.49,2.16,.77,.52,1.79,.77,3.03,.77,1.44,0,2.6-.41,3.48-1.24,.88-.83,1.32-2.15,1.32-3.97v-3.99c-.6,1.36-1.52,2.43-2.77,3.22-1.25,.79-2.74,1.18-4.48,1.18-1.87,0-3.55-.47-5.03-1.41-1.48-.94-2.65-2.29-3.5-4.05-.86-1.76-1.28-3.83-1.28-6.19s.43-4.46,1.28-6.21c.86-1.75,2.02-3.1,3.5-4.03s3.16-1.4,5.03-1.4c1.74,0,3.23,.39,4.48,1.18Zm-5.84,6.39c-.91,.98-1.36,2.34-1.36,4.07s.45,3.1,1.36,4.07c.91,.98,2.11,1.47,3.6,1.47s2.67-.5,3.6-1.51,1.41-2.35,1.41-4.03-.47-3.06-1.41-4.05c-.94-.99-2.14-1.49-3.6-1.49s-2.69,.49-3.6,1.47Z"/><path class="cls-2" d="M153.17,16.81c1.25,.79,2.17,1.86,2.77,3.22v-4.11h6.92v22.73h-6.92v-4.11c-.6,1.36-1.52,2.43-2.77,3.22-1.25,.79-2.74,1.18-4.48,1.18-1.87,0-3.55-.47-5.03-1.41-1.48-.94-2.65-2.29-3.5-4.05-.86-1.76-1.28-3.83-1.28-6.19s.43-4.46,1.28-6.21c.86-1.75,2.02-3.1,3.5-4.03s3.16-1.4,5.03-1.4c1.74,0,3.23,.39,4.48,1.18Zm-5.84,6.39c-.91,.98-1.36,2.34-1.36,4.07s.45,3.1,1.36,4.07c.91,.98,2.11,1.47,3.6,1.47s2.67-.5,3.6-1.51,1.41-2.35,1.41-4.03-.47-3.06-1.41-4.05c-.94-.99-2.14-1.49-3.6-1.49s-2.69,.49-3.6,1.47Z"/><path class="cls-2" d="M203.71,18.25c1.6,1.72,2.4,4.12,2.4,7.19v13.2h-6.92v-12.38c0-1.44-.39-2.56-1.16-3.36-.77-.8-1.83-1.2-3.16-1.2s-2.48,.43-3.28,1.28c-.8,.85-1.2,2.06-1.2,3.6v12.06h-6.96v-12.38c0-1.44-.38-2.56-1.14-3.36-.76-.8-1.81-1.2-3.14-1.2s-2.48,.42-3.3,1.26c-.81,.84-1.22,2.05-1.22,3.62v12.06h-6.96V15.91h6.96v3.87c.6-1.28,1.51-2.28,2.75-3.01,1.24-.73,2.68-1.1,4.34-1.1,1.74,0,3.27,.4,4.6,1.2,1.33,.8,2.33,1.95,3.01,3.44,.79-1.41,1.87-2.54,3.24-3.38,1.37-.84,2.88-1.26,4.54-1.26,2.8,0,5,.86,6.6,2.59Z"/><path class="cls-2" d="M232.14,28.54h-15.76c.08,1.71,.51,2.94,1.3,3.69,.79,.75,1.79,1.12,3.01,1.12,1.03,0,1.89-.26,2.57-.77,.68-.52,1.13-1.18,1.34-2h7.37c-.3,1.6-.95,3.03-1.96,4.3-1,1.26-2.28,2.25-3.83,2.97-1.55,.72-3.27,1.08-5.17,1.08-2.23,0-4.2-.47-5.93-1.41-1.72-.94-3.08-2.29-4.05-4.05-.98-1.76-1.47-3.83-1.47-6.19s.48-4.46,1.45-6.21c.96-1.75,2.31-3.1,4.05-4.03s3.72-1.4,5.95-1.4,4.24,.46,5.95,1.38c1.71,.92,3.03,2.22,3.97,3.89s1.41,3.59,1.41,5.76c0,.57-.07,1.2-.2,1.87Zm-8.04-6.29c-.83-.75-1.85-1.12-3.08-1.12s-2.34,.38-3.18,1.14c-.84,.76-1.32,1.87-1.43,3.34h8.88c.03-1.49-.37-2.61-1.2-3.36Z"/><path class="cls-2" d="M256.6,18.27c1.53,1.74,2.3,4.13,2.3,7.17v13.2h-6.96v-12.38c0-1.52-.4-2.71-1.2-3.56-.8-.86-1.87-1.28-3.2-1.28-1.41,0-2.53,.45-3.36,1.34-.83,.9-1.24,2.17-1.24,3.83v12.06h-6.96V15.91h6.96v4.15c.65-1.36,1.62-2.43,2.91-3.22,1.29-.79,2.8-1.18,4.54-1.18,2.61,0,4.68,.87,6.21,2.61Z"/><path class="cls-2" d="M276.37,32.65v5.99h-3.14c-2.66,0-4.73-.66-6.21-1.98-1.48-1.32-2.22-3.5-2.22-6.54v-8.35h-3.05v-5.86h3.05v-5.58h6.96v5.58h4.56v5.86h-4.56v8.47c0,.9,.18,1.52,.55,1.87,.37,.35,.98,.53,1.85,.53h2.2Z"/><path class="cls-2" d="M296.95,17.03c1.78,.94,3.18,2.29,4.2,4.05,1.02,1.77,1.53,3.83,1.53,6.19s-.51,4.43-1.53,6.19c-1.02,1.77-2.42,3.12-4.2,4.05-1.78,.94-3.79,1.41-6.05,1.41s-4.28-.47-6.07-1.41c-1.79-.94-3.2-2.29-4.21-4.05-1.02-1.76-1.53-3.83-1.53-6.19s.51-4.43,1.53-6.19c1.02-1.76,2.42-3.12,4.21-4.05s3.81-1.4,6.07-1.4,4.27,.47,6.05,1.4Zm-9.41,6.07c-.91,.96-1.36,2.36-1.36,4.17s.45,3.2,1.36,4.15c.91,.95,2.03,1.43,3.36,1.43s2.44-.47,3.34-1.43c.9-.95,1.34-2.33,1.34-4.15s-.45-3.21-1.34-4.17c-.9-.96-2.01-1.45-3.34-1.45s-2.45,.48-3.36,1.45Z"/></g></g></svg>