<?xml version="1.0" encoding="iso-8859-1"?>
<!-- Generator: Adobe Illustrator 19.0.0, SVG Export Plug-In . SVG Version: 6.00 Build 0)  -->
<svg version="1.1" id="Capa_1" xmlns="http://www.w3.org/2000/svg" xmlns:xlink="http://www.w3.org/1999/xlink" x="0px" y="0px"
	 viewBox="0 0 512 512" style="enable-background:new 0 0 512 512;" xml:space="preserve">
<path style="fill:#EDEBED;" d="M487.226,49.548H24.774C11.092,49.548,0,60.64,0,74.323V470.71c0,13.682,11.092,24.774,24.774,24.774
	h462.452c13.682,0,24.774-11.092,24.774-24.774V74.323C512,60.64,500.908,49.548,487.226,49.548z"/>
<path style="fill:#FFFFFF;" d="M487.226,478.968H24.774c-4.561,0-8.258-3.697-8.258-8.258V140.387c0-4.561,3.697-8.258,8.258-8.258
	h462.452c4.561,0,8.258,3.697,8.258,8.258V470.71C495.484,475.27,491.787,478.968,487.226,478.968z"/>
<g>
	<circle style="fill:#5D5360;" cx="181.68" cy="421.16" r="16.516"/>
	<circle style="fill:#5D5360;" cx="330.32" cy="421.16" r="16.516"/>
</g>
<g>
	<path style="fill:#C0BCC1;" d="M355.097,412.903H162.879c-5.96,0-11.298-3.077-14.29-8.23c-2.992-5.149-3.008-11.31-0.056-16.48
		l25.976-45.452c2.258-3.964,7.298-5.343,11.266-3.073c3.96,2.262,5.339,7.306,3.073,11.266l-25.976,45.452h192.226
		c4.565,0,8.258,3.698,8.258,8.258S359.661,412.903,355.097,412.903z"/>
	<path style="fill:#C0BCC1;" d="M371.387,264.254c0.073,0.004,0.153,0.004,0.234,0.004c4.452,0,8.121-3.548,8.25-8.028
		c0.121-4.56-3.468-8.359-8.032-8.484l-41.705-1.158l2.576-31.547c0.371-4.548-3.016-8.532-7.565-8.903
		c-4.468-0.411-8.532,3.012-8.903,7.556l-2.649,32.434l-41.424-1.151v-33.364c0-4.56-3.694-8.258-8.258-8.258
		s-8.258,3.698-8.258,8.258v32.906l-45.511-1.264l-6.916-39.267c-0.79-4.492-5.073-7.492-9.565-6.702
		c-4.492,0.79-7.492,5.073-6.694,9.565l6.33,35.935l-44.426-1.234c-4.137-0.133-8.355,3.464-8.484,8.024
		c-0.121,4.56,3.468,8.359,8.032,8.484l47.802,1.328l5.293,30.049l-41.361,0.974c-4.556,0.105-8.169,3.887-8.065,8.448
		c0.105,4.496,3.782,8.065,8.258,8.065c0.065,0,0.129,0,0.194-0.004l43.872-1.033l5.951,33.783c0.702,4.008,4.185,6.827,8.121,6.827
		c0.476,0,0.96-0.04,1.444-0.125c4.492-0.79,7.492-5.073,6.694-9.565l-5.516-31.314l34.548-0.814v29.773
		c0,4.56,3.694,8.258,8.258,8.258s8.258-3.698,8.258-8.258V304.29l36.745-0.865l-2.31,28.289c-0.371,4.548,3.016,8.532,7.565,8.903
		c0.226,0.02,0.452,0.028,0.677,0.028c4.258,0,7.871-3.27,8.226-7.585l2.452-30.028l39.403-0.928
		c4.556-0.105,8.169-3.887,8.065-8.448c-0.113-4.56-3.839-8.323-8.452-8.06l-37.664,0.887l1.912-23.413L371.387,264.254z
		 M218.208,289.044l-5.141-29.188l42.587,1.183v27.122L218.208,289.044z M310.266,286.875l-38.097,0.898v-26.275l40.078,1.113
		L310.266,286.875z"/>
</g>
<path style="fill:#E6646E;" d="M487.226,49.548H24.774C11.092,49.548,0,60.64,0,74.323v41.29h512v-41.29
	C512,60.64,500.908,49.548,487.226,49.548z"/>
<g>
	<path style="fill:#DC4655;" d="M33.032,49.548v24.774c0,13.66,11.113,24.774,24.774,24.774h16.516
		c13.661,0,24.774-11.114,24.774-24.774V49.548H33.032z"/>
	<path style="fill:#DC4655;" d="M412.903,49.548v24.774c0,13.66,11.113,24.774,24.774,24.774h16.516
		c13.661,0,24.774-11.114,24.774-24.774V49.548H412.903z"/>
</g>
<path style="fill:#FFD164;" d="M74.323,82.581H57.806c-4.561,0-8.258-3.697-8.258-8.258V24.774c0-4.561,3.697-8.258,8.258-8.258
	h16.516c4.561,0,8.258,3.697,8.258,8.258v49.548C82.581,78.883,78.883,82.581,74.323,82.581z"/>
<path style="fill:#FFE17D;" d="M74.323,82.581L74.323,82.581c-4.561,0-8.258-3.697-8.258-8.258V24.774
	c0-4.561,3.697-8.258,8.258-8.258l0,0c4.561,0,8.258,3.697,8.258,8.258v49.548C82.581,78.883,78.883,82.581,74.323,82.581z"/>
<path style="fill:#FFD164;" d="M454.194,82.581h-16.516c-4.561,0-8.258-3.697-8.258-8.258V24.774c0-4.561,3.697-8.258,8.258-8.258
	h16.516c4.561,0,8.258,3.697,8.258,8.258v49.548C462.452,78.883,458.754,82.581,454.194,82.581z"/>
<path style="fill:#FFE17D;" d="M454.194,82.581L454.194,82.581c-4.561,0-8.258-3.697-8.258-8.258V24.774
	c0-4.561,3.697-8.258,8.258-8.258l0,0c4.561,0,8.258,3.697,8.258,8.258v49.548C462.452,78.883,458.754,82.581,454.194,82.581z"/>
<path style="fill:#C9C6CA;" d="M191.75,353.407c-14.694,0-27.806-9.79-31.806-24.165l-33.677-120.883
	c-0.976-3.496-3.113-6.617-6.016-8.79l-26.105-19.536c-3.645-2.734-4.395-7.911-1.661-11.56c2.726-3.653,7.911-4.395,11.565-1.665
	l26.105,19.54c2.734,2.048,5.121,4.516,7.097,7.282l243.056,12.835c2.315,0.121,4.468,1.21,5.944,3s2.121,4.121,1.798,6.415
	l-14.661,102.629c-1.645,11.468-10.847,20.177-22.379,21.177l-156.379,13.597C193.661,353.367,192.702,353.407,191.75,353.407z
	 M144.008,210.528l31.839,114.278c2.137,7.653,9.54,12.69,17.347,12.024l156.379-13.597c3.847-0.335,6.911-3.242,7.46-7.065
	l13.387-93.689L144.008,210.528z"/>
<path style="fill:#E6646E;" d="M125.194,201.218c-1.718,0-3.46-0.536-4.944-1.645l-26.105-19.54
	c-3.645-2.734-4.395-7.911-1.661-11.56c2.726-3.653,7.911-4.395,11.565-1.665l26.105,19.54c3.645,2.734,4.395,7.911,1.661,11.56
	C130.194,200.077,127.71,201.218,125.194,201.218z"/>
<g>
</g>
<g>
</g>
<g>
</g>
<g>
</g>
<g>
</g>
<g>
</g>
<g>
</g>
<g>
</g>
<g>
</g>
<g>
</g>
<g>
</g>
<g>
</g>
<g>
</g>
<g>
</g>
<g>
</g>
</svg>
