<?xml version="1.0" encoding="UTF-8"?><svg id="Layer_2" xmlns="http://www.w3.org/2000/svg" viewBox="0 0 669.07 60.19"><defs><style>.cls-1{fill:#7fcc00;}.cls-2{fill:#65a300;}</style></defs><g id="Layer_1-2"><g><path class="cls-2" d="M326.99,25.06c1.61,1.34,2.62,3.12,3.03,5.33h-6.09c-.18-.86-.58-1.54-1.2-2.04-.62-.5-1.4-.74-2.34-.74-.74,0-1.29,.16-1.67,.48s-.57,.77-.57,1.35c0,.66,.35,1.16,1.05,1.48,.7,.33,1.79,.66,3.29,.99,1.62,.38,2.96,.77,4,1.16,1.04,.39,1.94,1.03,2.7,1.92,.76,.89,1.14,2.08,1.14,3.58,0,1.22-.33,2.3-.99,3.24-.66,.94-1.61,1.67-2.85,2.21-1.24,.53-2.72,.8-4.41,.8-2.87,0-5.16-.63-6.89-1.9-1.73-1.27-2.78-3.08-3.16-5.44h6.28c.1,.91,.49,1.61,1.16,2.09,.67,.48,1.54,.72,2.61,.72,.74,0,1.29-.17,1.67-.51s.57-.79,.57-1.35c0-.74-.35-1.26-1.05-1.58-.7-.32-1.83-.65-3.41-1.01-1.57-.33-2.87-.69-3.88-1.07-1.01-.38-1.89-1-2.63-1.85-.74-.85-1.1-2.01-1.1-3.48,0-1.9,.72-3.44,2.17-4.62,1.45-1.18,3.49-1.77,6.13-1.77s4.84,.67,6.45,2.02Z"/><path class="cls-2" d="M354.03,35.11h-14.73c.08,1.6,.48,2.75,1.22,3.44,.74,.7,1.67,1.05,2.82,1.05,.96,0,1.76-.24,2.4-.72,.63-.48,1.05-1.1,1.26-1.87h6.89c-.28,1.5-.89,2.84-1.83,4.02-.94,1.18-2.13,2.11-3.58,2.78-1.45,.67-3.06,1.01-4.83,1.01-2.08,0-3.93-.44-5.54-1.31-1.61-.88-2.87-2.14-3.79-3.79-.91-1.65-1.37-3.58-1.37-5.79s.45-4.17,1.35-5.8c.9-1.64,2.16-2.89,3.79-3.77s3.48-1.31,5.56-1.31,3.96,.43,5.56,1.29c1.6,.86,2.84,2.07,3.71,3.63,.88,1.56,1.31,3.36,1.31,5.39,0,.53-.06,1.12-.19,1.75Zm-7.52-5.88c-.77-.7-1.73-1.05-2.87-1.05s-2.18,.36-2.97,1.07c-.79,.71-1.23,1.75-1.33,3.12h8.3c.02-1.4-.35-2.44-1.12-3.14Z"/><path class="cls-2" d="M369.98,24.15c1.17,.74,2.03,1.74,2.59,3.01v-3.84h6.47v21.12c0,1.98-.38,3.76-1.14,5.35-.76,1.59-1.93,2.85-3.5,3.79-1.57,.94-3.53,1.41-5.86,1.41-3.2,0-5.75-.76-7.67-2.26s-3.06-3.56-3.44-6.15h6.43c.2,.86,.67,1.53,1.39,2.02,.72,.48,1.67,.72,2.84,.72,1.34,0,2.43-.39,3.25-1.16s1.24-2.01,1.24-3.71v-3.73c-.56,1.27-1.42,2.27-2.59,3.01-1.17,.74-2.56,1.1-4.19,1.1-1.75,0-3.32-.44-4.7-1.31s-2.47-2.14-3.27-3.79c-.8-1.65-1.2-3.58-1.2-5.79s.4-4.17,1.2-5.8c.8-1.64,1.89-2.89,3.27-3.77s2.95-1.31,4.7-1.31c1.62,0,3.02,.37,4.19,1.1Zm-5.46,5.98c-.85,.91-1.28,2.18-1.28,3.81s.43,2.89,1.28,3.81c.85,.91,1.97,1.37,3.37,1.37s2.49-.47,3.37-1.41c.88-.94,1.31-2.19,1.31-3.77s-.44-2.86-1.31-3.79c-.88-.93-2-1.39-3.37-1.39s-2.52,.46-3.37,1.37Z"/><path class="cls-2" d="M404.77,23.31v21.24h-6.55v-3.84c-.61,1.24-1.52,2.23-2.72,2.97-1.2,.74-2.61,1.1-4.21,1.1-2.44,0-4.37-.81-5.8-2.44-1.43-1.62-2.15-3.86-2.15-6.7v-12.33h6.47v11.53c0,1.45,.37,2.57,1.12,3.37,.75,.8,1.76,1.2,3.02,1.2s2.36-.42,3.12-1.26c.76-.84,1.14-2.03,1.14-3.58v-11.27h6.55Z"/><path class="cls-2" d="M419.02,24.23c1.28-.76,2.67-1.14,4.17-1.14v6.97h-1.86c-1.73,0-3.06,.37-4.02,1.1-.95,.74-1.43,1.98-1.43,3.73v9.67h-6.51V23.31h6.51v4c.81-1.29,1.86-2.32,3.14-3.08Z"/><path class="cls-2" d="M441.63,24.36c1.66,.88,2.97,2.14,3.92,3.79s1.43,3.58,1.43,5.78-.48,4.14-1.43,5.79c-.95,1.65-2.26,2.91-3.92,3.79-1.66,.88-3.55,1.31-5.65,1.31s-4-.44-5.67-1.31c-1.67-.88-2.99-2.14-3.94-3.79-.95-1.65-1.43-3.58-1.43-5.79s.48-4.13,1.43-5.78,2.26-2.91,3.94-3.79c1.67-.88,3.56-1.31,5.67-1.31s3.99,.44,5.65,1.31Zm-8.79,5.67c-.85,.9-1.28,2.2-1.28,3.9s.43,3,1.28,3.88c.85,.89,1.9,1.33,3.14,1.33s2.28-.44,3.12-1.33c.84-.89,1.26-2.18,1.26-3.88s-.42-3-1.26-3.9c-.84-.9-1.88-1.35-3.12-1.35s-2.29,.45-3.14,1.35Z"/><g><path id="hat" class="cls-2" d="M657.79,35.48h11.25c.02-.46,.03-.92,.03-1.39-.02-18.81-15.25-34.05-34.06-34.09V11.24c12.61,.02,22.82,10.25,22.82,22.86,0,.46-.02,.93-.04,1.39Z"/><path id="pagarme" d="M528.26,52.54c-.92-.2-1.81-.49-2.67-.87-.65-.3-1.29-.64-1.9-1.02-.44-.26-.85-.56-1.24-.89l-.37-.37,2.24-3.31,.31,.31c.28,.24,.57,.47,.87,.68,.46,.34,.94,.63,1.45,.89,1.38,.65,2.89,1,4.41,1.01,1.77,.16,3.54-.38,4.91-1.51,1.08-1.19,1.62-2.77,1.51-4.37v-1.78c-.08,.11-.16,.22-.25,.33-.24,.27-.51,.53-.79,.77-.41,.37-.86,.7-1.35,.98-.63,.33-1.3,.58-1.99,.74-.87,.23-1.77,.34-2.68,.33-2.75,.11-5.44-.88-7.48-2.73-2.05-2.07-3.11-4.92-2.92-7.83-.12-2.88,.96-5.67,2.98-7.72,1.93-1.95,4.58-3.02,7.33-2.96,1.38-.02,2.74,.24,4.02,.77,.91,.33,1.74,.85,2.44,1.51l.66,.74v-2.69h4.48v18.81c0,7.04-3.56,10.56-10.69,10.56h-.04c-1.09,0-2.18-.12-3.25-.36h0Zm-1.74-23.59c-1.18,1.36-1.8,3.11-1.72,4.91-.07,1.79,.56,3.54,1.76,4.87,1.21,1.27,2.91,1.96,4.66,1.88,1.8,.08,3.56-.59,4.85-1.85,1.25-1.32,1.91-3.09,1.82-4.91,.07-1.82-.6-3.6-1.86-4.91-1.28-1.27-3.04-1.96-4.85-1.88-1.75-.08-3.46,.61-4.66,1.89h0Zm-54.33,23.5V23.53h4.47v2.78c.06-.08,.15-.2,.27-.35,.25-.28,.53-.53,.83-.77,.44-.37,.91-.69,1.41-.95,.66-.33,1.35-.58,2.07-.76,.88-.24,1.79-.36,2.71-.35,2.75-.1,5.41,.98,7.31,2.96,1.95,2.12,2.97,4.93,2.84,7.8,.17,2.94-.85,5.82-2.84,8-1.98,1.97-4.69,3.02-7.48,2.9-.89,0-1.78-.11-2.65-.33-.71-.17-1.4-.44-2.03-.81-.47-.28-.93-.59-1.37-.93-.31-.23-.59-.49-.83-.79l-.25-.33v10.85h-4.47Zm6.17-23.53c-1.25,1.38-1.9,3.19-1.83,5.05-.1,1.87,.56,3.71,1.83,5.09,1.31,1.28,3.09,1.96,4.92,1.87,1.74,.08,3.43-.63,4.6-1.93,1.17-1.39,1.78-3.17,1.7-4.99,.08-1.85-.55-3.67-1.76-5.08-1.18-1.31-2.89-2.04-4.66-1.97-1.81-.07-3.56,.64-4.8,1.96h0Zm157.63,15.99c-3.78,0-6.7-.99-8.76-2.96-2.13-2.16-3.25-5.11-3.09-8.14-.11-2.98,1.03-5.87,3.15-7.97,2.12-2.07,5-3.18,7.96-3.09,3.07-.17,6.06,1.01,8.18,3.23,2.09,2.48,3.15,5.66,2.96,8.9v1.08h-15.66c0,.14,.03,.28,.06,.42,.1,.3,.23,.59,.39,.87,.22,.42,.51,.79,.85,1.12,.46,.4,.99,.7,1.57,.89,.79,.28,1.62,.41,2.46,.39,1.04,0,2.07-.2,3.03-.6,.77-.28,1.48-.7,2.11-1.22l.62-.62,3.4,3.97c-.08,.11-.2,.25-.35,.42-.34,.33-.69,.62-1.08,.89-.57,.43-1.18,.81-1.83,1.14-.82,.39-1.69,.69-2.58,.89-1.1,.26-2.22,.39-3.35,.39h-.05Zm-2.74-16.57c-.51,.2-.96,.51-1.33,.91-.29,.33-.54,.69-.75,1.08-.16,.28-.28,.59-.33,.91l-.08,.37h8.99c-.03-.1-.05-.25-.08-.39-.09-.3-.21-.59-.35-.87-.2-.41-.45-.79-.77-1.12-.38-.37-.84-.66-1.33-.87-.63-.27-1.31-.41-1.99-.39h-.1c-.65,0-1.29,.13-1.89,.38h0Zm-50.88,15.47c-.72-.7-1.12-1.65-1.12-2.65,0-1,.4-1.96,1.12-2.65,.73-.71,1.71-1.1,2.73-1.08,1.02-.02,2,.37,2.74,1.08,.71,.7,1.12,1.65,1.12,2.65,0,1-.4,1.95-1.12,2.65-.74,.69-1.72,1.08-2.73,1.08-1.01,0-1.99-.38-2.73-1.07h0Zm-27.34,1c-2.76,.1-5.45-.89-7.48-2.77-2.05-2.12-3.11-5.01-2.92-7.95-.13-2.92,.95-5.77,2.98-7.87,1.93-1.96,4.58-3.04,7.33-2.98,1.38-.02,2.74,.24,4.02,.77,.91,.33,1.74,.85,2.44,1.51l.66,.75v-2.65h4.47v20.88h-4.48v-2.86c-.06,.08-.14,.2-.25,.35-.24,.28-.5,.54-.79,.77-.42,.36-.87,.68-1.35,.95-.63,.33-1.3,.59-1.99,.77-.85,.23-1.72,.35-2.6,.35h-.07Zm-4.2-15.82c-1.19,1.39-1.81,3.18-1.72,5.01-.08,1.83,.56,3.63,1.76,5.01,1.19,1.31,2.89,2.02,4.66,1.95,1.81,.09,3.58-.58,4.87-1.86,1.26-1.39,1.91-3.23,1.8-5.1,.08-1.85-.59-3.66-1.87-5.01-1.28-1.29-3.03-1.98-4.84-1.9-1.76-.08-3.46,.62-4.66,1.91h0Zm-44.42,15.82c-2.76,.11-5.45-.89-7.47-2.77-2.05-2.12-3.11-5.01-2.92-7.95-.13-2.92,.95-5.77,2.98-7.87,1.93-1.96,4.58-3.04,7.33-2.98,1.38-.02,2.75,.24,4.02,.77,.91,.33,1.74,.85,2.44,1.51l.66,.75v-2.65h4.47v20.88h-4.47v-2.86c-.08,.12-.16,.23-.25,.35-.24,.28-.5,.54-.79,.77-.42,.36-.87,.68-1.35,.95-.63,.33-1.3,.59-1.99,.77-.85,.23-1.72,.35-2.6,.35h-.07Zm-4.21-15.82c-1.19,1.39-1.8,3.18-1.72,5.01-.08,1.83,.55,3.63,1.76,5.01,1.19,1.31,2.89,2.02,4.66,1.95,1.81,.09,3.58-.59,4.87-1.86,1.26-1.39,1.91-3.23,1.8-5.1,.08-1.85-.59-3.66-1.86-5.01-1.28-1.29-3.03-1.98-4.84-1.9-1.76-.08-3.46,.61-4.66,1.91h0Zm114.12,15.49v-13.04c0-2.18-.8-3.27-2.4-3.27-1.99,0-2.98,1.45-2.98,4.35v11.97h-6.3v-13.04c0-2.18-.8-3.27-2.4-3.27-1.99,0-2.98,1.45-2.98,4.35v11.97h-6.3V23.22h6.3v2.77c.06-.08,.12-.19,.21-.33,.18-.26,.38-.51,.6-.74,.31-.36,.67-.67,1.06-.95,.48-.32,1.01-.58,1.57-.75,.68-.22,1.39-.34,2.11-.33,.72,0,1.43,.1,2.11,.31,.54,.16,1.05,.41,1.51,.75,.34,.26,.65,.54,.93,.85,.21,.22,.39,.47,.54,.74l.12,.29c.05-.08,.13-.18,.23-.31,.21-.25,.44-.48,.68-.7,.36-.34,.74-.65,1.16-.91,.52-.31,1.08-.54,1.66-.7,.7-.21,1.42-.32,2.15-.31,4.48,0,6.71,2.58,6.71,7.75v13.88l-6.29-.02Zm-46.25,0V23.58h4.47v3.77c.05-.16,.11-.31,.19-.46,.2-.36,.42-.7,.66-1.03,.33-.48,.72-.91,1.16-1.28,.54-.42,1.15-.75,1.8-.97,.79-.29,1.64-.41,2.49-.35l-.37,4.85c-1.58-.25-3.19,.24-4.35,1.35-1.1,1.18-1.66,2.76-1.57,4.37v10.69h-4.48Z"/></g><path class="cls-1" d="M39.9,13.35c-.6-.49-1.39-.67-2.14-.51-5.51,1.16-11.26-.02-15.88-3.24-.88-.61-2.04-.61-2.91,0-4.62,3.22-10.37,4.4-15.88,3.24-.76-.16-1.54,.02-2.14,.51C.34,13.84,0,14.57,0,15.34v19.02c0,7.43,3.58,14.4,9.62,18.71l9.32,6.64c.89,.63,2.08,.63,2.96,0l9.32-6.64c6.04-4.32,9.63-11.29,9.62-18.71V15.34c0-.77-.34-1.5-.94-1.99Z"/><g><path class="cls-2" d="M70.27,35.72v9.63h-6.64V17.89h10.76c3.26,0,5.75,.81,7.46,2.43s2.56,3.8,2.56,6.54c0,1.71-.38,3.23-1.15,4.56-.76,1.33-1.9,2.38-3.4,3.15-1.5,.76-3.33,1.15-5.48,1.15h-4.12Zm7.38-8.85c0-2.41-1.33-3.61-4-3.61h-3.38v7.15h3.38c2.67,0,4-1.18,4-3.53Z"/><path class="cls-2" d="M100.17,24.53c1.19,.75,2.07,1.77,2.64,3.07v-3.92h6.6v21.67h-6.6v-3.92c-.57,1.29-1.45,2.32-2.64,3.07-1.19,.75-2.61,1.13-4.27,1.13-1.79,0-3.39-.45-4.8-1.34s-2.52-2.18-3.34-3.86c-.82-1.68-1.22-3.65-1.22-5.9s.41-4.25,1.22-5.92c.82-1.67,1.93-2.95,3.34-3.84s3.01-1.34,4.8-1.34c1.66,0,3.08,.38,4.27,1.13Zm-5.57,6.1c-.87,.93-1.3,2.23-1.3,3.88s.43,2.95,1.3,3.88c.87,.93,2.01,1.4,3.44,1.4s2.54-.48,3.44-1.44c.89-.96,1.34-2.24,1.34-3.85s-.45-2.92-1.34-3.86-2.04-1.42-3.44-1.42-2.57,.47-3.44,1.4Z"/><path class="cls-2" d="M126.5,24.53c1.19,.75,2.07,1.77,2.64,3.07v-3.92h6.6v21.55c0,2.02-.39,3.84-1.16,5.46-.78,1.62-1.97,2.91-3.57,3.86-1.61,.96-3.6,1.44-5.98,1.44-3.26,0-5.87-.77-7.83-2.31s-3.13-3.63-3.51-6.27h6.56c.21,.88,.68,1.57,1.42,2.06s1.7,.74,2.89,.74c1.37,0,2.48-.39,3.32-1.18,.84-.79,1.26-2.05,1.26-3.79v-3.81c-.57,1.29-1.45,2.32-2.64,3.07-1.19,.75-2.61,1.13-4.27,1.13-1.79,0-3.39-.45-4.8-1.34s-2.52-2.18-3.34-3.86c-.82-1.68-1.22-3.65-1.22-5.9s.41-4.25,1.22-5.92c.82-1.67,1.93-2.95,3.34-3.84s3.01-1.34,4.8-1.34c1.66,0,3.08,.38,4.27,1.13Zm-5.57,6.1c-.87,.93-1.3,2.23-1.3,3.88s.43,2.95,1.3,3.88c.87,.93,2.01,1.4,3.44,1.4s2.54-.48,3.44-1.44c.89-.96,1.34-2.24,1.34-3.85s-.45-2.92-1.34-3.86-2.04-1.42-3.44-1.42-2.57,.47-3.44,1.4Z"/><path class="cls-2" d="M152.83,24.53c1.19,.75,2.07,1.77,2.64,3.07v-3.92h6.6v21.67h-6.6v-3.92c-.57,1.29-1.45,2.32-2.64,3.07-1.19,.75-2.61,1.13-4.27,1.13-1.79,0-3.39-.45-4.8-1.34s-2.52-2.18-3.34-3.86c-.82-1.68-1.22-3.65-1.22-5.9s.41-4.25,1.22-5.92c.82-1.67,1.93-2.95,3.34-3.84s3.01-1.34,4.8-1.34c1.66,0,3.08,.38,4.27,1.13Zm-5.57,6.1c-.87,.93-1.3,2.23-1.3,3.88s.43,2.95,1.3,3.88c.87,.93,2.01,1.4,3.44,1.4s2.54-.48,3.44-1.44c.89-.96,1.34-2.24,1.34-3.85s-.45-2.92-1.34-3.86-2.04-1.42-3.44-1.42-2.57,.47-3.44,1.4Z"/><path class="cls-2" d="M201.03,25.91c1.53,1.64,2.29,3.93,2.29,6.86v12.58h-6.6v-11.81c0-1.37-.37-2.44-1.11-3.2-.74-.76-1.74-1.15-3.01-1.15s-2.36,.41-3.13,1.22c-.76,.81-1.15,1.96-1.15,3.44v11.5h-6.64v-11.81c0-1.37-.36-2.44-1.09-3.2-.72-.76-1.72-1.15-2.99-1.15s-2.37,.4-3.15,1.2-1.16,1.95-1.16,3.46v11.5h-6.64V23.68h6.64v3.69c.57-1.22,1.44-2.17,2.62-2.87,1.18-.7,2.56-1.05,4.14-1.05,1.66,0,3.12,.38,4.39,1.15,1.27,.76,2.23,1.86,2.87,3.28,.75-1.35,1.78-2.42,3.09-3.22,1.31-.8,2.75-1.2,4.33-1.2,2.67,0,4.76,.82,6.29,2.47Z"/><path class="cls-2" d="M228.14,35.72h-15.03c.08,1.63,.49,2.8,1.24,3.51,.75,.71,1.71,1.07,2.87,1.07,.98,0,1.8-.25,2.45-.74,.65-.49,1.07-1.13,1.28-1.9h7.03c-.28,1.53-.91,2.89-1.86,4.1-.96,1.2-2.17,2.15-3.65,2.84-1.48,.69-3.12,1.03-4.93,1.03-2.12,0-4.01-.45-5.65-1.34-1.64-.89-2.93-2.18-3.86-3.86-.93-1.68-1.4-3.65-1.4-5.9s.46-4.25,1.38-5.92c.92-1.67,2.21-2.95,3.86-3.84s3.55-1.34,5.67-1.34,4.04,.44,5.67,1.32c1.63,.88,2.89,2.12,3.79,3.71s1.34,3.42,1.34,5.5c0,.54-.07,1.14-.19,1.79Zm-7.67-6c-.79-.71-1.77-1.07-2.93-1.07s-2.23,.36-3.03,1.09c-.8,.72-1.26,1.79-1.36,3.18h8.47c.03-1.42-.36-2.49-1.15-3.2Z"/><path class="cls-2" d="M251.46,25.93c1.46,1.66,2.19,3.94,2.19,6.84v12.58h-6.64v-11.81c0-1.45-.38-2.58-1.15-3.4-.76-.82-1.78-1.22-3.05-1.22-1.35,0-2.41,.43-3.2,1.28-.79,.85-1.18,2.07-1.18,3.65v11.5h-6.64V23.68h6.64v3.96c.62-1.29,1.55-2.32,2.78-3.07,1.23-.75,2.67-1.13,4.33-1.13,2.49,0,4.46,.83,5.92,2.49Z"/><path class="cls-2" d="M270.31,39.64v5.71h-2.99c-2.54,0-4.51-.63-5.92-1.88-1.41-1.26-2.12-3.33-2.12-6.23v-7.96h-2.91v-5.59h2.91v-5.32h6.64v5.32h4.35v5.59h-4.35v8.08c0,.85,.18,1.45,.52,1.79,.35,.34,.94,.5,1.77,.5h2.1Z"/><path class="cls-2" d="M289.94,24.75c1.7,.89,3.03,2.18,4,3.86,.97,1.68,1.46,3.65,1.46,5.9s-.49,4.22-1.46,5.9c-.97,1.68-2.3,2.97-4,3.86s-3.62,1.34-5.77,1.34-4.08-.45-5.79-1.34-3.05-2.18-4.02-3.86c-.97-1.68-1.46-3.65-1.46-5.9s.49-4.22,1.46-5.9c.97-1.68,2.31-2.97,4.02-3.86s3.64-1.34,5.79-1.34,4.07,.45,5.77,1.34Zm-8.97,5.79c-.87,.92-1.3,2.25-1.3,3.98s.43,3.06,1.3,3.96c.87,.91,1.94,1.36,3.2,1.36s2.33-.45,3.18-1.36c.85-.91,1.28-2.23,1.28-3.96s-.43-3.06-1.28-3.98-1.92-1.38-3.18-1.38-2.34,.46-3.2,1.38Z"/></g></g></g></svg>