<svg id="svg" version="1.1" xmlns="http://www.w3.org/2000/svg" xmlns:xlink="http://www.w3.org/1999/xlink" width="400" height="106.25" viewBox="0, 0, 400,106.25"><g id="svgg"><path id="path0" d="M122.773 28.740 C 122.327 28.860,121.915 29.028,121.856 29.113 C 121.798 29.198,121.487 29.389,121.166 29.539 C 118.616 30.724,117.602 35.703,119.427 38.083 C 121.672 41.013,120.335 40.833,139.891 40.833 C 155.895 40.833,157.323 40.789,158.000 40.271 C 158.137 40.166,158.508 39.936,158.824 39.761 C 159.501 39.386,160.035 38.808,160.450 38.000 C 160.615 37.679,160.812 37.371,160.887 37.316 C 161.485 36.877,161.477 32.457,160.878 32.012 C 160.808 31.959,160.615 31.654,160.450 31.333 C 159.794 30.057,158.376 29.013,156.856 28.687 C 155.509 28.398,123.862 28.448,122.773 28.740 M122.348 47.273 C 121.943 47.415,121.506 47.637,121.377 47.766 C 121.248 47.894,121.084 48.000,121.013 48.000 C 120.763 48.000,119.748 49.083,119.452 49.664 C 119.289 49.986,119.026 50.475,118.869 50.750 C 118.483 51.426,118.458 54.697,118.833 55.353 C 118.971 55.593,119.254 56.101,119.464 56.482 C 119.839 57.165,120.760 58.167,121.013 58.167 C 121.084 58.167,121.248 58.272,121.377 58.401 C 122.128 59.152,122.420 59.167,136.303 59.167 C 149.732 59.167,151.103 59.107,151.301 58.515 C 151.334 58.415,151.449 58.333,151.556 58.332 C 151.823 58.330,153.167 56.941,153.167 56.666 C 153.167 56.544,153.216 56.494,153.277 56.555 C 153.396 56.674,154.000 55.440,154.000 55.079 C 154.000 54.959,154.083 54.834,154.183 54.800 C 154.433 54.717,154.419 51.333,154.169 51.333 C 154.110 51.333,153.931 50.921,153.772 50.417 C 153.613 49.913,153.410 49.500,153.321 49.500 C 153.232 49.500,153.074 49.313,152.970 49.083 C 152.865 48.854,152.709 48.667,152.622 48.667 C 152.536 48.667,152.317 48.479,152.137 48.250 C 151.957 48.021,151.708 47.833,151.585 47.833 C 151.462 47.833,151.334 47.752,151.301 47.652 C 151.066 46.948,124.276 46.598,122.348 47.273 M122.833 65.574 C 121.421 65.972,119.975 67.081,119.396 68.211 C 119.244 68.507,119.065 68.787,118.998 68.833 C 118.600 69.104,118.339 72.415,118.653 73.200 C 118.967 73.986,119.052 74.253,119.026 74.375 C 119.012 74.444,119.075 74.500,119.167 74.500 C 119.258 74.500,119.333 74.600,119.333 74.722 C 119.333 75.441,121.414 77.062,122.802 77.423 C 124.013 77.739,155.406 77.791,156.856 77.480 C 157.637 77.312,159.338 76.444,159.467 76.147 C 159.495 76.083,159.736 75.802,160.004 75.522 C 160.271 75.242,160.538 74.823,160.597 74.590 C 160.655 74.357,160.758 74.167,160.825 74.167 C 161.066 74.167,161.345 72.817,161.352 71.625 C 161.358 70.355,161.065 68.833,160.814 68.833 C 160.733 68.833,160.667 68.736,160.667 68.617 C 160.667 68.214,159.420 66.701,158.833 66.393 C 158.512 66.224,158.203 66.022,158.146 65.943 C 157.693 65.315,124.968 64.973,122.833 65.574 " stroke="none" fill="#2cdbdc" fill-rule="evenodd"></path><path id="path1" d="M361.505 32.292 C 361.508 32.360,361.714 32.561,361.964 32.737 L 362.417 33.057 362.013 32.612 C 361.588 32.144,361.497 32.086,361.505 32.292 M184.902 44.250 C 184.901 45.808,184.926 46.468,184.957 45.717 C 184.988 44.965,184.988 43.690,184.958 42.883 C 184.927 42.077,184.902 42.692,184.902 44.250 M316.491 42.773 C 316.399 43.015,316.355 43.244,316.393 43.282 C 316.431 43.319,316.541 43.122,316.639 42.842 C 316.855 42.220,316.725 42.159,316.491 42.773 M357.977 43.652 C 357.760 43.828,357.627 44.015,357.680 44.068 C 357.733 44.122,357.952 43.978,358.167 43.749 C 358.631 43.256,358.530 43.204,357.977 43.652 M214.980 46.458 C 214.969 46.527,214.970 46.643,214.983 46.715 C 214.995 46.788,214.933 46.981,214.845 47.146 C 214.732 47.356,214.744 47.444,214.886 47.444 C 215.002 47.444,215.092 47.207,215.097 46.889 C 215.106 46.395,215.033 46.126,214.980 46.458 M184.898 49.250 C 184.898 50.442,184.925 50.907,184.957 50.285 C 184.989 49.662,184.989 48.687,184.957 48.118 C 184.924 47.549,184.898 48.058,184.898 49.250 M314.913 48.343 C 314.853 48.535,314.847 48.736,314.901 48.790 C 314.956 48.845,315.000 48.770,315.000 48.625 C 315.000 48.480,315.090 48.331,315.200 48.294 C 315.346 48.246,315.349 48.196,315.212 48.111 C 315.103 48.044,314.978 48.141,314.913 48.343 M196.333 50.583 C 196.218 50.723,196.200 50.833,196.293 50.833 C 196.384 50.833,196.553 50.721,196.667 50.583 C 196.782 50.444,196.800 50.333,196.707 50.333 C 196.616 50.333,196.447 50.446,196.333 50.583 M184.885 52.083 L 184.893 52.750 187.988 52.667 L 191.083 52.584 188.052 52.538 L 185.021 52.493 184.949 51.955 C 184.889 51.502,184.879 51.522,184.885 52.083 M105.000 57.320 C 105.000 57.404,104.950 57.604,104.888 57.764 C 104.818 57.947,104.842 58.015,104.952 57.947 C 105.182 57.804,105.345 57.167,105.151 57.167 C 105.068 57.167,105.000 57.236,105.000 57.320 M333.377 59.816 C 333.519 60.196,333.601 60.278,333.641 60.081 C 333.673 59.923,333.580 59.675,333.434 59.530 C 333.193 59.288,333.188 59.313,333.377 59.816 M315.692 61.325 C 315.763 61.540,315.992 61.578,316.012 61.379 C 316.019 61.313,315.935 61.228,315.825 61.192 C 315.715 61.155,315.655 61.215,315.692 61.325 M102.487 65.042 C 102.480 65.156,102.448 65.388,102.416 65.557 C 102.384 65.726,102.406 65.817,102.463 65.759 C 102.599 65.624,102.706 64.833,102.589 64.833 C 102.540 64.833,102.494 64.927,102.487 65.042 M184.909 72.000 C 184.909 75.438,184.931 76.844,184.958 75.125 C 184.985 73.406,184.985 70.594,184.958 68.875 C 184.931 67.156,184.909 68.563,184.909 72.000 M322.668 72.168 C 322.880 72.352,323.092 72.463,323.140 72.416 C 323.238 72.318,322.661 71.847,322.433 71.839 C 322.350 71.836,322.456 71.984,322.668 72.168 " stroke="none" fill="#0c74ac" fill-rule="evenodd"></path><path id="path2" d="M340.257 26.965 C 340.194 27.028,338.120 27.206,337.604 27.193 C 337.432 27.188,337.183 27.293,337.049 27.427 C 336.916 27.561,336.738 27.627,336.654 27.575 C 336.369 27.400,335.824 27.350,335.922 27.509 C 335.976 27.596,335.921 27.672,335.802 27.678 C 335.682 27.684,335.321 27.729,335.000 27.777 C 334.679 27.825,334.323 27.870,334.208 27.877 C 334.094 27.883,334.000 27.959,334.000 28.046 C 334.000 28.132,333.895 28.162,333.766 28.113 C 333.638 28.063,333.394 28.128,333.225 28.256 C 333.055 28.384,332.715 28.492,332.468 28.495 C 332.221 28.498,331.970 28.580,331.910 28.678 C 331.849 28.776,331.695 28.816,331.566 28.767 C 331.438 28.717,331.333 28.754,331.333 28.848 C 331.333 28.943,331.258 28.973,331.167 28.917 C 331.075 28.860,331.000 28.893,331.000 28.990 C 331.000 29.087,330.896 29.167,330.768 29.167 C 330.641 29.167,330.213 29.312,329.817 29.489 C 329.422 29.666,329.026 29.766,328.937 29.711 C 328.847 29.656,328.821 29.726,328.877 29.873 C 328.952 30.069,328.834 30.161,328.405 30.241 C 328.091 30.300,327.833 30.423,327.833 30.515 C 327.833 30.606,327.702 30.659,327.542 30.632 C 327.371 30.604,327.269 30.675,327.296 30.804 C 327.321 30.925,327.269 30.980,327.181 30.925 C 327.092 30.871,326.875 30.982,326.698 31.172 C 326.521 31.362,326.218 31.529,326.025 31.544 C 325.833 31.558,325.638 31.667,325.593 31.785 C 325.548 31.903,325.396 32.000,325.255 32.000 C 325.115 32.000,325.000 32.087,325.000 32.194 C 325.000 32.301,324.949 32.338,324.888 32.276 C 324.826 32.215,324.639 32.371,324.472 32.624 C 324.305 32.876,324.168 33.028,324.168 32.960 C 324.167 32.845,324.039 32.937,323.127 33.708 C 322.937 33.869,322.663 34.001,322.516 34.003 C 322.307 34.005,322.297 34.035,322.472 34.146 C 322.650 34.259,322.640 34.308,322.420 34.392 C 322.265 34.452,322.197 34.582,322.265 34.691 C 322.340 34.812,322.312 34.840,322.191 34.765 C 322.074 34.693,321.936 34.799,321.842 35.031 C 321.757 35.243,321.683 35.345,321.677 35.258 C 321.663 35.049,320.333 36.436,320.333 36.660 C 320.333 36.755,320.208 36.833,320.056 36.833 C 319.903 36.833,319.823 36.879,319.879 36.934 C 319.934 36.990,319.828 37.196,319.643 37.393 C 319.458 37.589,319.173 38.012,319.010 38.333 C 318.392 39.551,318.214 39.825,318.109 39.720 C 318.049 39.660,318.000 39.702,318.000 39.813 C 318.000 39.923,317.856 40.169,317.679 40.359 C 317.502 40.548,317.401 40.815,317.453 40.952 C 317.506 41.088,317.444 41.265,317.316 41.344 C 317.188 41.423,317.081 41.547,317.078 41.619 C 317.066 41.887,316.429 43.420,316.288 43.517 C 316.153 43.611,315.836 44.647,315.795 45.125 C 315.786 45.240,315.710 45.333,315.628 45.333 C 315.545 45.333,315.525 45.483,315.583 45.667 C 315.642 45.850,315.622 46.000,315.540 46.000 C 315.457 46.000,315.399 46.268,315.410 46.595 C 315.421 46.923,315.372 47.226,315.302 47.269 C 315.232 47.313,315.201 47.570,315.232 47.841 C 315.264 48.112,315.243 48.333,315.186 48.333 C 314.969 48.333,314.716 49.483,314.894 49.660 C 315.013 49.780,314.992 49.834,314.825 49.836 C 314.619 49.838,314.621 49.863,314.833 50.000 C 314.998 50.107,315.013 50.162,314.876 50.164 C 314.653 50.167,314.669 50.604,314.906 50.984 C 315.006 51.145,314.991 51.181,314.858 51.099 C 314.726 51.017,314.668 51.154,314.673 51.531 C 314.678 51.835,314.678 52.196,314.673 52.333 C 314.641 53.314,314.801 56.300,314.898 56.517 C 314.963 56.664,314.998 56.851,314.975 56.933 C 314.952 57.016,314.999 57.458,315.079 57.917 C 315.158 58.375,315.206 58.851,315.184 58.975 C 315.159 59.114,315.222 59.152,315.348 59.074 C 315.480 58.993,315.509 59.018,315.429 59.147 C 315.268 59.407,315.487 60.694,315.673 60.580 C 315.751 60.531,315.788 60.637,315.753 60.816 C 315.719 60.994,315.786 61.177,315.902 61.221 C 316.031 61.271,316.086 61.493,316.042 61.791 C 316.000 62.077,316.068 62.377,316.205 62.515 C 316.335 62.644,316.449 62.788,316.459 62.833 C 316.483 62.946,316.818 63.856,316.949 64.167 C 317.007 64.304,317.061 64.476,317.069 64.548 C 317.077 64.620,317.188 64.744,317.316 64.823 C 317.459 64.911,317.504 65.083,317.432 65.270 C 317.368 65.437,317.371 65.518,317.439 65.450 C 317.507 65.382,317.700 65.628,317.869 65.997 C 318.038 66.365,318.271 66.667,318.386 66.667 C 318.501 66.667,318.608 66.834,318.624 67.039 C 318.639 67.244,318.731 67.438,318.827 67.470 C 318.923 67.502,318.960 67.597,318.908 67.681 C 318.856 67.765,318.899 67.833,319.004 67.833 C 319.109 67.833,319.165 67.921,319.129 68.029 C 319.093 68.137,319.286 68.437,319.557 68.696 C 319.828 68.955,320.003 69.167,319.947 69.167 C 319.891 69.167,320.067 69.394,320.339 69.672 C 320.611 69.951,320.833 70.259,320.833 70.357 C 320.833 70.455,320.940 70.495,321.070 70.445 C 321.259 70.372,321.576 70.721,321.461 70.877 C 321.372 70.998,322.161 71.723,322.625 71.945 C 322.923 72.088,323.167 72.280,323.167 72.372 C 323.167 72.635,324.228 73.505,324.450 73.423 C 324.563 73.382,324.613 73.447,324.565 73.572 C 324.512 73.710,324.677 73.863,325.002 73.976 C 325.290 74.076,325.482 74.228,325.429 74.313 C 325.376 74.399,325.473 74.432,325.643 74.388 C 325.859 74.331,325.982 74.415,326.046 74.658 C 326.097 74.851,326.214 74.989,326.307 74.963 C 326.400 74.938,326.576 75.047,326.697 75.205 C 326.818 75.364,327.089 75.519,327.300 75.550 C 327.510 75.581,327.829 75.732,328.008 75.885 C 328.187 76.038,328.334 76.108,328.336 76.040 C 328.337 75.972,328.400 76.014,328.476 76.133 C 328.551 76.253,328.775 76.362,328.973 76.377 C 329.171 76.392,329.333 76.451,329.333 76.509 C 329.333 76.693,330.185 77.008,330.372 76.893 C 330.484 76.824,330.503 76.861,330.422 76.992 C 330.325 77.149,330.388 77.172,330.667 77.083 C 330.922 77.002,331.005 77.023,330.928 77.149 C 330.816 77.329,331.026 77.404,331.475 77.342 C 331.620 77.322,331.653 77.389,331.568 77.531 C 331.464 77.703,331.487 77.708,331.677 77.555 C 331.949 77.335,332.595 77.672,332.372 77.918 C 332.305 77.993,332.347 77.997,332.466 77.929 C 332.584 77.861,332.772 77.876,332.882 77.964 C 332.993 78.052,333.383 78.174,333.750 78.237 C 334.117 78.300,334.557 78.393,334.729 78.443 C 334.930 78.503,335.001 78.470,334.929 78.353 C 334.858 78.239,334.912 78.207,335.074 78.269 C 335.215 78.324,335.290 78.435,335.239 78.517 C 335.150 78.662,335.343 78.704,336.125 78.710 C 336.331 78.711,336.500 78.772,336.500 78.846 C 336.500 78.919,336.631 78.974,336.792 78.967 C 336.952 78.961,337.608 79.013,338.250 79.084 C 341.084 79.394,348.225 79.184,349.200 78.760 C 349.356 78.693,349.557 78.682,349.647 78.738 C 349.737 78.793,349.857 78.763,349.915 78.669 C 349.973 78.576,350.234 78.500,350.496 78.500 C 350.758 78.500,351.010 78.406,351.056 78.292 C 351.107 78.165,351.146 78.156,351.154 78.269 C 351.169 78.484,352.811 78.244,353.075 77.987 C 353.162 77.903,353.401 77.833,353.607 77.833 C 353.812 77.833,354.027 77.757,354.085 77.664 C 354.143 77.571,354.246 77.529,354.315 77.572 C 354.529 77.704,356.347 77.071,356.211 76.911 C 356.141 76.829,356.214 76.861,356.373 76.983 C 356.618 77.170,356.678 77.164,356.762 76.946 C 356.816 76.804,356.960 76.726,357.080 76.772 C 357.201 76.818,357.349 76.776,357.410 76.678 C 357.470 76.580,357.698 76.500,357.917 76.500 C 358.135 76.500,358.361 76.424,358.418 76.331 C 358.476 76.237,358.593 76.204,358.678 76.257 C 358.764 76.310,358.833 76.269,358.833 76.167 C 358.833 76.064,358.921 76.035,359.028 76.101 C 359.161 76.183,359.188 76.129,359.114 75.935 C 359.043 75.752,359.069 75.689,359.184 75.761 C 359.376 75.880,359.937 75.640,360.738 75.098 C 361.007 74.916,361.168 74.863,361.096 74.980 C 360.990 75.150,361.031 75.150,361.305 74.979 C 361.492 74.862,361.608 74.707,361.563 74.633 C 361.517 74.560,361.560 74.500,361.657 74.500 C 361.754 74.500,361.833 74.589,361.833 74.699 C 361.833 74.808,361.951 74.751,362.096 74.574 C 362.240 74.396,362.309 74.362,362.250 74.500 C 362.179 74.664,362.225 74.649,362.381 74.458 C 362.513 74.298,362.667 74.167,362.725 74.167 C 362.782 74.167,362.962 74.054,363.123 73.915 C 363.285 73.777,363.454 73.680,363.500 73.699 C 363.656 73.766,364.317 73.108,364.232 72.970 C 364.185 72.895,364.264 72.833,364.407 72.833 C 364.725 72.833,364.810 52.413,364.494 51.822 C 364.299 51.457,350.141 51.303,349.919 51.663 C 349.863 51.753,349.823 54.635,349.829 58.068 C 349.836 61.500,349.777 64.349,349.698 64.397 C 349.620 64.446,349.302 64.530,348.993 64.585 C 348.683 64.639,348.352 64.740,348.257 64.810 C 348.161 64.879,347.877 64.928,347.625 64.918 C 347.373 64.909,347.167 64.973,347.167 65.062 C 347.167 65.150,347.121 65.177,347.066 65.122 C 347.011 65.066,346.767 65.103,346.525 65.204 C 346.282 65.304,345.280 65.396,344.298 65.409 C 343.317 65.421,342.460 65.484,342.396 65.549 C 342.331 65.614,342.197 65.666,342.097 65.664 C 341.998 65.663,342.029 65.590,342.167 65.502 C 342.350 65.385,342.257 65.348,341.818 65.364 C 341.489 65.376,341.114 65.320,340.985 65.239 C 340.856 65.159,340.600 65.076,340.417 65.055 C 339.852 64.991,338.031 64.420,337.886 64.262 C 337.809 64.177,337.840 64.165,337.958 64.233 C 338.073 64.299,338.167 64.274,338.167 64.177 C 338.167 64.079,337.983 64.000,337.759 64.000 C 337.534 64.000,337.242 63.843,337.106 63.649 C 336.971 63.455,336.779 63.347,336.680 63.408 C 336.579 63.471,336.500 63.401,336.500 63.250 C 336.500 63.102,336.444 63.014,336.375 63.056 C 336.197 63.164,335.830 62.728,335.968 62.574 C 336.032 62.504,335.994 62.498,335.885 62.560 C 335.694 62.670,334.833 61.898,334.833 61.617 C 334.833 61.542,334.777 61.506,334.708 61.538 C 334.640 61.570,334.358 61.374,334.083 61.103 C 333.808 60.832,333.677 60.664,333.792 60.731 C 334.058 60.887,334.074 60.399,333.808 60.234 C 333.688 60.160,333.660 60.188,333.734 60.308 C 333.799 60.413,333.817 60.500,333.772 60.500 C 333.665 60.500,333.167 59.496,333.167 59.279 C 333.167 59.186,333.035 58.960,332.875 58.776 C 332.664 58.535,332.652 58.480,332.833 58.579 C 333.029 58.686,333.041 58.670,332.888 58.504 C 332.781 58.388,332.737 58.177,332.791 58.036 C 332.850 57.884,332.820 57.822,332.719 57.884 C 332.613 57.950,332.578 57.834,332.627 57.578 C 332.674 57.329,332.628 57.167,332.510 57.167 C 332.400 57.167,332.367 57.258,332.434 57.375 C 332.500 57.490,332.488 57.524,332.407 57.450 C 332.327 57.377,332.249 57.040,332.235 56.700 C 332.220 56.361,332.193 56.083,332.175 56.083 C 332.095 56.083,331.992 54.593,331.948 52.792 C 331.916 51.504,331.959 50.832,332.075 50.831 C 332.171 50.829,332.148 50.764,332.024 50.685 C 331.856 50.579,331.848 50.511,331.994 50.421 C 332.101 50.354,332.150 50.197,332.102 50.072 C 332.054 49.947,332.094 49.795,332.192 49.735 C 332.310 49.662,332.293 49.577,332.143 49.482 C 331.997 49.389,331.986 49.338,332.112 49.336 C 332.219 49.334,332.356 49.108,332.417 48.833 C 332.477 48.558,332.596 48.333,332.680 48.333 C 332.764 48.333,332.832 48.202,332.831 48.042 C 332.829 47.792,332.805 47.786,332.667 48.000 C 332.578 48.137,332.504 48.170,332.503 48.073 C 332.501 47.976,332.632 47.751,332.793 47.573 C 333.036 47.305,333.494 46.489,333.582 46.167 C 333.653 45.908,334.269 45.002,334.375 45.001 C 334.444 45.000,334.500 44.921,334.500 44.823 C 334.500 44.726,334.413 44.701,334.308 44.766 C 334.187 44.840,334.160 44.812,334.236 44.690 C 334.302 44.582,334.422 44.535,334.502 44.584 C 334.653 44.678,335.333 44.038,335.333 43.802 C 335.333 43.728,335.502 43.666,335.708 43.664 C 335.980 43.662,336.021 43.622,335.859 43.519 C 335.694 43.415,335.752 43.348,336.079 43.266 C 336.323 43.205,336.740 42.932,337.006 42.661 C 337.271 42.389,337.599 42.167,337.735 42.167 C 337.870 42.167,338.027 42.090,338.085 41.997 C 338.143 41.904,338.255 41.868,338.335 41.917 C 338.414 41.967,338.540 41.900,338.615 41.769 C 338.689 41.638,338.983 41.495,339.269 41.450 C 339.554 41.406,339.949 41.283,340.147 41.177 C 340.345 41.071,340.574 41.026,340.656 41.077 C 340.738 41.127,340.832 41.089,340.864 40.991 C 340.897 40.893,341.240 40.809,341.626 40.804 C 342.041 40.798,342.287 40.727,342.228 40.630 C 342.172 40.540,342.301 40.560,342.514 40.674 C 342.823 40.840,342.915 40.839,342.971 40.672 C 343.026 40.506,343.068 40.508,343.174 40.679 C 343.284 40.856,343.355 40.856,343.571 40.677 C 343.715 40.557,343.833 40.527,343.833 40.609 C 343.833 40.691,344.389 40.757,345.067 40.754 C 345.746 40.752,346.262 40.814,346.213 40.893 C 346.165 40.971,346.294 40.982,346.500 40.917 C 346.781 40.827,346.842 40.851,346.744 41.010 C 346.651 41.160,346.691 41.193,346.879 41.121 C 347.025 41.065,347.169 41.087,347.198 41.170 C 347.226 41.252,347.596 41.352,348.019 41.391 C 348.442 41.431,348.986 41.592,349.227 41.751 C 349.469 41.909,349.667 41.987,349.667 41.924 C 349.667 41.861,349.864 41.965,350.106 42.155 C 350.347 42.345,350.639 42.500,350.755 42.500 C 350.870 42.500,351.008 42.612,351.060 42.750 C 351.113 42.887,351.271 43.000,351.411 43.000 C 351.552 43.000,351.667 43.067,351.667 43.149 C 351.667 43.230,351.857 43.345,352.090 43.403 C 352.323 43.462,352.472 43.577,352.421 43.660 C 352.370 43.742,352.480 43.857,352.664 43.916 C 352.849 43.975,353.000 44.130,353.000 44.261 C 353.000 44.393,353.056 44.491,353.125 44.480 C 353.499 44.421,353.710 44.562,354.143 45.161 C 354.407 45.525,354.674 45.771,354.737 45.708 C 354.800 45.645,354.805 45.713,354.749 45.859 C 354.571 46.323,355.101 46.325,355.625 45.861 C 355.901 45.617,356.357 45.234,356.637 45.010 C 356.918 44.786,357.114 44.550,357.075 44.486 C 357.035 44.421,357.118 44.324,357.260 44.269 C 357.433 44.203,357.478 44.238,357.399 44.377 C 357.333 44.490,357.341 44.528,357.415 44.461 C 357.489 44.394,357.637 44.169,357.743 43.961 C 357.849 43.753,358.066 43.594,358.224 43.607 C 358.454 43.627,358.472 43.584,358.316 43.395 C 358.156 43.203,358.175 43.180,358.420 43.275 C 358.628 43.354,358.684 43.329,358.600 43.194 C 358.529 43.079,358.603 42.950,358.779 42.883 C 358.944 42.819,359.230 42.633,359.414 42.469 C 360.430 41.566,360.965 41.187,361.073 41.295 C 361.140 41.362,361.169 41.342,361.139 41.250 C 361.076 41.061,361.751 40.333,361.989 40.333 C 362.074 40.333,362.191 40.185,362.249 40.003 C 362.307 39.822,362.443 39.691,362.552 39.712 C 362.661 39.733,362.728 39.647,362.702 39.521 C 362.671 39.376,362.746 39.328,362.908 39.390 C 363.058 39.448,363.146 39.405,363.123 39.286 C 363.101 39.174,363.177 39.102,363.292 39.125 C 363.406 39.148,363.500 39.054,363.500 38.917 C 363.500 38.779,363.631 38.666,363.792 38.664 C 364.023 38.662,364.036 38.632,363.852 38.515 C 363.669 38.399,363.699 38.328,363.998 38.168 C 364.305 38.003,364.353 38.008,364.258 38.192 C 364.195 38.315,364.335 38.192,364.570 37.917 C 364.806 37.642,364.999 37.480,364.999 37.558 C 365.000 37.636,365.268 37.432,365.596 37.104 C 366.144 36.556,366.232 36.167,365.809 36.167 C 365.627 36.167,364.410 34.950,364.016 34.373 C 363.887 34.184,363.681 34.069,363.557 34.116 C 363.434 34.164,363.333 34.095,363.333 33.963 C 363.333 33.831,362.995 33.480,362.581 33.183 C 362.120 32.852,361.874 32.566,361.946 32.446 C 362.013 32.336,361.941 32.350,361.782 32.479 C 361.542 32.673,361.500 32.672,361.500 32.473 C 361.500 32.344,361.275 32.106,361.000 31.943 C 360.725 31.781,360.500 31.577,360.500 31.491 C 360.500 31.404,360.397 31.333,360.270 31.333 C 360.144 31.333,359.946 31.219,359.830 31.079 C 359.714 30.940,359.580 30.865,359.531 30.913 C 359.483 30.961,359.306 30.876,359.138 30.724 C 358.969 30.571,358.786 30.492,358.731 30.547 C 358.637 30.641,358.479 30.542,357.911 30.030 C 357.708 29.847,357.666 29.847,357.664 30.030 C 357.662 30.192,357.619 30.185,357.500 30.000 C 357.411 29.863,357.337 29.812,357.336 29.887 C 357.334 29.962,357.215 29.906,357.071 29.762 C 356.927 29.618,356.708 29.500,356.583 29.500 C 356.459 29.500,356.239 29.382,356.095 29.238 C 355.940 29.083,355.833 29.054,355.833 29.167 C 355.833 29.276,355.718 29.242,355.562 29.086 C 355.413 28.936,355.203 28.848,355.097 28.889 C 354.990 28.929,354.767 28.864,354.602 28.743 C 354.436 28.622,354.196 28.563,354.067 28.613 C 353.939 28.662,353.833 28.615,353.833 28.508 C 353.833 28.401,353.758 28.360,353.667 28.417 C 353.575 28.473,353.500 28.436,353.500 28.333 C 353.500 28.231,353.425 28.193,353.333 28.250 C 353.242 28.307,353.167 28.274,353.167 28.177 C 353.167 28.079,352.998 28.001,352.792 28.003 C 352.488 28.005,352.465 28.036,352.667 28.167 C 352.804 28.256,352.842 28.327,352.750 28.325 C 352.658 28.324,352.449 28.221,352.284 28.096 C 352.119 27.971,351.846 27.905,351.678 27.949 C 351.509 27.993,351.321 27.948,351.259 27.848 C 351.197 27.748,350.931 27.667,350.667 27.667 C 350.402 27.667,350.150 27.608,350.105 27.536 C 350.061 27.464,349.813 27.415,349.554 27.428 C 349.295 27.440,349.041 27.386,348.989 27.307 C 348.937 27.227,347.989 27.145,346.882 27.123 C 345.775 27.101,344.903 27.027,344.944 26.958 C 344.986 26.890,344.865 26.833,344.677 26.833 C 344.488 26.833,344.332 26.927,344.331 27.042 C 344.329 27.208,344.302 27.208,344.196 27.042 C 344.034 26.787,342.668 26.811,342.664 27.069 C 342.662 27.195,342.625 27.194,342.539 27.065 C 342.430 26.900,340.411 26.811,340.257 26.965 M29.748 27.714 C 29.813 27.917,29.874 28.215,29.885 28.375 C 29.896 28.535,29.958 28.667,30.022 28.667 C 30.087 28.667,30.190 28.892,30.250 29.168 C 30.315 29.462,30.434 29.624,30.538 29.560 C 30.653 29.489,30.685 29.605,30.631 29.892 C 30.584 30.135,30.615 30.333,30.700 30.333 C 30.784 30.333,30.810 30.403,30.757 30.488 C 30.704 30.574,30.745 30.696,30.848 30.759 C 30.981 30.841,30.970 30.917,30.809 31.018 C 30.643 31.124,30.638 31.162,30.792 31.164 C 30.906 31.166,31.000 31.349,31.000 31.571 C 31.000 31.794,31.100 32.076,31.222 32.198 C 31.344 32.320,31.411 32.516,31.372 32.633 C 31.333 32.750,31.417 33.090,31.559 33.389 C 31.701 33.687,31.862 34.191,31.917 34.507 C 31.973 34.824,32.115 35.233,32.233 35.417 C 32.351 35.600,32.435 35.915,32.419 36.117 C 32.403 36.319,32.437 36.455,32.495 36.420 C 32.594 36.359,32.974 37.456,33.062 38.054 C 33.084 38.202,33.148 38.371,33.206 38.428 C 33.263 38.486,33.265 38.650,33.210 38.794 C 33.144 38.966,33.176 39.014,33.305 38.934 C 33.412 38.868,33.506 38.874,33.514 38.948 C 33.521 39.023,33.542 39.278,33.560 39.516 C 33.577 39.754,33.721 40.079,33.879 40.237 C 34.187 40.544,34.264 40.747,34.015 40.592 C 33.888 40.514,33.884 40.851,34.007 41.167 C 34.025 41.212,34.026 41.319,34.010 41.403 C 33.994 41.487,34.093 41.463,34.231 41.350 C 34.443 41.173,34.472 41.212,34.426 41.613 C 34.396 41.872,34.472 42.327,34.594 42.625 C 34.716 42.923,34.773 43.167,34.721 43.167 C 34.669 43.167,34.700 43.260,34.790 43.375 C 34.937 43.561,35.136 44.167,35.265 44.817 C 35.290 44.945,35.372 45.095,35.447 45.150 C 35.522 45.205,35.597 45.325,35.613 45.417 C 35.629 45.508,35.692 45.733,35.753 45.917 C 35.843 46.186,35.830 46.202,35.685 46.000 C 35.529 45.784,35.505 45.790,35.503 46.042 C 35.501 46.202,35.569 46.333,35.654 46.333 C 35.738 46.333,35.898 46.615,36.009 46.958 C 36.120 47.302,36.252 47.655,36.303 47.743 C 36.354 47.831,36.416 48.092,36.441 48.324 C 36.465 48.555,36.557 48.896,36.644 49.081 C 36.905 49.632,37.054 50.068,37.071 50.333 C 37.081 50.471,37.148 50.677,37.221 50.792 C 37.293 50.906,37.299 51.087,37.234 51.192 C 37.164 51.306,37.188 51.340,37.293 51.275 C 37.402 51.207,37.516 51.437,37.589 51.874 C 37.655 52.264,37.765 52.733,37.834 52.917 C 37.903 53.100,37.970 53.306,37.981 53.375 C 37.993 53.443,38.108 53.781,38.237 54.125 C 38.473 54.754,38.687 55.586,38.656 55.758 C 38.647 55.809,38.764 56.040,38.915 56.271 C 39.067 56.502,39.219 56.839,39.254 57.020 C 39.334 57.436,39.668 58.482,39.860 58.917 C 40.008 59.253,40.166 59.872,40.220 60.333 C 40.237 60.471,40.349 60.688,40.471 60.816 C 40.617 60.970,40.633 61.085,40.518 61.156 C 40.406 61.225,40.461 61.456,40.672 61.802 C 40.852 62.099,41.000 62.490,41.000 62.671 C 41.000 62.852,41.071 63.000,41.157 63.000 C 41.244 63.000,41.285 63.149,41.250 63.331 C 41.215 63.514,41.307 63.783,41.454 63.930 C 41.680 64.156,41.685 64.219,41.485 64.346 C 41.294 64.467,41.292 64.495,41.476 64.497 C 41.608 64.499,41.662 64.604,41.606 64.750 C 41.554 64.887,41.571 65.000,41.645 65.000 C 41.719 65.000,41.867 65.192,41.975 65.427 C 42.084 65.668,42.097 65.810,42.003 65.752 C 41.907 65.693,41.879 65.759,41.936 65.908 C 41.991 66.050,42.087 66.167,42.149 66.167 C 42.211 66.167,42.276 66.317,42.294 66.500 C 42.363 67.228,42.395 67.333,42.546 67.333 C 42.632 67.333,42.660 67.443,42.608 67.578 C 42.557 67.713,42.586 67.867,42.674 67.921 C 42.762 67.975,42.833 68.203,42.833 68.427 C 42.833 68.650,42.903 68.833,42.989 68.833 C 43.075 68.833,43.110 69.027,43.067 69.263 C 43.011 69.569,43.046 69.658,43.189 69.569 C 43.324 69.486,43.357 69.530,43.291 69.702 C 43.237 69.844,43.276 70.042,43.377 70.144 C 43.541 70.307,43.598 70.515,43.696 71.292 C 43.710 71.406,43.769 71.500,43.826 71.500 C 43.883 71.500,43.944 71.631,43.962 71.792 C 44.033 72.416,44.106 72.643,44.323 72.904 C 44.446 73.053,44.502 73.220,44.446 73.276 C 44.391 73.332,44.431 73.536,44.535 73.730 C 44.640 73.924,44.750 74.271,44.780 74.500 C 44.810 74.729,44.851 75.042,44.870 75.196 C 44.889 75.350,44.964 75.439,45.036 75.395 C 45.108 75.350,45.167 75.431,45.167 75.573 C 45.167 76.021,45.183 76.071,45.512 76.603 C 45.847 77.144,45.960 77.603,45.651 77.167 C 45.494 76.944,45.482 76.944,45.543 77.167 C 45.602 77.384,46.742 77.423,54.264 77.465 C 62.773 77.513,64.433 77.462,64.246 77.159 C 64.194 77.076,64.232 76.855,64.331 76.670 C 64.462 76.426,64.461 76.333,64.327 76.333 C 64.225 76.333,64.260 76.216,64.405 76.071 C 64.549 75.927,64.676 75.740,64.688 75.655 C 64.699 75.570,64.727 75.425,64.750 75.333 C 64.773 75.242,64.801 75.012,64.813 74.823 C 64.824 74.635,64.907 74.526,64.998 74.582 C 65.091 74.639,65.122 74.576,65.069 74.438 C 65.017 74.303,65.069 74.018,65.184 73.805 C 65.397 73.410,65.478 73.081,65.546 72.333 C 65.566 72.104,65.674 71.858,65.785 71.787 C 65.896 71.716,65.944 71.547,65.892 71.412 C 65.840 71.277,65.884 71.167,65.989 71.167 C 66.095 71.167,66.164 71.073,66.144 70.958 C 66.087 70.643,66.533 69.334,66.668 69.417 C 66.733 69.458,66.766 69.305,66.741 69.079 C 66.716 68.852,66.752 68.667,66.820 68.667 C 66.946 68.667,66.986 68.507,67.049 67.750 C 67.068 67.521,67.140 67.333,67.208 67.333 C 67.277 67.333,67.333 67.146,67.333 66.917 C 67.333 66.688,67.402 66.500,67.485 66.500 C 67.569 66.500,67.618 66.369,67.594 66.208 C 67.571 66.048,67.671 65.824,67.817 65.712 C 68.034 65.545,68.042 65.479,67.861 65.360 C 67.685 65.244,67.702 65.189,67.940 65.098 C 68.190 65.002,68.200 64.957,68.002 64.835 C 67.799 64.709,67.806 64.640,68.048 64.372 C 68.205 64.199,68.333 63.927,68.333 63.769 C 68.333 63.582,68.407 63.525,68.542 63.605 C 68.663 63.678,68.646 63.600,68.500 63.417 C 68.299 63.165,68.297 63.131,68.487 63.245 C 68.663 63.352,68.697 63.319,68.619 63.116 C 68.562 62.966,68.588 62.799,68.677 62.744 C 68.766 62.689,68.799 62.579,68.750 62.500 C 68.701 62.421,68.737 62.309,68.831 62.252 C 68.924 62.194,69.000 61.968,69.000 61.750 C 69.000 61.532,69.076 61.306,69.169 61.248 C 69.263 61.191,69.296 61.074,69.243 60.988 C 69.190 60.903,69.218 60.833,69.306 60.833 C 69.393 60.833,69.511 60.712,69.567 60.565 C 69.645 60.361,69.600 60.323,69.381 60.407 C 69.165 60.490,69.191 60.412,69.483 60.101 C 69.731 59.837,69.836 59.580,69.767 59.402 C 69.708 59.247,69.776 58.941,69.920 58.722 C 70.063 58.503,70.135 58.251,70.080 58.162 C 70.025 58.073,70.072 58.000,70.185 58.000 C 70.297 58.000,70.340 57.951,70.279 57.890 C 70.219 57.830,70.239 57.696,70.325 57.593 C 70.410 57.491,70.516 57.209,70.560 56.968 C 70.604 56.727,70.718 56.383,70.814 56.203 C 70.910 56.024,70.947 55.835,70.896 55.784 C 70.745 55.634,71.010 54.986,71.179 55.091 C 71.264 55.143,71.333 54.992,71.333 54.754 C 71.333 54.517,71.442 54.063,71.574 53.746 C 71.707 53.429,71.785 53.017,71.749 52.831 C 71.714 52.644,71.753 52.534,71.837 52.586 C 72.017 52.697,72.244 51.926,72.100 51.694 C 72.046 51.606,72.114 51.492,72.251 51.439 C 72.402 51.381,72.500 51.440,72.500 51.589 C 72.500 51.723,72.579 51.833,72.677 51.833 C 72.774 51.833,72.805 51.912,72.745 52.007 C 72.686 52.103,72.760 52.368,72.909 52.595 C 73.058 52.823,73.135 53.083,73.080 53.173 C 72.941 53.398,73.157 54.026,73.335 53.916 C 73.414 53.867,73.446 54.012,73.404 54.238 C 73.363 54.465,73.432 54.745,73.556 54.862 C 73.681 54.978,73.748 55.207,73.705 55.370 C 73.663 55.533,73.699 55.667,73.786 55.667 C 73.873 55.667,73.954 55.760,73.965 55.875 C 74.028 56.524,74.601 58.510,74.697 58.414 C 74.760 58.352,74.770 58.458,74.719 58.650 C 74.663 58.865,74.707 59.000,74.832 59.000 C 74.944 59.000,74.993 59.110,74.942 59.245 C 74.890 59.380,74.940 59.586,75.054 59.704 C 75.168 59.821,75.266 60.067,75.272 60.250 C 75.297 61.015,75.342 61.181,75.498 61.085 C 75.593 61.026,75.621 61.093,75.564 61.241 C 75.509 61.384,75.523 61.631,75.595 61.792 C 75.667 61.952,75.745 62.196,75.767 62.333 C 75.879 63.015,76.416 64.598,76.572 64.706 C 76.670 64.773,76.691 64.829,76.619 64.831 C 76.547 64.832,76.562 64.972,76.653 65.141 C 76.743 65.310,76.856 65.660,76.903 65.919 C 76.950 66.178,77.085 66.451,77.202 66.526 C 77.369 66.631,77.370 66.662,77.208 66.664 C 77.094 66.666,77.000 66.739,77.000 66.828 C 77.000 66.917,77.131 66.940,77.292 66.880 C 77.556 66.781,77.560 66.800,77.333 67.084 C 77.188 67.266,77.170 67.345,77.292 67.272 C 77.406 67.203,77.500 67.226,77.500 67.323 C 77.500 67.421,77.406 67.501,77.292 67.503 C 77.143 67.504,77.150 67.547,77.316 67.652 C 77.444 67.733,77.502 67.920,77.446 68.067 C 77.390 68.213,77.414 68.333,77.501 68.333 C 77.717 68.333,78.217 70.116,78.069 70.357 C 77.988 70.487,78.021 70.506,78.169 70.415 C 78.333 70.314,78.360 70.356,78.275 70.577 C 78.212 70.741,78.252 70.985,78.362 71.118 C 78.542 71.335,78.602 71.548,78.696 72.292 C 78.710 72.406,78.841 72.506,78.986 72.513 C 79.158 72.522,79.178 72.556,79.042 72.610 C 78.751 72.728,78.781 73.157,79.088 73.275 C 79.274 73.346,79.294 73.430,79.164 73.587 C 79.036 73.740,79.042 73.820,79.185 73.867 C 79.295 73.904,79.399 74.080,79.418 74.258 C 79.475 74.805,79.704 75.572,79.875 75.790 C 79.964 75.903,79.994 76.109,79.941 76.248 C 79.887 76.387,79.907 76.500,79.984 76.500 C 80.062 76.500,80.170 76.725,80.225 77.000 L 80.325 77.500 89.496 77.500 C 99.435 77.500,98.743 77.559,98.711 76.708 C 98.707 76.594,98.770 76.500,98.852 76.500 C 98.933 76.500,99.000 76.383,99.000 76.240 C 99.000 76.086,99.078 76.029,99.192 76.099 C 99.299 76.165,99.340 76.146,99.285 76.056 C 99.230 75.967,99.290 75.587,99.420 75.212 C 99.549 74.837,99.692 74.323,99.738 74.070 C 99.784 73.817,99.906 73.558,100.008 73.495 C 100.257 73.341,100.244 73.152,99.973 72.980 C 99.802 72.872,99.820 72.838,100.045 72.836 C 100.269 72.834,100.321 72.732,100.264 72.413 C 100.222 72.182,100.248 72.031,100.323 72.077 C 100.397 72.123,100.507 71.858,100.566 71.489 C 100.625 71.120,100.737 70.857,100.814 70.905 C 100.892 70.953,100.929 70.765,100.897 70.488 C 100.861 70.185,100.904 70.024,101.002 70.085 C 101.093 70.141,101.172 70.088,101.179 69.968 C 101.186 69.848,101.229 69.600,101.275 69.417 C 101.320 69.233,101.356 68.948,101.355 68.783 C 101.354 68.617,101.450 68.445,101.568 68.399 C 101.701 68.348,101.752 68.149,101.701 67.882 C 101.649 67.609,101.710 67.380,101.867 67.266 C 102.004 67.165,102.126 67.008,102.138 66.917 C 102.277 65.818,102.396 65.352,102.517 65.427 C 102.597 65.477,102.617 65.398,102.561 65.252 C 102.505 65.105,102.598 64.830,102.771 64.632 C 102.943 64.436,102.990 64.331,102.875 64.398 C 102.760 64.465,102.667 64.440,102.667 64.343 C 102.667 64.246,102.736 64.167,102.820 64.167 C 102.904 64.167,103.026 63.923,103.089 63.625 C 103.153 63.327,103.278 62.993,103.367 62.882 C 103.456 62.772,103.480 62.603,103.421 62.507 C 103.362 62.412,103.393 62.333,103.490 62.333 C 103.587 62.333,103.667 62.216,103.667 62.073 C 103.667 61.920,103.588 61.862,103.474 61.933 C 103.354 62.007,103.327 61.978,103.402 61.856 C 103.469 61.749,103.593 61.704,103.678 61.757 C 103.811 61.839,103.842 61.735,103.831 61.249 C 103.830 61.203,103.931 60.922,104.055 60.624 C 104.178 60.327,104.248 59.990,104.209 59.875 C 104.171 59.760,104.218 59.667,104.314 59.667 C 104.411 59.667,104.442 59.542,104.383 59.389 C 104.312 59.203,104.341 59.151,104.472 59.232 C 104.598 59.310,104.673 59.217,104.686 58.968 C 104.727 58.148,104.989 57.167,105.168 57.167 C 105.246 57.167,105.395 56.755,105.499 56.253 C 105.604 55.750,105.754 55.299,105.834 55.249 C 105.914 55.200,105.951 55.011,105.916 54.830 C 105.881 54.648,105.932 54.500,106.029 54.500 C 106.126 54.500,106.166 54.350,106.118 54.167 C 106.070 53.983,106.104 53.833,106.192 53.833 C 106.281 53.833,106.307 53.758,106.250 53.667 C 106.193 53.575,106.226 53.500,106.323 53.500 C 106.421 53.500,106.500 53.288,106.500 53.028 C 106.500 52.768,106.556 52.499,106.625 52.431 C 106.694 52.362,106.753 52.256,106.756 52.194 C 106.759 52.133,106.852 51.921,106.963 51.722 C 107.121 51.437,107.120 51.345,106.957 51.288 C 106.806 51.235,106.829 51.126,107.042 50.886 C 107.202 50.705,107.333 50.432,107.333 50.279 C 107.333 50.125,107.398 50.000,107.477 50.000 C 107.556 50.000,107.582 49.801,107.536 49.559 C 107.484 49.287,107.516 49.157,107.619 49.221 C 107.718 49.282,107.768 49.155,107.741 48.912 C 107.716 48.685,107.764 48.500,107.848 48.500 C 107.932 48.500,108.000 48.313,108.000 48.083 C 108.000 47.854,108.066 47.667,108.147 47.667 C 108.228 47.667,108.390 47.310,108.508 46.875 C 108.626 46.440,108.733 46.046,108.745 46.000 C 108.758 45.954,108.827 45.673,108.898 45.375 C 108.969 45.077,109.093 44.833,109.175 44.833 C 109.256 44.833,109.279 44.718,109.225 44.577 C 109.170 44.436,109.267 44.161,109.438 43.965 C 109.610 43.769,109.656 43.664,109.542 43.731 C 109.250 43.902,109.282 43.694,109.596 43.380 C 109.741 43.235,109.824 42.983,109.781 42.819 C 109.736 42.648,109.813 42.479,109.963 42.422 C 110.151 42.350,110.172 42.272,110.040 42.140 C 109.856 41.956,110.059 41.389,110.396 41.144 C 110.477 41.085,110.494 40.959,110.435 40.863 C 110.376 40.768,110.404 40.643,110.497 40.585 C 110.590 40.527,110.667 40.266,110.667 40.004 C 110.667 39.386,110.828 38.977,111.023 39.098 C 111.110 39.151,111.144 39.004,111.100 38.763 C 111.057 38.527,111.097 38.333,111.188 38.333 C 111.279 38.333,111.307 38.258,111.250 38.167 C 111.193 38.075,111.239 38.000,111.351 38.000 C 111.464 38.000,111.508 37.953,111.450 37.895 C 111.392 37.837,111.431 37.631,111.536 37.436 C 111.641 37.242,111.749 36.933,111.777 36.750 C 111.840 36.324,111.965 35.762,112.008 35.708 C 112.027 35.685,112.055 35.610,112.071 35.542 C 112.184 35.053,112.407 34.564,112.564 34.461 C 112.699 34.372,112.697 34.338,112.557 34.336 C 112.447 34.334,112.402 34.191,112.452 34.000 C 112.500 33.817,112.599 33.667,112.671 33.667 C 112.744 33.667,112.857 33.348,112.922 32.958 C 112.988 32.569,113.111 32.205,113.198 32.150 C 113.284 32.096,113.361 31.817,113.369 31.531 C 113.377 31.245,113.440 31.046,113.510 31.089 C 113.579 31.132,113.596 31.017,113.548 30.834 C 113.500 30.650,113.537 30.500,113.629 30.500 C 113.721 30.500,113.844 30.243,113.903 29.929 C 113.962 29.615,114.102 29.321,114.214 29.275 C 114.370 29.212,114.368 29.190,114.208 29.180 C 114.094 29.173,114.000 29.087,114.000 28.990 C 114.000 28.893,114.060 28.851,114.134 28.896 C 114.208 28.942,114.351 28.759,114.453 28.490 C 114.591 28.123,114.589 27.999,114.444 27.997 C 114.323 27.996,114.336 27.940,114.480 27.849 C 115.205 27.390,114.331 27.333,106.480 27.333 C 100.415 27.333,98.509 27.380,98.601 27.528 C 98.683 27.661,98.629 27.688,98.435 27.614 C 98.250 27.542,98.189 27.568,98.263 27.687 C 98.325 27.788,98.273 27.936,98.146 28.016 C 97.974 28.125,97.970 28.162,98.129 28.164 C 98.289 28.166,98.278 28.262,98.087 28.555 C 97.947 28.769,97.881 28.992,97.940 29.051 C 97.999 29.110,97.957 29.268,97.846 29.401 C 97.736 29.534,97.639 29.871,97.631 30.149 C 97.623 30.428,97.560 30.621,97.492 30.579 C 97.332 30.479,97.137 30.984,97.259 31.182 C 97.311 31.265,97.269 31.333,97.166 31.333 C 97.063 31.333,96.996 31.465,97.016 31.625 C 97.071 32.058,96.819 32.844,96.658 32.744 C 96.581 32.697,96.547 32.810,96.582 32.996 C 96.618 33.181,96.582 33.333,96.501 33.333 C 96.421 33.333,96.393 33.538,96.438 33.788 C 96.483 34.038,96.464 34.186,96.394 34.116 C 96.265 33.987,95.816 35.351,95.814 35.879 C 95.814 36.041,95.751 36.136,95.676 36.089 C 95.505 35.983,95.339 36.572,95.336 37.292 C 95.334 37.637,95.251 37.833,95.106 37.833 C 94.963 37.833,94.896 37.987,94.925 38.250 C 94.950 38.479,94.918 38.667,94.854 38.667 C 94.790 38.667,94.722 38.798,94.703 38.958 C 94.605 39.788,94.573 39.924,94.450 40.015 C 94.377 40.069,94.307 40.294,94.295 40.515 C 94.284 40.736,94.197 41.018,94.103 41.141 C 94.009 41.265,93.908 41.526,93.878 41.721 C 93.848 41.916,93.751 42.149,93.662 42.238 C 93.429 42.471,93.462 42.708,93.708 42.565 C 93.823 42.498,93.776 42.603,93.604 42.799 C 93.432 42.995,93.292 43.344,93.292 43.575 C 93.292 43.824,93.221 43.950,93.118 43.886 C 93.010 43.820,92.984 43.885,93.050 44.056 C 93.108 44.209,93.092 44.333,93.014 44.333 C 92.935 44.333,92.820 44.672,92.758 45.087 C 92.696 45.501,92.579 45.799,92.498 45.749 C 92.417 45.699,92.383 45.824,92.422 46.028 C 92.461 46.231,92.373 46.531,92.226 46.693 C 92.080 46.855,92.004 47.103,92.058 47.244 C 92.112 47.385,92.084 47.500,91.995 47.500 C 91.906 47.500,91.848 47.556,91.865 47.625 C 91.927 47.867,91.621 48.921,91.395 49.245 C 91.270 49.426,91.167 49.718,91.167 49.893 C 91.167 50.408,90.796 51.496,90.651 51.407 C 90.577 51.361,90.547 51.476,90.582 51.662 C 90.618 51.848,90.584 52.000,90.506 52.000 C 90.427 52.000,90.270 52.525,90.155 53.167 C 90.040 53.808,89.887 54.333,89.814 54.333 C 89.741 54.333,89.632 54.597,89.572 54.919 C 89.512 55.240,89.394 55.546,89.310 55.598 C 89.227 55.649,89.172 55.630,89.189 55.554 C 89.206 55.478,89.181 55.304,89.133 55.167 C 88.808 54.222,88.606 53.548,88.586 53.333 C 88.573 53.196,88.474 52.920,88.365 52.719 C 88.111 52.252,88.114 52.116,88.375 52.269 C 88.490 52.336,88.452 52.240,88.291 52.057 C 88.131 51.873,88.048 51.675,88.107 51.616 C 88.166 51.556,88.129 51.406,88.025 51.280 C 87.921 51.155,87.886 51.003,87.946 50.943 C 88.006 50.883,87.970 50.833,87.866 50.833 C 87.758 50.833,87.723 50.714,87.784 50.556 C 87.847 50.391,87.822 50.320,87.723 50.382 C 87.630 50.440,87.568 50.327,87.583 50.123 C 87.598 49.925,87.511 49.572,87.389 49.339 C 87.268 49.107,87.168 48.781,87.168 48.615 C 87.167 48.418,87.094 48.357,86.958 48.439 C 86.817 48.524,86.823 48.474,86.979 48.282 C 87.121 48.107,87.139 48.000,87.026 48.000 C 86.925 48.000,86.891 47.877,86.950 47.723 C 87.027 47.521,86.996 47.483,86.836 47.582 C 86.686 47.674,86.655 47.654,86.739 47.518 C 86.806 47.409,86.771 47.210,86.661 47.076 C 86.550 46.943,86.509 46.833,86.569 46.833 C 86.629 46.833,86.585 46.665,86.470 46.458 C 86.355 46.252,86.251 45.933,86.239 45.750 C 86.183 44.899,86.158 44.819,85.982 44.928 C 85.858 45.004,85.834 44.926,85.910 44.688 C 85.982 44.462,85.951 44.333,85.824 44.333 C 85.683 44.333,85.692 44.252,85.855 44.051 C 85.980 43.896,85.999 43.820,85.895 43.882 C 85.721 43.986,85.466 43.331,85.421 42.666 C 85.412 42.529,85.333 42.304,85.246 42.166 C 85.159 42.029,85.081 41.879,85.073 41.833 C 84.895 40.876,84.724 40.317,84.474 39.870 C 84.305 39.569,84.167 39.147,84.167 38.933 C 84.167 38.718,84.048 38.214,83.902 37.813 C 83.757 37.412,83.623 37.008,83.606 36.917 C 83.588 36.825,83.515 36.656,83.444 36.542 C 83.372 36.427,83.352 36.272,83.398 36.196 C 83.445 36.121,83.367 35.840,83.226 35.571 C 83.085 35.303,82.940 34.933,82.905 34.750 C 82.842 34.423,82.293 32.403,81.998 31.417 C 81.679 30.347,81.414 29.667,81.316 29.667 C 81.259 29.667,81.249 29.477,81.294 29.244 C 81.339 29.008,81.269 28.695,81.135 28.536 C 81.003 28.379,80.900 28.100,80.906 27.917 C 80.912 27.733,80.842 27.527,80.750 27.459 C 80.415 27.210,64.839 27.321,64.936 27.573 C 64.984 27.697,64.946 27.847,64.852 27.905 C 64.758 27.963,64.723 28.121,64.775 28.255 C 64.827 28.392,64.775 28.500,64.657 28.500 C 64.540 28.500,64.486 28.542,64.538 28.593 C 64.589 28.644,64.484 29.076,64.305 29.551 C 63.981 30.410,63.543 31.869,63.370 32.664 C 63.320 32.891,63.179 33.178,63.056 33.301 C 62.934 33.423,62.833 33.706,62.833 33.929 C 62.833 34.520,62.823 34.562,62.618 34.808 C 62.515 34.932,62.414 35.120,62.392 35.225 C 62.370 35.330,62.303 35.604,62.242 35.833 C 62.182 36.063,62.124 36.381,62.114 36.542 C 62.103 36.702,62.032 36.833,61.954 36.833 C 61.877 36.833,61.856 36.902,61.908 36.987 C 61.960 37.071,61.903 37.240,61.780 37.363 C 61.657 37.486,61.588 37.679,61.625 37.793 C 61.663 37.907,61.594 38.001,61.472 38.003 C 61.306 38.004,61.313 38.046,61.500 38.167 C 61.683 38.285,61.691 38.329,61.531 38.331 C 61.411 38.332,61.329 38.465,61.348 38.625 C 61.368 38.785,61.336 39.029,61.278 39.167 C 61.219 39.304,61.147 39.583,61.117 39.787 C 61.088 39.991,61.012 40.210,60.949 40.273 C 60.885 40.337,60.833 40.518,60.833 40.677 C 60.833 40.835,60.721 41.008,60.583 41.060 C 60.446 41.113,60.333 41.238,60.333 41.338 C 60.333 41.438,60.427 41.465,60.542 41.398 C 60.656 41.331,60.607 41.439,60.433 41.638 C 60.258 41.837,60.167 42.000,60.230 42.000 C 60.293 42.000,60.270 42.140,60.179 42.310 C 60.088 42.481,59.968 42.873,59.914 43.181 C 59.860 43.489,59.753 43.781,59.677 43.829 C 59.602 43.877,59.550 44.104,59.562 44.333 C 59.575 44.563,59.480 44.875,59.350 45.028 C 59.221 45.182,59.089 45.550,59.056 45.847 C 59.024 46.143,58.916 46.483,58.818 46.602 C 58.719 46.721,58.686 46.897,58.745 46.993 C 58.805 47.088,58.774 47.167,58.677 47.167 C 58.579 47.167,58.500 47.317,58.500 47.500 C 58.500 47.683,58.432 47.833,58.348 47.833 C 58.265 47.833,58.217 47.965,58.243 48.125 C 58.269 48.285,58.228 48.496,58.152 48.593 C 58.075 48.690,57.902 49.177,57.767 49.676 C 57.525 50.572,56.746 53.015,56.549 53.500 C 56.493 53.637,56.459 53.806,56.474 53.875 C 56.488 53.944,56.444 54.000,56.375 54.000 C 56.306 54.000,56.240 54.169,56.229 54.375 C 56.185 55.143,55.852 56.047,55.819 55.486 C 55.775 54.734,55.588 54.037,55.252 53.377 C 55.101 53.080,55.023 52.765,55.078 52.676 C 55.133 52.586,55.106 52.379,55.018 52.215 C 54.762 51.737,54.328 50.500,54.417 50.500 C 54.498 50.500,54.087 49.301,53.846 48.833 C 53.775 48.696,53.737 48.452,53.761 48.292 C 53.784 48.131,53.738 48.000,53.657 48.000 C 53.576 48.000,53.558 47.875,53.617 47.723 C 53.688 47.537,53.659 47.485,53.530 47.565 C 53.404 47.643,53.372 47.594,53.436 47.425 C 53.491 47.283,53.469 47.167,53.387 47.167 C 53.249 47.167,53.171 46.865,53.117 46.125 C 53.105 45.965,53.032 45.833,52.954 45.833 C 52.877 45.833,52.857 45.763,52.910 45.677 C 52.964 45.591,52.883 45.451,52.732 45.367 C 52.547 45.263,52.518 45.175,52.643 45.098 C 52.774 45.017,52.742 44.849,52.540 44.539 C 52.380 44.296,52.344 44.154,52.458 44.225 C 52.575 44.296,52.667 44.275,52.667 44.177 C 52.667 44.079,52.592 44.000,52.500 44.000 C 52.408 44.000,52.333 43.813,52.333 43.583 C 52.333 43.354,52.261 43.167,52.172 43.167 C 52.083 43.167,52.058 43.042,52.117 42.889 C 52.194 42.688,52.163 42.649,52.003 42.748 C 51.853 42.841,51.822 42.821,51.905 42.685 C 51.973 42.575,51.965 42.395,51.887 42.284 C 51.809 42.174,51.747 41.896,51.748 41.667 C 51.749 41.438,51.656 41.151,51.542 41.030 C 51.427 40.909,51.333 40.674,51.333 40.508 C 51.333 40.343,51.216 39.927,51.073 39.584 C 50.930 39.242,50.852 38.857,50.901 38.731 C 50.950 38.604,50.917 38.500,50.828 38.500 C 50.739 38.500,50.667 38.383,50.667 38.240 C 50.667 38.097,50.602 38.020,50.523 38.069 C 50.445 38.118,50.401 37.963,50.428 37.726 C 50.481 37.235,50.353 36.801,50.185 36.905 C 50.123 36.944,50.081 36.722,50.091 36.412 C 50.101 36.102,50.047 35.887,49.971 35.934 C 49.895 35.981,49.833 35.870,49.833 35.687 C 49.833 35.505,49.746 35.144,49.640 34.886 C 49.534 34.628,49.460 34.333,49.475 34.231 C 49.491 34.128,49.390 33.950,49.250 33.833 C 49.043 33.661,49.035 33.575,49.206 33.363 C 49.372 33.158,49.372 33.129,49.208 33.228 C 49.025 33.338,48.907 33.003,49.042 32.757 C 49.065 32.715,48.933 32.560,48.750 32.411 C 48.567 32.263,48.510 32.189,48.625 32.247 C 48.740 32.306,48.833 32.274,48.833 32.177 C 48.833 32.079,48.763 32.000,48.676 32.000 C 48.590 32.000,48.548 31.852,48.583 31.670 C 48.618 31.489,48.582 31.301,48.505 31.253 C 48.427 31.205,48.383 30.982,48.408 30.758 C 48.432 30.534,48.368 30.318,48.264 30.278 C 48.161 30.239,48.059 29.995,48.037 29.737 C 48.016 29.480,47.905 29.209,47.791 29.137 C 47.677 29.064,47.649 29.004,47.729 29.003 C 47.809 29.001,47.795 28.904,47.698 28.787 C 47.601 28.670,47.544 28.370,47.571 28.119 C 47.614 27.726,47.586 27.692,47.362 27.873 C 47.150 28.045,47.127 28.042,47.239 27.856 C 47.524 27.383,46.701 27.335,38.274 27.340 L 29.631 27.345 29.748 27.714 M167.833 53.077 L 167.833 78.167 176.333 78.167 L 184.833 78.167 184.872 71.958 L 184.911 65.750 185.000 72.000 L 185.089 78.250 185.128 72.042 L 185.167 65.833 189.375 65.810 C 191.690 65.798,193.944 65.798,194.385 65.811 C 194.826 65.824,195.146 65.768,195.095 65.686 C 195.045 65.604,195.411 65.565,195.919 65.599 C 196.422 65.633,196.833 65.595,196.833 65.516 C 196.833 65.437,197.177 65.384,197.597 65.398 C 198.017 65.412,198.393 65.371,198.432 65.308 C 198.472 65.244,198.765 65.216,199.085 65.246 C 199.404 65.276,199.627 65.237,199.580 65.161 C 199.499 65.030,200.833 64.730,201.292 64.776 C 201.406 64.787,201.500 64.730,201.500 64.648 C 201.500 64.567,201.556 64.512,201.625 64.526 C 201.694 64.540,202.050 64.413,202.417 64.245 C 202.783 64.076,203.147 63.955,203.226 63.975 C 203.304 63.995,203.464 63.933,203.580 63.836 C 203.696 63.740,203.913 63.708,204.062 63.765 C 204.211 63.822,204.333 63.791,204.333 63.697 C 204.333 63.602,204.630 63.393,204.992 63.233 C 205.355 63.074,205.613 62.881,205.566 62.805 C 205.519 62.729,205.672 62.667,205.907 62.667 C 206.141 62.667,206.333 62.592,206.333 62.500 C 206.333 62.408,206.450 62.333,206.593 62.333 C 206.736 62.333,206.807 62.259,206.751 62.169 C 206.693 62.074,206.760 62.046,206.908 62.103 C 207.051 62.158,207.167 62.115,207.167 62.008 C 207.167 61.901,207.242 61.860,207.333 61.917 C 207.425 61.973,207.500 61.898,207.500 61.750 C 207.500 61.602,207.575 61.527,207.667 61.583 C 207.758 61.640,207.833 61.612,207.833 61.521 C 207.833 61.430,207.984 61.308,208.169 61.249 C 208.357 61.190,208.455 61.062,208.392 60.960 C 208.318 60.840,208.380 60.816,208.571 60.889 C 208.780 60.969,208.889 60.905,208.952 60.667 C 209.003 60.470,209.179 60.333,209.381 60.333 C 209.568 60.333,209.675 60.286,209.617 60.228 C 209.559 60.170,209.828 59.814,210.214 59.436 C 211.180 58.492,211.969 57.449,212.277 56.707 C 212.419 56.364,212.642 56.022,212.771 55.948 C 212.901 55.874,212.964 55.742,212.910 55.656 C 212.857 55.570,212.906 55.500,213.018 55.500 C 213.130 55.500,213.173 55.451,213.114 55.391 C 213.054 55.332,213.135 55.176,213.294 55.046 C 213.453 54.915,213.480 54.862,213.353 54.928 C 213.200 55.007,213.151 54.970,213.208 54.815 C 213.254 54.688,213.389 54.606,213.507 54.634 C 213.672 54.673,213.667 54.616,213.487 54.394 C 213.335 54.208,213.325 54.148,213.458 54.228 C 213.573 54.297,213.676 54.274,213.688 54.177 C 213.720 53.898,213.818 53.605,214.181 52.698 C 214.274 52.468,214.274 52.350,214.183 52.406 C 214.100 52.458,214.070 52.350,214.118 52.167 C 214.166 51.983,214.276 51.833,214.363 51.833 C 214.449 51.833,214.473 51.758,214.417 51.667 C 214.360 51.575,214.377 51.500,214.454 51.500 C 214.532 51.500,214.609 51.369,214.625 51.208 C 214.718 50.289,214.789 49.330,214.810 48.698 C 214.823 48.304,214.893 48.017,214.965 48.062 C 215.038 48.107,215.108 48.000,215.121 47.825 C 215.135 47.650,215.094 47.524,215.031 47.545 C 214.908 47.586,214.833 47.440,214.833 47.157 C 214.833 47.060,214.907 47.026,214.998 47.082 C 215.092 47.140,215.121 47.074,215.064 46.926 C 215.010 46.785,214.885 46.718,214.787 46.779 C 214.689 46.839,214.735 46.709,214.888 46.491 C 215.218 46.020,215.250 45.763,214.958 45.939 C 214.794 46.037,214.795 46.009,214.960 45.804 C 215.130 45.594,215.129 45.510,214.954 45.365 C 214.822 45.254,214.755 44.895,214.782 44.434 C 214.806 44.020,214.752 43.636,214.660 43.579 C 214.569 43.523,214.538 43.407,214.590 43.322 C 214.643 43.236,214.592 43.167,214.477 43.167 C 214.327 43.167,214.318 43.115,214.446 42.987 C 214.649 42.784,214.502 41.944,214.089 40.956 C 213.946 40.614,213.869 40.333,213.919 40.333 C 213.968 40.333,213.897 40.118,213.761 39.854 C 213.625 39.591,213.567 39.317,213.632 39.244 C 213.697 39.172,213.661 39.164,213.553 39.226 C 213.311 39.365,213.177 39.165,213.130 38.598 C 213.110 38.361,213.005 38.167,212.896 38.167 C 212.787 38.167,212.733 38.032,212.776 37.868 C 212.825 37.681,212.632 37.333,212.259 36.938 C 211.932 36.590,211.707 36.237,211.759 36.152 C 211.812 36.067,211.730 35.950,211.577 35.891 C 211.251 35.766,210.600 35.119,210.545 34.866 C 210.493 34.622,209.758 33.904,209.433 33.779 C 209.287 33.723,209.167 33.562,209.167 33.422 C 209.167 33.282,209.110 33.183,209.042 33.204 C 208.835 33.265,207.996 32.641,208.087 32.493 C 208.134 32.418,208.096 32.309,208.003 32.252 C 207.910 32.194,207.833 32.226,207.833 32.323 C 207.833 32.421,207.746 32.500,207.639 32.500 C 207.532 32.500,207.491 32.454,207.548 32.397 C 207.716 32.229,206.376 31.202,205.832 31.083 C 205.556 31.022,205.368 30.912,205.414 30.837 C 205.460 30.763,205.382 30.657,205.240 30.603 C 205.093 30.546,205.026 30.574,205.085 30.669 C 205.273 30.974,204.833 30.836,204.545 30.500 C 204.388 30.317,204.206 30.167,204.140 30.167 C 204.075 30.167,203.811 30.077,203.553 29.967 C 203.294 29.858,203.008 29.757,202.917 29.744 C 202.406 29.669,201.833 29.445,201.833 29.319 C 201.833 29.240,201.642 29.248,201.407 29.337 C 201.125 29.444,201.016 29.443,201.084 29.333 C 201.140 29.241,201.027 29.167,200.833 29.167 C 200.639 29.167,200.524 29.097,200.576 29.011 C 200.670 28.860,200.504 28.834,199.058 28.777 C 198.677 28.762,198.395 28.702,198.431 28.643 C 198.511 28.514,197.553 28.343,196.417 28.284 C 195.958 28.260,195.478 28.175,195.349 28.095 C 195.175 27.986,195.151 28.008,195.256 28.183 C 195.368 28.368,195.347 28.377,195.157 28.227 C 194.877 28.006,193.963 27.972,194.096 28.188 C 194.146 28.268,194.111 28.333,194.020 28.333 C 193.928 28.333,193.811 28.265,193.759 28.181 C 193.703 28.091,188.359 28.020,180.749 28.008 L 167.833 27.987 167.833 53.077 M219.578 28.207 C 219.534 28.322,219.517 39.592,219.541 53.250 L 219.583 78.083 239.417 78.123 L 259.250 78.163 259.159 71.540 C 259.109 67.897,259.053 64.898,259.034 64.875 C 259.015 64.852,253.975 64.833,247.834 64.833 L 236.668 64.833 236.626 46.458 L 236.583 28.083 228.120 28.040 C 221.439 28.006,219.641 28.041,219.578 28.207 M261.500 41.843 C 261.500 49.854,261.562 55.648,261.648 55.595 C 261.813 55.493,261.783 56.386,261.603 56.944 C 261.539 57.143,261.553 57.346,261.633 57.396 C 261.714 57.446,261.797 57.991,261.817 58.606 C 261.837 59.221,261.913 59.843,261.987 59.988 C 262.061 60.132,262.087 60.346,262.045 60.464 C 262.003 60.582,262.040 60.769,262.128 60.881 C 262.215 60.992,262.273 61.327,262.256 61.625 C 262.239 61.923,262.287 62.167,262.363 62.167 C 262.438 62.167,262.500 62.246,262.500 62.343 C 262.500 62.440,262.426 62.474,262.335 62.418 C 262.116 62.282,262.335 62.852,262.609 63.130 C 262.724 63.247,262.777 63.453,262.725 63.588 C 262.673 63.723,262.712 63.833,262.810 63.833 C 262.909 63.833,262.946 63.946,262.894 64.083 C 262.841 64.221,262.878 64.333,262.977 64.333 C 263.076 64.333,263.116 64.438,263.067 64.566 C 263.018 64.695,263.061 64.851,263.163 64.915 C 263.299 64.999,263.297 65.093,263.154 65.265 C 263.043 65.399,263.030 65.500,263.124 65.500 C 263.214 65.500,263.421 65.856,263.584 66.292 C 263.747 66.727,263.951 67.174,264.038 67.284 C 264.124 67.395,264.140 67.575,264.072 67.685 C 263.994 67.811,264.019 67.841,264.141 67.766 C 264.264 67.690,264.333 67.778,264.333 68.008 C 264.333 68.266,264.407 68.341,264.592 68.270 C 264.734 68.215,264.809 68.238,264.758 68.320 C 264.615 68.551,264.846 69.012,265.043 68.890 C 265.149 68.824,265.168 68.863,265.092 68.987 C 265.017 69.108,265.126 69.368,265.358 69.623 C 265.573 69.860,265.637 69.995,265.500 69.924 C 265.362 69.853,265.456 69.980,265.708 70.208 C 265.960 70.436,266.167 70.707,266.167 70.811 C 266.167 70.915,266.260 71.001,266.375 71.003 C 266.535 71.005,266.534 71.037,266.367 71.142 C 266.197 71.250,266.213 71.330,266.441 71.515 C 266.693 71.720,266.712 71.718,266.583 71.500 C 266.457 71.286,266.476 71.282,266.712 71.473 C 266.863 71.596,267.034 71.845,267.092 72.027 C 267.154 72.221,267.293 72.321,267.430 72.268 C 267.558 72.219,267.655 72.232,267.645 72.298 C 267.593 72.645,267.695 72.833,267.934 72.833 C 268.113 72.833,268.168 72.923,268.099 73.103 C 268.019 73.310,268.073 73.353,268.325 73.287 C 268.507 73.240,268.646 73.249,268.635 73.309 C 268.595 73.516,268.869 73.997,268.986 73.925 C 269.051 73.885,269.394 74.111,269.749 74.426 C 270.104 74.742,270.484 75.000,270.594 75.000 C 270.705 75.000,270.922 75.194,271.077 75.431 C 271.233 75.668,271.403 75.819,271.457 75.766 C 271.510 75.712,271.659 75.820,271.788 76.004 C 271.917 76.188,272.083 76.302,272.157 76.256 C 272.346 76.139,273.852 76.926,273.710 77.068 C 273.646 77.132,273.722 77.135,273.880 77.074 C 274.038 77.014,274.167 77.038,274.167 77.128 C 274.167 77.273,275.389 77.587,275.708 77.524 C 275.777 77.511,275.833 77.559,275.833 77.630 C 275.833 77.702,276.190 77.857,276.625 77.975 C 277.060 78.092,277.538 78.254,277.687 78.333 C 277.836 78.412,278.099 78.454,278.271 78.426 C 278.443 78.398,278.718 78.493,278.882 78.636 C 279.158 78.878,279.172 78.873,279.062 78.574 C 278.946 78.257,278.951 78.256,279.299 78.562 C 279.494 78.733,279.770 78.830,279.910 78.775 C 280.051 78.721,280.167 78.741,280.167 78.820 C 280.167 78.898,280.388 78.995,280.658 79.034 C 280.928 79.074,281.111 79.045,281.065 78.970 C 281.018 78.895,281.060 78.833,281.157 78.833 C 281.254 78.833,281.333 78.898,281.333 78.977 C 281.333 79.056,281.690 79.106,282.125 79.090 C 282.560 79.073,283.245 79.129,283.646 79.214 C 284.209 79.334,284.407 79.318,284.518 79.143 C 284.597 79.018,284.663 78.995,284.664 79.090 C 284.668 79.346,287.336 79.371,287.647 79.119 C 287.846 78.958,287.871 78.961,287.768 79.132 C 287.667 79.300,287.806 79.324,288.415 79.241 C 288.842 79.183,289.617 79.112,290.137 79.084 C 290.658 79.055,291.083 79.016,291.083 78.998 C 291.083 78.961,292.156 78.838,292.875 78.793 C 293.127 78.777,293.333 78.705,293.333 78.632 C 293.333 78.559,293.525 78.500,293.760 78.500 C 293.994 78.500,294.148 78.437,294.100 78.361 C 294.053 78.284,294.255 78.237,294.549 78.257 C 294.843 78.276,295.174 78.220,295.284 78.132 C 295.395 78.044,295.558 78.016,295.646 78.071 C 295.734 78.125,295.906 78.075,296.028 77.960 C 296.150 77.844,296.400 77.724,296.583 77.692 C 296.767 77.661,296.992 77.574,297.083 77.500 C 297.175 77.426,297.438 77.340,297.667 77.308 C 297.896 77.276,298.226 77.121,298.400 76.964 C 298.575 76.807,298.781 76.718,298.860 76.766 C 298.938 76.815,299.045 76.743,299.097 76.607 C 299.150 76.471,299.303 76.317,299.438 76.265 C 299.589 76.207,299.640 76.241,299.572 76.352 C 299.495 76.477,299.570 76.474,299.813 76.344 C 300.008 76.240,300.168 76.064,300.169 75.952 C 300.171 75.825,300.232 75.843,300.333 76.000 C 300.472 76.215,300.495 76.209,300.497 75.964 C 300.499 75.778,300.588 75.711,300.750 75.773 C 300.908 75.834,301.000 75.771,301.000 75.601 C 301.000 75.454,301.112 75.333,301.250 75.333 C 301.387 75.333,301.500 75.258,301.500 75.167 C 301.500 75.075,301.607 75.000,301.737 75.000 C 301.868 75.000,302.224 74.769,302.529 74.486 C 303.581 73.510,303.730 73.394,303.583 73.667 C 303.509 73.804,303.758 73.588,304.136 73.185 C 304.515 72.783,304.783 72.388,304.733 72.306 C 304.683 72.225,304.704 72.179,304.779 72.204 C 304.855 72.229,305.085 72.081,305.292 71.875 C 305.505 71.662,305.577 71.499,305.458 71.497 C 305.318 71.496,305.330 71.445,305.496 71.340 C 305.658 71.237,305.784 71.252,305.868 71.384 C 305.959 71.527,306.001 71.513,306.017 71.333 C 306.029 71.196,306.056 71.008,306.077 70.917 C 306.098 70.825,306.127 70.644,306.141 70.514 C 306.155 70.384,306.216 70.328,306.277 70.388 C 306.426 70.537,307.033 69.521,306.912 69.325 C 306.859 69.240,306.935 69.216,307.081 69.272 C 307.228 69.328,307.335 69.309,307.320 69.229 C 307.257 68.883,307.348 68.670,307.542 68.708 C 307.663 68.733,307.742 68.594,307.730 68.379 C 307.720 68.175,307.776 68.048,307.855 68.097 C 307.935 68.146,308.000 68.046,308.000 67.875 C 308.000 67.703,308.153 67.399,308.340 67.198 C 308.527 66.997,308.600 66.833,308.503 66.833 C 308.395 66.833,308.417 66.687,308.560 66.458 C 308.688 66.252,308.846 65.858,308.910 65.583 C 308.974 65.308,309.142 64.955,309.283 64.798 C 309.425 64.640,309.551 64.179,309.562 63.772 C 309.574 63.366,309.630 63.061,309.687 63.096 C 309.783 63.155,309.986 62.079,310.042 61.208 C 310.056 61.002,310.112 60.833,310.168 60.833 C 310.224 60.833,310.254 60.534,310.235 60.168 C 310.217 59.801,310.254 59.534,310.318 59.574 C 310.382 59.613,310.431 59.044,310.426 58.309 C 310.421 57.574,310.442 56.947,310.473 56.916 C 310.593 56.796,310.479 28.245,310.358 28.125 C 310.288 28.054,306.522 28.016,301.990 28.040 L 293.750 28.083 293.711 41.646 C 293.690 49.105,293.724 55.291,293.786 55.392 C 293.938 55.637,293.931 56.207,293.773 56.462 C 293.698 56.584,293.735 56.668,293.865 56.669 C 294.008 56.671,294.022 56.714,293.906 56.794 C 293.809 56.862,293.721 57.067,293.710 57.250 C 293.658 58.140,293.485 59.082,293.346 59.220 C 293.262 59.305,293.233 59.478,293.282 59.606 C 293.331 59.733,293.278 59.949,293.165 60.085 C 293.011 60.271,293.006 60.390,293.148 60.561 C 293.292 60.735,293.277 60.839,293.085 60.998 C 292.947 61.113,292.833 61.303,292.833 61.419 C 292.833 61.536,292.727 61.672,292.596 61.722 C 292.443 61.781,292.393 61.949,292.454 62.198 C 292.506 62.410,292.488 62.527,292.414 62.459 C 292.339 62.390,292.122 62.593,291.931 62.910 C 291.740 63.227,291.518 63.483,291.437 63.479 C 291.357 63.476,291.151 63.685,290.980 63.945 C 290.799 64.220,290.667 64.312,290.665 64.167 C 290.662 63.944,290.644 63.944,290.500 64.167 C 290.411 64.304,290.337 64.344,290.336 64.255 C 290.334 64.165,290.216 64.260,290.072 64.466 C 289.928 64.671,289.741 64.796,289.655 64.743 C 289.570 64.690,289.500 64.720,289.500 64.809 C 289.500 64.898,289.369 64.949,289.208 64.923 C 289.048 64.896,288.788 64.988,288.630 65.125 C 288.458 65.276,288.041 65.370,287.588 65.361 C 287.101 65.351,286.832 65.417,286.831 65.548 C 286.829 65.674,286.782 65.688,286.706 65.583 C 286.518 65.328,285.462 65.293,285.307 65.537 C 285.201 65.704,285.171 65.705,285.169 65.542 C 285.168 65.427,284.975 65.333,284.740 65.333 C 284.472 65.333,284.356 65.265,284.427 65.150 C 284.507 65.021,284.435 65.023,284.187 65.156 C 283.889 65.315,283.831 65.298,283.820 65.048 C 283.813 64.884,283.772 64.835,283.729 64.940 C 283.636 65.168,282.333 64.589,282.333 64.320 C 282.333 64.225,282.258 64.193,282.167 64.250 C 282.075 64.307,282.000 64.266,282.000 64.159 C 282.000 64.052,281.888 64.007,281.752 64.060 C 281.616 64.112,281.519 64.101,281.537 64.036 C 281.592 63.840,281.101 63.167,280.903 63.167 C 280.803 63.167,280.635 62.979,280.530 62.750 C 280.426 62.521,280.259 62.333,280.160 62.333 C 280.061 62.333,280.027 62.258,280.083 62.167 C 280.140 62.075,280.107 62.000,280.010 62.000 C 279.913 62.000,279.833 61.846,279.833 61.659 C 279.833 61.471,279.688 61.016,279.510 60.647 C 279.332 60.279,279.224 59.877,279.271 59.755 C 279.318 59.633,279.276 59.484,279.178 59.424 C 279.080 59.363,279.000 59.093,279.000 58.823 C 279.000 58.544,278.911 58.332,278.792 58.331 C 278.658 58.329,278.645 58.284,278.755 58.206 C 278.849 58.138,278.908 57.896,278.886 57.667 C 278.863 57.438,278.844 50.669,278.843 42.625 L 278.842 28.000 270.171 28.000 L 261.500 28.000 261.500 41.843 M192.708 41.401 C 192.656 41.486,192.791 41.506,193.016 41.448 C 193.410 41.344,194.333 41.636,194.333 41.864 C 194.333 41.928,194.477 41.953,194.653 41.919 C 194.830 41.885,195.017 41.969,195.069 42.106 C 195.121 42.243,195.228 42.315,195.305 42.268 C 195.484 42.157,196.198 42.648,196.096 42.813 C 196.054 42.880,196.203 43.073,196.427 43.241 C 196.650 43.409,196.833 43.649,196.833 43.773 C 196.833 43.898,196.913 44.000,197.010 44.000 C 197.107 44.000,197.140 44.075,197.083 44.167 C 197.027 44.258,197.072 44.333,197.185 44.333 C 197.297 44.333,197.342 44.380,197.286 44.437 C 197.229 44.493,197.302 44.659,197.447 44.804 C 197.643 45.000,197.658 45.086,197.503 45.138 C 197.357 45.187,197.350 45.241,197.481 45.321 C 197.582 45.384,197.686 45.919,197.712 46.510 C 197.737 47.100,197.824 47.689,197.905 47.817 C 198.002 47.973,197.991 48.014,197.870 47.939 C 197.754 47.868,197.647 48.099,197.575 48.580 C 197.513 48.994,197.400 49.333,197.324 49.333 C 197.248 49.333,197.215 49.485,197.251 49.671 C 197.287 49.857,197.245 49.965,197.158 49.911 C 197.071 49.857,196.926 50.007,196.835 50.244 C 196.745 50.482,196.515 50.734,196.323 50.804 C 196.132 50.875,196.000 50.996,196.029 51.073 C 196.059 51.151,195.802 51.392,195.458 51.609 C 195.115 51.827,194.833 51.923,194.833 51.824 C 194.833 51.724,194.715 51.761,194.571 51.905 C 194.327 52.149,194.092 52.234,193.792 52.186 C 193.723 52.176,193.667 52.226,193.667 52.299 C 193.667 52.437,192.869 52.553,191.792 52.572 C 191.448 52.578,191.167 52.621,191.167 52.667 C 191.166 52.712,189.745 52.750,188.008 52.750 L 184.849 52.750 184.838 47.073 C 184.831 43.951,184.859 41.364,184.899 41.323 C 185.047 41.175,192.800 41.252,192.708 41.401 M185.075 46.917 C 185.075 50.033,185.097 51.285,185.125 49.698 C 185.152 48.111,185.152 45.561,185.125 44.031 C 185.097 42.501,185.075 43.800,185.075 46.917 " stroke="none" fill="#0c6ca9" fill-rule="evenodd"></path><path id="path3" d="M236.625 35.792 C 236.648 40.077,236.687 45.533,236.712 47.917 C 236.736 50.300,236.773 46.794,236.795 40.125 C 236.816 33.456,236.777 28.000,236.708 28.000 C 236.640 28.000,236.602 31.506,236.625 35.792 M310.580 41.750 C 310.580 49.358,310.600 52.495,310.625 48.721 C 310.650 44.946,310.650 38.721,310.625 34.887 C 310.600 31.054,310.580 34.142,310.580 41.750 M84.167 39.046 C 84.167 39.285,84.244 39.528,84.339 39.587 C 84.448 39.654,84.481 39.528,84.430 39.243 C 84.318 38.629,84.167 38.515,84.167 39.046 M94.083 40.833 C 94.140 40.925,94.107 41.000,94.010 41.000 C 93.913 41.000,93.833 41.084,93.833 41.187 C 93.833 41.316,93.911 41.310,94.083 41.167 C 94.374 40.926,94.412 40.667,94.157 40.667 C 94.060 40.667,94.027 40.742,94.083 40.833 M349.203 41.925 C 349.258 41.980,349.403 42.040,349.526 42.059 C 349.649 42.077,349.863 42.158,350.000 42.237 C 350.202 42.355,350.211 42.340,350.044 42.160 C 349.931 42.038,349.673 41.913,349.471 41.882 C 349.269 41.851,349.148 41.871,349.203 41.925 M358.851 42.847 C 358.631 42.935,358.493 43.049,358.544 43.100 C 358.595 43.151,358.850 43.077,359.110 42.936 C 359.634 42.653,359.474 42.598,358.851 42.847 M349.706 58.135 C 349.680 62.228,349.610 64.318,349.500 64.250 C 349.408 64.193,349.333 64.226,349.333 64.323 C 349.333 64.570,349.660 64.545,349.757 64.291 C 349.801 64.176,349.817 61.345,349.792 57.999 L 349.746 51.917 349.706 58.135 M236.742 58.583 C 236.742 62.067,236.764 63.515,236.791 61.803 C 236.818 60.090,236.819 57.240,236.791 55.469 C 236.764 53.699,236.742 55.100,236.742 58.583 M262.000 61.129 C 262.000 61.322,262.062 61.519,262.138 61.566 C 262.302 61.667,262.281 61.058,262.115 60.892 C 262.052 60.829,262.000 60.936,262.000 61.129 M317.275 65.164 C 317.603 65.720,317.697 65.736,317.560 65.213 C 317.509 65.017,317.358 64.815,317.225 64.764 C 317.034 64.690,317.044 64.774,317.275 65.164 M259.135 64.958 C 259.107 65.027,259.123 68.008,259.171 71.583 L 259.259 78.083 259.289 71.458 C 259.316 65.430,259.296 64.568,259.135 64.958 M318.349 66.958 C 318.472 67.119,318.590 67.277,318.611 67.311 C 318.632 67.344,318.637 67.213,318.622 67.019 C 318.608 66.825,318.490 66.667,318.361 66.667 C 318.163 66.667,318.161 66.713,318.349 66.958 M269.292 74.307 C 269.452 74.476,269.644 74.581,269.718 74.541 C 269.793 74.501,269.718 74.365,269.552 74.239 C 269.114 73.907,268.952 73.949,269.292 74.307 M270.333 75.063 C 270.333 75.098,270.446 75.219,270.583 75.333 C 270.788 75.503,270.833 75.492,270.833 75.270 C 270.833 75.122,270.721 75.000,270.583 75.000 C 270.446 75.000,270.333 75.028,270.333 75.063 M341.295 79.287 C 341.594 79.325,342.044 79.324,342.295 79.286 C 342.545 79.248,342.300 79.217,341.750 79.218 C 341.200 79.219,340.995 79.250,341.295 79.287 " stroke="none" fill="#0c74a4" fill-rule="evenodd"></path><path id="path4" d="" stroke="none" fill="#1cc4e0" fill-rule="evenodd"></path></g></svg>