<svg id="Capa_1" enable-background="new 0 0 512 512" height="512" viewBox="0 0 512 512" width="512" xmlns="http://www.w3.org/2000/svg"><g><g><path d="m176.624 400.795c-33.915-15.161-55.83-48.606-55.83-85.206v-183.526c27.135-13.231 49.241-35.138 62.63-62.063h145.152c13.389 26.925 35.495 48.832 62.63 62.063v183.526c0 36.6-21.915 70.045-55.83 85.206l-79.376 35.483z" fill="#e2c4ff"/></g><g fill="#020288"><path d="m451.207 75.863c-36.776 0-66.696-29.546-66.696-65.863 0-5.523-4.477-10-10-10h-237.022c-5.523 0-10 4.477-10 10 0 36.317-29.92 65.863-66.696 65.863-5.523 0-10 4.477-10 10v229.727c0 64.17 38.178 122.7 97.263 149.112l103.862 46.428c1.298.581 2.69.871 4.081.871s2.783-.29 4.081-.871l103.862-46.428c59.085-26.412 97.263-84.942 97.263-149.112v-229.727c.002-5.523-4.476-10-9.998-10zm-10 239.726c0 56.293-33.531 107.656-85.425 130.853l-99.782 44.604-99.781-44.604c-51.894-23.197-85.425-74.56-85.425-130.853v-220.294c39.798-4.547 71.477-35.892 76.111-75.295h218.19c4.634 39.403 36.313 70.748 76.111 75.295v220.294z"/><path d="m314.258 214.096h-7.149v-15.976c0-28.181-22.927-51.108-51.108-51.108s-51.108 22.927-51.108 51.108v15.976h-7.149c-5.523 0-10 4.477-10 10v106.638c0 5.523 4.477 10 10 10h116.516c5.523 0 10-4.477 10-10v-106.638c-.002-5.523-4.479-10-10.002-10zm-89.366-15.976c0-17.153 13.955-31.108 31.108-31.108s31.108 13.955 31.108 31.108v15.976h-62.217v-15.976zm79.366 122.613h-96.516v-86.638h96.516z"/><path d="m264.575 261.614h-17.149c-5.523 0-10 4.477-10 10 0 5.038 3.729 9.194 8.575 9.887v1.715c0 5.523 4.477 10 10 10s10-4.477 10-10v-1.715c4.846-.693 8.575-4.849 8.575-9.887-.001-5.523-4.478-10-10.001-10z"/></g></g></svg>