<?xml version="1.0"?>
<svg xmlns="http://www.w3.org/2000/svg" xmlns:xlink="http://www.w3.org/1999/xlink" version="1.1" id="Layer_1" x="0px" y="0px" viewBox="0 0 505 505" style="enable-background:new 0 0 505 505;" xml:space="preserve" width="512px" height="512px" class=""><g><circle style="fill:#00B285" cx="252.5" cy="252.5" r="252.5" data-original="#FD8469" class="" data-old_color="#FD8469"/><g>
	<rect x="362.7" y="118.1" style="fill:#FFFFFF;" width="43.4" height="253" data-original="#FFFFFF" class=""/>
	<rect x="108" y="127.3" style="fill:#FFFFFF;" width="19" height="13.7" data-original="#FFFFFF" class=""/>
	<rect x="108" y="170.2" style="fill:#FFFFFF;" width="19" height="13.7" data-original="#FFFFFF" class=""/>
	<rect x="108" y="213" style="fill:#FFFFFF;" width="19" height="13.7" data-original="#FFFFFF" class=""/>
	<rect x="108" y="255.9" style="fill:#FFFFFF;" width="19" height="13.7" data-original="#FFFFFF" class=""/>
	<rect x="108" y="298.8" style="fill:#FFFFFF;" width="19" height="13.7" data-original="#FFFFFF" class=""/>
	<rect x="108" y="341.7" style="fill:#FFFFFF;" width="19" height="13.7" data-original="#FFFFFF" class=""/>
	<polygon style="fill:#FFFFFF;" points="97,407.9 97,97.1 113.9,97.1 113.9,391.1 407.9,391.1 407.9,407.9  " data-original="#FFFFFF" class=""/>
	<rect x="154.8" y="183" style="fill:#FFFFFF;" width="43.4" height="188.1" data-original="#FFFFFF" class=""/>
	<rect x="224.1" y="232.7" style="fill:#FFFFFF;" width="43.4" height="138.4" data-original="#FFFFFF" class=""/>
</g><rect x="362.7" y="118.1" style="fill:#54C0EB;" width="43.4" height="53.3" data-original="#54C0EB" class=""/><rect x="293.4" y="150" style="fill:#FFFFFF;" width="43.4" height="221.1" data-original="#FFFFFF" class=""/><rect x="293.4" y="150" style="fill:#324A5E;" width="43.4" height="53.3" data-original="#324A5E"/><rect x="224.1" y="232.7" style="fill:#FF6600" width="43.4" height="53.3" data-original="#4CDBC4" class="active-path" data-old_color="#FF6D00"/><rect x="154.8" y="183" style="fill:#FFD05B" width="43.4" height="53.3" data-original="#FFD05B" class=""/></g> </svg>
