<?xml version="1.0" encoding="UTF-8"?><svg id="Layer_2" xmlns="http://www.w3.org/2000/svg" viewBox="0 0 487.42 283.19"><defs><style>.cls-1{fill:#fff;}.cls-2{fill:#7fcc00;}.cls-3{fill:#65a300;}.cls-4{fill:none;stroke:#c1c1c1;stroke-miterlimit:10;stroke-width:4px;}</style></defs><g id="Layer_1-2"><path class="cls-2" d="M64.51,6.8c-.97-.79-2.25-1.09-3.47-.83-8.91,1.87-18.2-.03-25.67-5.24-1.41-.98-3.29-.98-4.71,0C23.2,5.95,13.91,7.85,4.99,5.98c-1.22-.26-2.5,.04-3.47,.83C.56,7.59,0,8.77,0,10.02v30.75c0,12.01,5.79,23.28,15.56,30.25l15.06,10.73c1.43,1.02,3.35,1.02,4.79,0l15.06-10.73c9.77-6.98,15.57-18.25,15.56-30.25V10.02c0-1.25-.56-2.43-1.53-3.22Z"/><path class="cls-1" d="M41.67,29.55l-12.93,12.98-4.28-4.33c-1.89-1.89-4.94-1.89-6.83,0-1.89,1.89-1.89,4.94,0,6.83l7.69,7.69c1.87,1.89,4.91,1.9,6.8,.03l.03-.03,16.54-16.4c1.89-1.89,1.89-4.94,0-6.83-1.89-1.89-4.94-1.89-6.83,0l-.19,.05Z"/><g><path id="hat" class="cls-3" d="M464.45,212.35h22.9c.04-.94,.07-1.88,.07-2.83-.04-38.28-31.04-69.31-69.33-69.4v22.87c25.67,.04,46.45,20.86,46.45,46.52,0,.94-.03,1.89-.09,2.83Z"/><path id="pagarme" d="M200.78,247.07c-1.87-.41-3.69-1-5.44-1.77-1.33-.61-2.63-1.3-3.88-2.07-.89-.53-1.74-1.14-2.53-1.82l-.75-.75,4.55-6.75,.63,.64c.56,.5,1.15,.96,1.77,1.39,.93,.68,1.92,1.29,2.95,1.82,2.81,1.33,5.87,2.04,8.98,2.06,3.61,.33,7.2-.77,9.99-3.07,2.19-2.42,3.3-5.63,3.08-8.89v-3.62c-.16,.23-.34,.45-.51,.67-.5,.56-1.03,1.08-1.6,1.56-.84,.76-1.76,1.42-2.74,1.99-1.28,.67-2.64,1.18-4.05,1.5-1.78,.46-3.61,.68-5.45,.67-5.61,.22-11.07-1.78-15.22-5.57-4.16-4.22-6.32-10.02-5.94-15.94-.24-5.85,1.96-11.55,6.07-15.72,3.94-3.97,9.33-6.15,14.92-6.03,2.8-.04,5.58,.49,8.17,1.56,1.85,.67,3.55,1.72,4.97,3.08l1.35,1.5v-5.48h9.12v38.28c0,14.33-7.25,21.5-21.76,21.5h-.09c-2.22,0-4.44-.24-6.61-.73h0Zm-3.55-48.03c-2.4,2.76-3.65,6.34-3.49,10-.15,3.64,1.13,7.2,3.58,9.91,2.46,2.59,5.92,3.98,9.49,3.83,3.67,.17,7.24-1.19,9.87-3.76,2.54-2.69,3.88-6.29,3.71-9.99,.15-3.71-1.22-7.32-3.79-10-2.61-2.59-6.19-3.98-9.87-3.83-3.57-.17-7.04,1.24-9.48,3.85h0Zm-110.59,47.83v-58.86h9.11v5.65c.11-.17,.3-.41,.55-.72,.52-.57,1.08-1.09,1.69-1.57,.89-.74,1.85-1.4,2.87-1.94,1.34-.67,2.76-1.19,4.21-1.55,1.8-.48,3.65-.73,5.51-.72,5.59-.2,11.01,2,14.88,6.03,3.96,4.32,6.04,10.03,5.78,15.89,.34,5.98-1.74,11.85-5.78,16.28-4.03,4.01-9.54,6.15-15.22,5.9-1.82,.01-3.63-.22-5.39-.68-1.45-.35-2.84-.9-4.13-1.64-.96-.58-1.89-1.21-2.78-1.9-.63-.46-1.19-1-1.69-1.6l-.5-.68v22.09h-9.1Zm12.57-47.89c-2.54,2.81-3.87,6.5-3.72,10.29-.21,3.82,1.13,7.55,3.72,10.37,2.66,2.61,6.3,3.99,10.02,3.8,3.55,.16,6.98-1.28,9.36-3.92,2.38-2.84,3.62-6.46,3.46-10.16,.16-3.77-1.13-7.47-3.59-10.33-2.41-2.68-5.88-4.14-9.48-4.01-3.68-.14-7.24,1.31-9.77,3.98v-.02Zm320.87,32.56c-7.7,0-13.64-2.01-17.83-6.03-4.34-4.39-6.62-10.4-6.28-16.56-.23-6.07,2.1-11.96,6.41-16.23,4.32-4.21,10.17-6.48,16.2-6.28,6.24-.34,12.33,2.06,16.66,6.58,4.25,5.05,6.41,11.53,6.03,18.11v2.19h-31.88c0,.29,.05,.58,.13,.85,.21,.62,.47,1.21,.8,1.77,.45,.85,1.03,1.61,1.72,2.28,.94,.81,2.03,1.43,3.2,1.82,1.61,.56,3.3,.83,5.01,.8,2.12,0,4.21-.41,6.16-1.22,1.56-.58,3.02-1.42,4.3-2.49l1.25-1.26,6.92,8.09c-.17,.22-.41,.5-.72,.85-.68,.66-1.41,1.27-2.19,1.81-1.17,.88-2.41,1.66-3.72,2.32-1.68,.8-3.44,1.41-5.26,1.81-2.23,.53-4.52,.8-6.82,.8h-.09Zm-5.57-33.73c-1.03,.4-1.95,1.04-2.7,1.86-.58,.68-1.09,1.41-1.52,2.19-.34,.57-.56,1.2-.67,1.86l-.17,.75h18.3c-.06-.21-.11-.5-.16-.8-.18-.61-.42-1.21-.72-1.77-.4-.83-.92-1.6-1.56-2.28-.78-.75-1.7-1.35-2.7-1.77-1.28-.55-2.66-.83-4.05-.8h-.21c-1.32,0-2.62,.26-3.84,.76h0Zm-103.57,31.49c-1.46-1.42-2.28-3.36-2.28-5.39,0-2.03,.82-3.98,2.28-5.4,1.48-1.45,3.49-2.24,5.56-2.19,2.07-.04,4.08,.75,5.57,2.19,1.45,1.42,2.27,3.37,2.27,5.4,0,2.03-.82,3.97-2.27,5.39-1.51,1.41-3.5,2.19-5.57,2.19-2.06,0-4.05-.78-5.56-2.18h0Zm-55.66,2.04c-5.62,.21-11.1-1.82-15.22-5.65-4.18-4.31-6.33-10.19-5.93-16.19-.26-5.95,1.93-11.74,6.07-16.02,3.92-4,9.32-6.19,14.92-6.07,2.8-.04,5.58,.49,8.17,1.56,1.85,.67,3.54,1.72,4.98,3.07l1.35,1.52v-5.4h9.1v42.5h-9.11v-5.82c-.11,.17-.28,.41-.5,.71-.48,.57-1.02,1.09-1.6,1.57-.85,.73-1.77,1.38-2.74,1.94-1.28,.68-2.64,1.2-4.05,1.56-1.72,.48-3.5,.72-5.29,.72h-.15Zm-8.55-32.21c-2.42,2.83-3.68,6.47-3.51,10.2-.15,3.74,1.13,7.39,3.59,10.21,2.42,2.66,5.89,4.11,9.49,3.96,3.69,.19,7.28-1.19,9.9-3.79,2.56-2.83,3.88-6.57,3.67-10.38,.17-3.77-1.2-7.45-3.8-10.2-2.6-2.62-6.18-4.02-9.86-3.88-3.58-.17-7.05,1.25-9.48,3.88h0Zm-90.42,32.2c-5.62,.22-11.1-1.82-15.21-5.65-4.18-4.31-6.34-10.19-5.95-16.19-.26-5.95,1.93-11.74,6.07-16.02,3.92-4,9.32-6.19,14.92-6.07,2.81-.05,5.59,.49,8.18,1.56,1.85,.68,3.54,1.72,4.97,3.07l1.35,1.52v-5.4h9.11v42.5h-9.11v-5.82c-.16,.24-.33,.48-.5,.71-.48,.57-1.02,1.09-1.6,1.57-.85,.73-1.77,1.38-2.74,1.94-1.28,.68-2.64,1.2-4.05,1.56-1.72,.48-3.5,.72-5.29,.72h-.15Zm-8.56-32.21c-2.42,2.83-3.67,6.48-3.49,10.2-.16,3.73,1.13,7.39,3.58,10.21,2.42,2.66,5.89,4.11,9.49,3.96,3.69,.18,7.28-1.19,9.9-3.79,2.56-2.83,3.88-6.57,3.66-10.38,.17-3.77-1.2-7.45-3.79-10.2-2.6-2.62-6.18-4.02-9.86-3.88-3.58-.17-7.05,1.25-9.48,3.88h0Zm232.3,31.53v-26.55c0-4.44-1.63-6.66-4.89-6.66-4.05,0-6.07,2.95-6.07,8.85v24.37h-12.82v-26.55c0-4.44-1.63-6.66-4.89-6.66-4.05,0-6.07,2.95-6.07,8.85v24.37h-12.82v-43.33h12.82v5.65c.11-.17,.25-.39,.43-.68,.37-.53,.78-1.03,1.22-1.5,.64-.73,1.36-1.37,2.15-1.93,.99-.66,2.06-1.17,3.19-1.52,1.39-.46,2.84-.68,4.3-.67,1.46-.02,2.91,.2,4.31,.63,1.1,.33,2.14,.84,3.07,1.52,.68,.52,1.32,1.1,1.9,1.73,.43,.46,.8,.97,1.1,1.52l.25,.59c.11-.17,.26-.38,.46-.64,.44-.5,.9-.98,1.39-1.43,.72-.7,1.51-1.32,2.36-1.86,1.05-.63,2.19-1.11,3.37-1.43,1.42-.43,2.9-.65,4.38-.64,9.11,0,13.66,5.26,13.66,15.77v28.25l-12.81-.04Zm-94.14,0v-42.58h9.11v7.67c.1-.32,.22-.63,.38-.93,.41-.73,.86-1.43,1.35-2.11,.67-.97,1.46-1.85,2.36-2.61,1.11-.86,2.35-1.53,3.67-1.98,1.62-.59,3.34-.84,5.06-.71l-.75,9.86c-3.22-.52-6.49,.5-8.85,2.74-2.23,2.41-3.39,5.62-3.19,8.89v21.75h-9.12Z"/><path id="Path_5415" d="M103.56,263.32v13.09c.09,1.86-.64,3.67-2,4.94-1.47,1.27-3.38,1.92-5.32,1.82-1.94,.1-3.85-.54-5.33-1.8-1.36-1.29-2.08-3.11-1.98-4.98v-13.08h3.39v13.1c-.08,1.09,.28,2.18,1,3.01,.79,.74,1.85,1.11,2.93,1.04,2.62,0,3.93-1.38,3.93-4.14v-13h3.38Zm8.71,0l5.65,15.01,5.64-15.01h4.4v19.59h-3.39v-6.46l.34-8.64-5.78,15.09h-2.43l-5.76-15.08,.34,8.62v6.46h-3.39v-19.59h4.41Zm31.34,15.03h-7.59l-1.59,4.56h-3.54l7.4-19.59h3.05l7.42,19.59h-3.55l-1.61-4.56Zm-6.63-2.76h5.68l-2.84-8.13-2.84,8.13Zm33.64-1.44h-8.05v6.03h9.4v2.73h-12.81v-19.59h12.71v2.76h-9.31v5.41h8.05v2.67Zm9.21-10.84l5.65,15.01,5.63-15h4.4v19.59h-3.4v-6.46l.34-8.64-5.77,15.09h-2.43l-5.76-15.08,.34,8.62v6.46h-3.39v-19.59h4.4Zm23.78,12.3v7.29h-3.4v-19.59h7.49c1.89-.1,3.75,.51,5.21,1.71,1.29,1.14,1.99,2.79,1.93,4.51,.09,1.71-.61,3.36-1.89,4.48-1.52,1.15-3.4,1.72-5.3,1.6h-4.05Zm0-2.73h4.09c1,.07,1.98-.24,2.77-.85,.67-.64,1.02-1.55,.95-2.47,.04-.94-.31-1.86-.97-2.53-.72-.66-1.68-1.01-2.66-.97h-4.18v6.83Zm22.07,2.46h-3.79v7.55h-3.4v-19.59h6.89c1.87-.12,3.72,.42,5.23,1.52,1.27,1.1,1.95,2.72,1.85,4.4,.04,1.17-.29,2.32-.95,3.29-.67,.91-1.59,1.62-2.64,2.04l4.39,8.17v.18h-3.65l-3.93-7.55Zm-3.79-2.72h3.51c.97,.06,1.93-.25,2.69-.87,.66-.61,1.01-1.48,.97-2.37,.06-.9-.27-1.78-.89-2.43-.74-.63-1.7-.94-2.67-.89h-3.59v6.56Zm25.89,1.53h-8.05v6.03h9.4v2.71h-12.81v-19.59h12.71v2.76h-9.31v5.41h8.05v2.69Zm15.03,3.7c.04-.77-.3-1.52-.91-1.99-1.01-.65-2.11-1.12-3.28-1.41-1.32-.37-2.58-.9-3.76-1.59-1.63-.86-2.66-2.55-2.69-4.39-.02-1.54,.7-2.99,1.93-3.9,1.44-1.07,3.21-1.61,5.01-1.53,1.26-.02,2.5,.23,3.65,.75,1.02,.47,1.89,1.21,2.5,2.15,.61,.92,.92,1.99,.91,3.09h-3.38c.05-.91-.3-1.79-.96-2.41-.78-.62-1.76-.93-2.76-.87-.92-.06-1.83,.2-2.59,.71-.61,.47-.96,1.22-.92,1.99,0,.73,.38,1.41,1,1.8,1.01,.64,2.12,1.11,3.28,1.4,1.29,.35,2.52,.88,3.67,1.55,.83,.49,1.53,1.17,2.03,1.99,.44,.8,.67,1.71,.65,2.63,.05,1.53-.65,2.98-1.88,3.9-1.49,1.03-3.28,1.54-5.09,1.45-1.34,.02-2.67-.25-3.91-.79-1.1-.46-2.06-1.21-2.77-2.17-.67-.94-1.01-2.07-.99-3.23h3.41c-.05,.99,.35,1.94,1.1,2.58,.91,.66,2.03,.99,3.16,.91,.94,.07,1.88-.19,2.67-.72,.58-.46,.92-1.16,.89-1.9h0Zm18.02,.49h-7.59l-1.59,4.55h-3.54l7.4-19.59h3.05l7.41,19.59h-3.55l-1.6-4.55Zm-6.63-2.76h5.68l-2.84-8.12-2.84,8.12Zm32.43,2.25c.04-.77-.3-1.52-.91-1.99-1.01-.65-2.11-1.12-3.28-1.41-1.32-.37-2.58-.9-3.76-1.59-1.63-.86-2.66-2.54-2.68-4.39-.02-1.54,.7-2.99,1.93-3.9,1.44-1.07,3.21-1.61,5.01-1.53,1.26-.02,2.5,.23,3.65,.75,1.02,.47,1.89,1.21,2.5,2.15,.61,.92,.92,1.99,.91,3.09h-3.39c.05-.9-.3-1.78-.96-2.4-.78-.62-1.76-.93-2.76-.87-.92-.06-1.83,.2-2.59,.71-.61,.47-.96,1.22-.92,1.99,0,.73,.38,1.41,1,1.8,1.01,.64,2.12,1.11,3.28,1.4,1.28,.35,2.52,.88,3.66,1.56,.83,.49,1.53,1.17,2.03,1.99,.44,.8,.67,1.71,.65,2.63,.05,1.53-.65,2.98-1.87,3.9-1.49,1.04-3.28,1.54-5.09,1.45-1.34,.02-2.67-.25-3.91-.79-1.1-.46-2.06-1.21-2.77-2.17-.67-.94-1.01-2.07-.99-3.23h3.4c-.05,.99,.35,1.94,1.1,2.58,.91,.67,2.03,.99,3.16,.91,.95,.07,1.89-.18,2.67-.72,.58-.46,.92-1.16,.89-1.9h0Zm21.21-11.81h-6.11v16.85h-3.38v-16.84h-6.05v-2.76h15.53v2.75Zm18.5,7.56c.03,1.74-.31,3.46-1,5.05-.59,1.37-1.58,2.54-2.84,3.34-1.28,.79-2.76,1.19-4.26,1.16-1.5,.02-2.97-.38-4.25-1.16-1.26-.8-2.26-1.95-2.88-3.32-.7-1.56-1.06-3.25-1.03-4.96v-1.09c-.03-1.74,.31-3.47,1.02-5.06,.6-1.38,1.6-2.54,2.87-3.36,1.27-.79,2.75-1.19,4.25-1.16,1.5-.03,2.97,.37,4.25,1.15,1.26,.8,2.25,1.94,2.86,3.3,.7,1.58,1.05,3.3,1.02,5.02v1.08Zm-3.4-1.01c.11-1.75-.32-3.49-1.23-4.99-.79-1.14-2.11-1.8-3.49-1.74-1.37-.05-2.67,.6-3.45,1.73-.92,1.46-1.36,3.17-1.27,4.89v1.13c-.11,1.75,.33,3.5,1.25,4.99,.79,1.14,2.1,1.81,3.49,1.75,1.38,.07,2.7-.58,3.49-1.72,.91-1.51,1.33-3.27,1.22-5.02v-1.02Zm22.99,10.3h-3.4l-8.73-13.9v13.9h-3.4v-19.59h3.4l8.77,13.95v-13.95h3.37v19.59Zm16.13-8.74h-8.04v6.03h9.4v2.72h-12.81v-19.59h12.71v2.76h-9.31v5.41h8.04v2.68Zm27.25,2.37c-.09,1.87-.92,3.63-2.3,4.89-1.51,1.23-3.42,1.85-5.37,1.75-1.45,.03-2.88-.36-4.12-1.11-1.21-.76-2.17-1.86-2.76-3.16-.67-1.5-1.01-3.12-1-4.76v-1.83c-.03-1.68,.3-3.35,.98-4.88,.6-1.34,1.58-2.47,2.82-3.26,1.28-.77,2.75-1.16,4.24-1.13,1.9-.09,3.76,.53,5.22,1.75,1.38,1.3,2.2,3.09,2.29,4.99h-3.38c-.04-1.13-.48-2.21-1.23-3.05-.81-.68-1.85-1.01-2.9-.93-1.34-.07-2.62,.54-3.41,1.62-.89,1.42-1.31,3.08-1.22,4.76v1.74c-.11,1.69,.29,3.38,1.14,4.84,.74,1.1,2,1.74,3.33,1.67,1.08,.08,2.15-.24,3.01-.9,.77-.82,1.22-1.88,1.28-3.01h3.39Zm19.33-2.9c.03,1.74-.31,3.46-1,5.05-.59,1.37-1.58,2.53-2.83,3.34-1.28,.79-2.76,1.19-4.26,1.16-1.49,.02-2.96-.38-4.23-1.16-1.26-.8-2.26-1.95-2.88-3.32-.7-1.56-1.06-3.25-1.03-4.96v-1.09c-.03-1.74,.31-3.47,1.02-5.06,.6-1.38,1.6-2.54,2.87-3.36,1.27-.79,2.75-1.19,4.25-1.16,1.5-.03,2.97,.37,4.25,1.15,1.26,.8,2.25,1.95,2.86,3.31,.7,1.58,1.05,3.3,1.02,5.02l-.03,1.08Zm-3.4-1.02c.11-1.75-.32-3.49-1.23-4.99-.79-1.14-2.1-1.79-3.48-1.74-1.37-.05-2.67,.6-3.45,1.73-.92,1.46-1.36,3.17-1.27,4.89v1.13c-.11,1.75,.33,3.5,1.25,4.99,.79,1.14,2.1,1.81,3.49,1.75,1.38,.07,2.7-.58,3.48-1.72,.91-1.51,1.33-3.27,1.22-5.03v-1.01Zm7.53,6.86c.52-.03,1.04,.16,1.41,.52,.33,.35,.51,.82,.5,1.3,.01,.47-.17,.93-.5,1.27-.38,.35-.89,.54-1.41,.5-.51,.03-1.01-.15-1.39-.5-.34-.34-.52-.8-.5-1.28-.01-.48,.17-.95,.5-1.3,.37-.36,.88-.55,1.4-.51h-.01Z"/></g><line class="cls-4" x1="33.16" y1="100.15" x2="33.16" y2="282.9"/><path class="cls-3" d="M118.84,96.63c2.88,2.4,4.68,5.58,5.41,9.52h-10.88c-.32-1.54-1.03-2.76-2.14-3.64-1.11-.89-2.51-1.33-4.18-1.33-1.32,0-2.31,.28-2.99,.85-.68,.57-1.02,1.37-1.02,2.41,0,1.18,.62,2.06,1.87,2.65,1.25,.59,3.21,1.18,5.88,1.77,2.9,.68,5.28,1.37,7.14,2.08,1.86,.7,3.47,1.85,4.83,3.43,1.36,1.59,2.04,3.72,2.04,6.39,0,2.18-.59,4.11-1.77,5.78-1.18,1.68-2.88,2.99-5.1,3.95s-4.85,1.43-7.89,1.43c-5.12,0-9.23-1.13-12.31-3.4s-4.97-5.51-5.65-9.73h11.22c.18,1.63,.87,2.88,2.08,3.74,1.2,.86,2.76,1.29,4.66,1.29,1.31,0,2.31-.31,2.99-.92,.68-.61,1.02-1.42,1.02-2.41,0-1.31-.62-2.26-1.87-2.82s-3.28-1.17-6.09-1.8c-2.81-.59-5.13-1.23-6.94-1.91-1.81-.68-3.38-1.78-4.69-3.3-1.32-1.52-1.97-3.59-1.97-6.22,0-3.4,1.29-6.16,3.88-8.27,2.58-2.11,6.23-3.16,10.95-3.16s8.65,1.2,11.53,3.61Z"/><path class="cls-3" d="M167.17,114.59h-26.33c.14,2.86,.86,4.91,2.18,6.16,1.31,1.25,2.99,1.87,5.03,1.87,1.72,0,3.15-.43,4.29-1.29,1.13-.86,1.88-1.97,2.24-3.33h12.31c-.5,2.68-1.59,5.07-3.26,7.18-1.68,2.11-3.81,3.76-6.39,4.97-2.58,1.2-5.47,1.8-8.64,1.8-3.72,0-7.02-.78-9.9-2.35-2.88-1.56-5.13-3.82-6.77-6.77-1.63-2.95-2.45-6.39-2.45-10.34s.8-7.45,2.41-10.37c1.61-2.92,3.87-5.17,6.77-6.73,2.9-1.56,6.21-2.35,9.93-2.35s7.08,.77,9.93,2.31c2.86,1.54,5.07,3.71,6.63,6.5s2.35,6,2.35,9.63c0,.95-.11,2-.34,3.13Zm-13.44-10.51c-1.38-1.25-3.1-1.87-5.14-1.87s-3.9,.64-5.31,1.91-2.2,3.13-2.38,5.58h14.83c.04-2.49-.62-4.36-2.01-5.61Z"/><path class="cls-3" d="M195.67,95c2.09,1.32,3.63,3.11,4.62,5.37v-6.87h11.56v37.75c0,3.54-.68,6.72-2.04,9.56-1.36,2.83-3.45,5.09-6.26,6.77-2.81,1.68-6.31,2.52-10.48,2.52-5.72,0-10.28-1.35-13.71-4.05-3.42-2.7-5.48-6.36-6.16-10.99h11.5c.36,1.54,1.19,2.74,2.48,3.61,1.29,.86,2.98,1.29,5.07,1.29,2.4,0,4.34-.69,5.82-2.08s2.21-3.59,2.21-6.63v-6.67c-1,2.27-2.54,4.06-4.62,5.37-2.09,1.31-4.58,1.97-7.48,1.97-3.13,0-5.93-.78-8.4-2.35s-4.42-3.82-5.85-6.77c-1.43-2.95-2.14-6.39-2.14-10.34s.71-7.45,2.14-10.37c1.43-2.92,3.38-5.17,5.85-6.73,2.47-1.56,5.27-2.35,8.4-2.35,2.9,0,5.4,.66,7.48,1.97Zm-9.76,10.68c-1.52,1.63-2.28,3.9-2.28,6.8s.76,5.17,2.28,6.8c1.52,1.63,3.52,2.45,6.02,2.45s4.46-.84,6.02-2.52c1.56-1.68,2.35-3.92,2.35-6.73s-.78-5.11-2.35-6.77c-1.56-1.66-3.57-2.48-6.02-2.48s-4.5,.81-6.02,2.45Z"/><path class="cls-3" d="M257.84,93.5v37.96h-11.7v-6.87c-1.09,2.22-2.71,3.99-4.86,5.31-2.15,1.32-4.66,1.97-7.52,1.97-4.35,0-7.81-1.45-10.37-4.35-2.56-2.9-3.84-6.89-3.84-11.97v-22.04h11.56v20.61c0,2.58,.67,4.59,2.01,6.02,1.34,1.43,3.14,2.14,5.41,2.14s4.22-.75,5.58-2.25c1.36-1.5,2.04-3.63,2.04-6.39v-20.13h11.7Z"/><path class="cls-3" d="M283.32,95.13c2.29-1.36,4.77-2.04,7.45-2.04v12.45h-3.33c-3.08,0-5.48,.66-7.18,1.97-1.7,1.32-2.55,3.54-2.55,6.67v17.28h-11.63v-37.96h11.63v7.14c1.45-2.31,3.32-4.15,5.61-5.51Z"/><path class="cls-3" d="M323.72,95.37c2.97,1.56,5.31,3.82,7.01,6.77s2.55,6.39,2.55,10.34-.85,7.39-2.55,10.34c-1.7,2.95-4.04,5.2-7.01,6.77-2.97,1.56-6.34,2.35-10.1,2.35s-7.14-.78-10.14-2.35c-2.99-1.56-5.34-3.82-7.04-6.77-1.7-2.95-2.55-6.39-2.55-10.34s.85-7.39,2.55-10.34c1.7-2.95,4.05-5.21,7.04-6.77s6.37-2.35,10.14-2.35,7.13,.78,10.1,2.35Zm-15.71,10.14c-1.52,1.61-2.28,3.94-2.28,6.97s.76,5.35,2.28,6.94c1.52,1.59,3.39,2.38,5.61,2.38s4.08-.79,5.58-2.38c1.5-1.59,2.25-3.9,2.25-6.94s-.75-5.36-2.25-6.97c-1.5-1.61-3.36-2.41-5.58-2.41s-4.09,.81-5.61,2.41Z"/><g><path class="cls-3" d="M103.89,42.93v16.15h-11.14V13.04h18.04c5.47,0,9.64,1.36,12.5,4.07,2.87,2.71,4.3,6.37,4.3,10.97,0,2.87-.64,5.42-1.92,7.65-1.28,2.24-3.18,3.99-5.7,5.27-2.52,1.28-5.58,1.92-9.18,1.92h-6.9Zm12.37-14.85c0-4.04-2.24-6.06-6.71-6.06h-5.67v11.98h5.67c4.47,0,6.71-1.98,6.71-5.93Z"/><path class="cls-3" d="M154.04,24.18c2,1.26,3.47,2.97,4.43,5.15v-6.58h11.07V59.08h-11.07v-6.58c-.96,2.17-2.43,3.89-4.43,5.15-2,1.26-4.39,1.89-7.16,1.89-3,0-5.68-.75-8.04-2.25-2.37-1.5-4.23-3.66-5.6-6.48-1.37-2.82-2.05-6.12-2.05-9.9s.68-7.13,2.05-9.93c1.37-2.8,3.23-4.95,5.6-6.45,2.37-1.5,5.05-2.25,8.04-2.25,2.78,0,5.17,.63,7.16,1.89Zm-9.35,10.22c-1.46,1.56-2.18,3.73-2.18,6.51s.73,4.95,2.18,6.51c1.45,1.56,3.38,2.34,5.76,2.34s4.27-.8,5.76-2.41c1.5-1.61,2.25-3.75,2.25-6.45s-.75-4.89-2.25-6.48c-1.5-1.58-3.42-2.38-5.76-2.38s-4.31,.78-5.76,2.34Z"/><path class="cls-3" d="M198.19,24.18c2,1.26,3.47,2.97,4.43,5.15v-6.58h11.07V58.89c0,3.39-.65,6.44-1.95,9.15-1.3,2.71-3.3,4.87-5.99,6.48-2.69,1.61-6.04,2.41-10.03,2.41-5.47,0-9.84-1.29-13.12-3.88-3.28-2.58-5.24-6.09-5.89-10.52h11.01c.35,1.48,1.14,2.63,2.38,3.45,1.24,.82,2.85,1.24,4.85,1.24,2.3,0,4.16-.66,5.57-1.99,1.41-1.32,2.12-3.44,2.12-6.35v-6.38c-.96,2.17-2.43,3.89-4.43,5.15-2,1.26-4.39,1.89-7.16,1.89-3,0-5.68-.75-8.04-2.25-2.37-1.5-4.23-3.66-5.6-6.48-1.37-2.82-2.05-6.12-2.05-9.9s.68-7.13,2.05-9.93c1.37-2.8,3.23-4.95,5.6-6.45,2.37-1.5,5.05-2.25,8.04-2.25,2.78,0,5.17,.63,7.16,1.89Zm-9.35,10.22c-1.46,1.56-2.18,3.73-2.18,6.51s.73,4.95,2.18,6.51c1.45,1.56,3.38,2.34,5.76,2.34s4.27-.8,5.76-2.41c1.5-1.61,2.25-3.75,2.25-6.45s-.75-4.89-2.25-6.48c-1.5-1.58-3.42-2.38-5.76-2.38s-4.31,.78-5.76,2.34Z"/><path class="cls-3" d="M242.35,24.18c2,1.26,3.47,2.97,4.43,5.15v-6.58h11.07V59.08h-11.07v-6.58c-.96,2.17-2.43,3.89-4.43,5.15-2,1.26-4.39,1.89-7.16,1.89-3,0-5.68-.75-8.04-2.25-2.37-1.5-4.23-3.66-5.6-6.48-1.37-2.82-2.05-6.12-2.05-9.9s.68-7.13,2.05-9.93c1.37-2.8,3.23-4.95,5.6-6.45,2.37-1.5,5.05-2.25,8.04-2.25,2.78,0,5.17,.63,7.16,1.89Zm-9.35,10.22c-1.46,1.56-2.18,3.73-2.18,6.51s.73,4.95,2.18,6.51c1.45,1.56,3.38,2.34,5.76,2.34s4.27-.8,5.76-2.41c1.5-1.61,2.25-3.75,2.25-6.45s-.75-4.89-2.25-6.48c-1.5-1.58-3.42-2.38-5.76-2.38s-4.31,.78-5.76,2.34Z"/><path class="cls-3" d="M323.17,26.49c2.56,2.76,3.84,6.59,3.84,11.49v21.1h-11.07v-19.8c0-2.3-.62-4.09-1.86-5.37-1.24-1.28-2.92-1.92-5.05-1.92s-3.96,.68-5.24,2.05c-1.28,1.37-1.92,3.29-1.92,5.76v19.28h-11.14v-19.8c0-2.3-.61-4.09-1.82-5.37-1.22-1.28-2.89-1.92-5.01-1.92s-3.97,.67-5.28,2.02c-1.3,1.35-1.95,3.28-1.95,5.8v19.28h-11.14V22.74h11.14v6.19c.96-2.04,2.42-3.65,4.4-4.82,1.97-1.17,4.29-1.76,6.94-1.76,2.78,0,5.23,.64,7.36,1.92,2.13,1.28,3.73,3.12,4.82,5.5,1.26-2.26,2.98-4.06,5.18-5.41,2.19-1.35,4.61-2.02,7.26-2.02,4.47,0,7.99,1.38,10.55,4.14Z"/><path class="cls-3" d="M368.62,42.93h-25.2c.13,2.73,.82,4.7,2.08,5.89,1.26,1.19,2.87,1.79,4.82,1.79,1.65,0,3.02-.41,4.1-1.24,1.08-.82,1.8-1.89,2.15-3.19h11.79c-.48,2.56-1.52,4.85-3.13,6.87-1.61,2.02-3.65,3.6-6.12,4.75-2.47,1.15-5.23,1.73-8.27,1.73-3.56,0-6.72-.75-9.48-2.25-2.76-1.5-4.92-3.66-6.48-6.48-1.56-2.82-2.34-6.12-2.34-9.9s.77-7.13,2.31-9.93c1.54-2.8,3.7-4.95,6.48-6.45,2.78-1.5,5.95-2.25,9.51-2.25s6.77,.74,9.51,2.21c2.74,1.48,4.85,3.55,6.35,6.22,1.5,2.67,2.25,5.74,2.25,9.21,0,.91-.11,1.91-.33,3Zm-12.86-10.06c-1.33-1.19-2.96-1.79-4.92-1.79s-3.73,.61-5.08,1.82c-1.35,1.22-2.11,3-2.28,5.34h14.2c.04-2.39-.6-4.18-1.92-5.37Z"/><path class="cls-3" d="M407.73,26.52c2.45,2.78,3.68,6.6,3.68,11.46v21.1h-11.14v-19.8c0-2.43-.64-4.33-1.92-5.7-1.28-1.37-2.99-2.05-5.11-2.05-2.26,0-4.05,.72-5.37,2.15-1.32,1.43-1.99,3.47-1.99,6.12v19.28h-11.14V22.74h11.14v6.64c1.04-2.17,2.59-3.88,4.66-5.14,2.06-1.26,4.48-1.89,7.26-1.89,4.17,0,7.48,1.39,9.93,4.17Z"/><path class="cls-3" d="M439.35,49.51v9.57h-5.01c-4.26,0-7.57-1.05-9.93-3.16-2.37-2.11-3.55-5.59-3.55-10.45v-13.35h-4.88v-9.38h4.88V13.82h11.14v8.92h7.29v9.38h-7.29v13.55c0,1.43,.29,2.43,.88,3,.59,.56,1.57,.85,2.96,.85h3.52Z"/><path class="cls-3" d="M472.27,24.54c2.84,1.5,5.08,3.66,6.71,6.48,1.63,2.82,2.44,6.12,2.44,9.9s-.81,7.08-2.44,9.9c-1.63,2.82-3.86,4.98-6.71,6.48s-6.07,2.25-9.67,2.25-6.84-.75-9.7-2.25c-2.87-1.5-5.11-3.66-6.74-6.48-1.63-2.82-2.44-6.12-2.44-9.9s.81-7.08,2.44-9.9c1.63-2.82,3.88-4.98,6.74-6.48,2.87-1.5,6.1-2.25,9.7-2.25s6.83,.75,9.67,2.25Zm-15.04,9.7c-1.46,1.54-2.18,3.77-2.18,6.68s.73,5.12,2.18,6.64c1.45,1.52,3.25,2.28,5.37,2.28s3.91-.76,5.34-2.28c1.43-1.52,2.15-3.73,2.15-6.64s-.72-5.13-2.15-6.68c-1.43-1.54-3.21-2.31-5.34-2.31s-3.92,.77-5.37,2.31Z"/></g></g></svg>