<?xml version="1.0"?>
<svg xmlns="http://www.w3.org/2000/svg" xmlns:xlink="http://www.w3.org/1999/xlink" version="1.1" id="Capa_1" x="0px" y="0px" viewBox="0 0 497.644 497.644" style="enable-background:new 0 0 497.644 497.644;" xml:space="preserve" width="512px" height="512px" class=""><g><path style="fill:#FFFFFF;" d="M244.078,109.439L244.078,109.439c-73.6,0-132.8,59.2-132.8,132.8l0,0c0,73.6,59.2,132.8,132.8,132.8  l0,0c73.6,0,132.8-59.2,132.8-132.8l0,0C376.878,169.439,316.878,109.439,244.078,109.439z" data-original="#FFFFFF"/><path style="fill:#0061B7" d="M218.478,12.639c260.8-28.8,358.4,302.4,137.6,419.2c-211.2,100-406.4-159.2-244-330.4l19.2,19.2  l20-100l-100.8,19.2l19.2,19.2c-196.8,228.8,61.6,525.6,300,399.2C611.278,317.439,482.478-28.961,218.478,12.639z M411.278,393.439  L411.278,393.439C411.278,393.439,410.478,394.239,411.278,393.439z" data-original="#F15F50" class="active-path" data-old_color="#0061b7"/><g>
	<path style="fill:#27A2DE;" d="M233.678,284.639c0,4-3.2,6.4-6.4,6.4h-59.2c-4.8,0-8-3.2-8-8c0-5.6,1.6-10.4,4.8-14.4   c5.6-8,12-12.8,28.8-24c11.2-7.2,27.2-16.8,27.2-29.6c0-13.6-10.4-19.2-24-19.2c-8.8,0-17.6,1.6-26.4,5.6c-2.4,1.6-5.6,0.8-7.2-0.8   c-2.4-2.4-2.4-8,1.6-9.6c10.4-4.8,21.6-8,33.6-8c19.2,0,35.2,12,35.2,31.2c0,20-20,32.8-36.8,43.2c-7.2,4.8-20,12.8-24,20.8h52.8   C230.478,277.439,233.678,280.639,233.678,284.639z" data-original="#27A2DE"/>
	<path style="fill:#27A2DE;" d="M334.478,253.439c1.6,1.6,1.6,2.4,1.6,4.8c0,1.6-0.8,3.2-1.6,4c-1.6,0.8-2.4,1.6-4.8,1.6h-11.2v20.8   c0,4-3.2,7.2-7.2,7.2s-7.2-3.2-7.2-7.2v-20.8h-46.4c-4.8,0-8.8-4-8.8-8.8c0-2.4,0-4.8,1.6-7.2l48-60.8c3.2-4,6.4-4,10.4-4   c5.6,0,8.8,4,8.8,8.8v59.2h11.2C332.078,251.839,333.678,251.839,334.478,253.439z M304.878,199.039l-40.8,52h40.8V199.039z" data-original="#27A2DE"/>
</g><g>
	<path style="fill:#193651" d="M244.078,423.839c2.4,0,5.6,0,8,0l-0.8-16c-2.4,0-4.8,0-8,0v16H244.078z" data-original="#193651" class=""/>
	<path style="fill:#193651" d="M324.078,387.039l8,13.6c4.8-2.4,9.6-5.6,14.4-8.8l-8.8-12.8   C332.878,382.239,328.878,384.639,324.078,387.039z" data-original="#193651" class=""/>
	<path style="fill:#193651" d="M301.678,415.039c5.6-1.6,10.4-4,16-6.4l-6.4-14.4c-4.8,2.4-9.6,4-14.4,5.6L301.678,415.039z" data-original="#193651" class=""/>
	<path style="fill:#193651" d="M424.078,217.439l-16,2.4c0.8,4.8,0.8,10.4,1.6,15.2l16-0.8   C424.878,228.639,424.878,223.039,424.078,217.439z" data-original="#193651" class=""/>
	<path style="fill:#193651" d="M420.878,283.839l-16-3.2c-0.8,4.8-2.4,9.6-4,14.4l15.2,4.8   C417.678,295.039,419.278,289.439,420.878,283.839z" data-original="#193651" class=""/>
	<path style="fill:#193651" d="M268.878,422.239c5.6-0.8,11.2-1.6,16.8-3.2l-4-15.2c-4.8,0.8-10.4,2.4-15.2,2.4L268.878,422.239z" data-original="#193651" class=""/>
	<path style="fill:#193651" d="M393.678,345.439l-12.8-8.8c-3.2,4-5.6,8-9.6,12l12,10.4   C387.278,354.239,390.478,349.439,393.678,345.439z" data-original="#193651" class=""/>
	<path style="fill:#193651" d="M349.678,370.239l10.4,12c4-3.2,8.8-7.2,12.8-11.2l-12-11.2   C357.678,363.039,353.678,367.039,349.678,370.239z" data-original="#193651" class=""/>
	<path style="fill:#193651" d="M409.678,315.839l-14.4-6.4c-2.4,4.8-4,9.6-7.2,13.6l13.6,8   C405.678,326.239,408.078,320.639,409.678,315.839z" data-original="#193651" class=""/>
	<path style="fill:#193651" d="M425.678,251.039l-16-0.8c0,4.8-0.8,10.4-1.6,15.2l16,2.4   C424.878,262.239,424.878,256.639,425.678,251.039z" data-original="#193651" class=""/>
	<path style="fill:#193651" d="M301.678,70.239l-4.8,15.2c4.8,1.6,9.6,3.2,14.4,5.6l6.4-14.4   C312.078,74.239,307.278,71.839,301.678,70.239z" data-original="#193651" class=""/>
	<path style="fill:#193651" d="M332.878,83.839l-8,13.6c4.8,2.4,8.8,4.8,12.8,8l8.8-12.8   C342.478,89.439,337.678,86.239,332.878,83.839z" data-original="#193651" class=""/>
	<path style="fill:#193651" d="M268.878,62.239l-2.4,16c4.8,0.8,10.4,1.6,15.2,3.2l4-15.2   C280.078,64.639,274.478,63.039,268.878,62.239z" data-original="#193651" class=""/>
	<path style="fill:#193651" d="M388.878,162.239c2.4,4.8,4.8,8.8,7.2,13.6l14.4-6.4c-2.4-4.8-4.8-10.4-7.2-15.2L388.878,162.239z" data-original="#193651" class=""/>
	<path style="fill:#193651" d="M400.878,190.239c1.6,4.8,3.2,9.6,4,14.4l15.2-4c-1.6-5.6-2.4-11.2-4.8-16L400.878,190.239z" data-original="#193651" class=""/>
	<path style="fill:#193651" d="M349.678,115.039c4,3.2,8,6.4,11.2,10.4l11.2-11.2c-4-4-8-8-12-11.2L349.678,115.039z" data-original="#193651" class=""/>
	<path style="fill:#193651" d="M371.278,136.639c3.2,4,6.4,8,9.6,12l13.6-8.8c-3.2-4.8-6.4-8.8-10.4-13.6L371.278,136.639z" data-original="#193651" class=""/>
	<path style="fill:#193651" d="M244.078,60.639v16c2.4,0,4.8,0,8,0l0.8-16C249.678,60.639,246.478,60.639,244.078,60.639z" data-original="#193651" class=""/>
	<path style="fill:#193651" d="M103.278,242.239c0,77.6,63.2,140.8,140.8,140.8s140.8-63.2,140.8-140.8s-63.2-140.8-140.8-140.8   C166.478,101.439,103.278,164.639,103.278,242.239z M368.878,242.239c0,68.8-56,124.8-124.8,124.8s-124.8-56-124.8-124.8   s56-124.8,124.8-124.8C312.878,117.439,368.878,173.439,368.878,242.239z" data-original="#193651" class=""/>
</g></g> </svg>
