<?xml version="1.0"?>
<svg xmlns="http://www.w3.org/2000/svg" xmlns:xlink="http://www.w3.org/1999/xlink" version="1.1" id="Layer_1" x="0px" y="0px" viewBox="0 0 505 505" style="enable-background:new 0 0 505 505;" xml:space="preserve" width="512px" height="512px" class=""><g><circle style="fill:#0061B7" cx="252.5" cy="252.5" r="252.5" data-original="#FD8469" class="active-path" data-old_color="#0061b7"/><path style="fill:#FFFFFF;" d="M79.9,176v200.3c0,1.6,1.3,2.8,2.8,2.8h339.5c1.6,0,2.8-1.3,2.8-2.8V176H79.9z" data-original="#FFFFFF" class=""/><path style="fill:#4CDBC4;" d="M425.1,177.7v-34.2c0-9.7-7.9-17.6-17.6-17.6h-310c-9.7,0-17.6,7.9-17.6,17.6v34.2H425.1z" data-original="#4CDBC4"/><path style="fill:#FFFFFF;" d="M284.7,164.3H115.4c-6.9,0-12.5-5.6-12.5-12.5l0,0c0-6.9,5.6-12.5,12.5-12.5h169.3  c6.9,0,12.5,5.6,12.5,12.5l0,0C297.2,158.7,291.6,164.3,284.7,164.3z" data-original="#FFFFFF" class=""/><g>
	<circle style="fill:#2C9984;" cx="389.3" cy="152" r="12.8" data-original="#2C9984"/>
	<circle style="fill:#2C9984;" cx="352.5" cy="152" r="12.8" data-original="#2C9984"/>
</g><g>
	<path style="fill:#324A5E;" d="M116.3,156.4h-2.5l-3-8.7h2.5l1.7,5.3l1.7-5.3h2.4l1.7,5.3l1.7-5.3h2.5l-3,8.7h-2.5l-1.6-4.8   L116.3,156.4z" data-original="#324A5E"/>
	<path style="fill:#324A5E;" d="M131,156.4h-2.5l-3-8.7h2.5l1.7,5.3l1.7-5.3h2.4l1.7,5.3l1.7-5.3h2.5l-3,8.7h-2.5l-1.6-4.8   L131,156.4z" data-original="#324A5E"/>
	<path style="fill:#324A5E;" d="M145.6,156.4h-2.5l-3-8.7h2.5l1.7,5.3l1.7-5.3h2.4l1.7,5.3l1.7-5.3h2.5l-3,8.7h-2.5l-1.6-4.8   L145.6,156.4z" data-original="#324A5E"/>
</g><g>
	<rect x="292.5" y="207.3" style="fill:#CED5E0;" width="37.4" height="137.4" data-original="#CED5E0"/>
	<rect x="233.8" y="238.9" style="fill:#CED5E0;" width="37.4" height="105.8" data-original="#CED5E0"/>
	<rect x="175.1" y="257" style="fill:#CED5E0;" width="37.4" height="87.6" data-original="#CED5E0"/>
</g><polygon style="fill:#54C0EB" points="269.8,243.4 281,254.6 202.2,333.3 178.2,309.3 108.4,379.1 133.7,379.1 178.2,334.6   202.2,358.5 293.6,267.2 305.6,279.2 315.8,233.2 " data-original="#54C0EB" class=""/></g> </svg>
