<?xml version="1.0"?>
<svg xmlns="http://www.w3.org/2000/svg" xmlns:xlink="http://www.w3.org/1999/xlink" version="1.1" id="Layer_1" x="0px" y="0px" viewBox="0 0 505 505" style="enable-background:new 0 0 505 505;" xml:space="preserve" width="512px" height="512px" class=""><g><circle style="fill:#0061B7" cx="252.5" cy="252.5" r="252.5" data-original="#FD8469" class="active-path" data-old_color="#0061b7"/><polygon style="fill:#FFFFFF;" points="327,86.1 327,139.7 380.5,139.7 380.5,418.9 127.3,418.9 127.3,86.1 " data-original="#FFFFFF"/><polygon style="fill:#E6E9EE;" points="327,86.1 380.5,139.7 327,139.7 " data-original="#E6E9EE"/><rect x="270" y="109" style="fill:#FF7058;" width="24.8" height="27.9" data-original="#FF7058"/><rect x="231.4" y="109" style="fill:#324A5E;" width="24.8" height="27.9" data-original="#324A5E"/><rect x="192.8" y="109" style="fill:#ACB3BA;" width="24.8" height="27.9" data-original="#ACB3BA"/><rect x="154.1" y="109" style="fill:#84DBFF" width="24.8" height="27.9" data-original="#84DBFF" class=""/><g>
	<rect x="150.3" y="369.3" style="fill:#E6E9EE;" width="207.2" height="16.3" data-original="#E6E9EE"/>
	<rect x="150.3" y="336" style="fill:#E6E9EE;" width="207.2" height="16.3" data-original="#E6E9EE"/>
	<rect x="150.3" y="302.7" style="fill:#E6E9EE;" width="207.2" height="16.3" data-original="#E6E9EE"/>
	<rect x="150.3" y="269.3" style="fill:#E6E9EE;" width="207.2" height="16.3" data-original="#E6E9EE"/>
	<rect x="150.3" y="236" style="fill:#E6E9EE;" width="207.2" height="16.3" data-original="#E6E9EE"/>
	<rect x="150.3" y="202.7" style="fill:#E6E9EE;" width="122.1" height="16.3" data-original="#E6E9EE"/>
</g></g> </svg>
