<?xml version="1.0"?>
<svg xmlns="http://www.w3.org/2000/svg" xmlns:xlink="http://www.w3.org/1999/xlink" version="1.1" id="Layer_1" x="0px" y="0px" viewBox="0 0 508 508" style="enable-background:new 0 0 508 508;" xml:space="preserve" width="512px" height="512px" class=""><g><circle style="fill:#00B285" cx="254" cy="254" r="254" data-original="#FD8469" class="" data-old_color="#FD8469"/><path style="fill:#205A39" d="M52,408c46.4,60.8,119.6,100,202,100s155.6-39.2,202-100H52z" data-original="#F1543F" class="active-path" data-old_color="#205B3A"/><polygon style="fill:#324A5E;" points="328,306 262.4,306 276,137.2 314.4,137.2 " data-original="#324A5E"/><polygon style="fill:#E6E9EE;" points="427.2,290 427.2,408 216.8,408 216.8,252 286.8,290 286.8,252 357.2,290 357.2,252 " data-original="#E6E9EE" class=""/><rect x="80.8" y="137.2" style="fill:#FFFFFF;" width="136" height="270.8" data-original="#FFFFFF"/><g>
	<rect x="97.6" y="158.8" style="fill:#84DBFF" width="24.8" height="24.8" data-original="#84DBFF" class=""/>
	<rect x="136.4" y="158.8" style="fill:#84DBFF" width="24.8" height="24.8" data-original="#84DBFF" class=""/>
	<rect x="175.2" y="158.8" style="fill:#84DBFF" width="24.8" height="24.8" data-original="#84DBFF" class=""/>
	<rect x="97.6" y="202" style="fill:#84DBFF" width="24.8" height="24.8" data-original="#84DBFF" class=""/>
	<rect x="136.4" y="202" style="fill:#84DBFF" width="24.8" height="24.8" data-original="#84DBFF" class=""/>
	<rect x="175.2" y="202" style="fill:#84DBFF" width="24.8" height="24.8" data-original="#84DBFF" class=""/>
	<rect x="97.6" y="244.8" style="fill:#84DBFF" width="24.8" height="24.8" data-original="#84DBFF" class=""/>
	<rect x="136.4" y="244.8" style="fill:#84DBFF" width="24.8" height="24.8" data-original="#84DBFF" class=""/>
	<rect x="175.2" y="244.8" style="fill:#84DBFF" width="24.8" height="24.8" data-original="#84DBFF" class=""/>
	<rect x="97.6" y="288" style="fill:#84DBFF" width="24.8" height="24.8" data-original="#84DBFF" class=""/>
	<rect x="136.4" y="288" style="fill:#84DBFF" width="24.8" height="24.8" data-original="#84DBFF" class=""/>
	<rect x="175.2" y="288" style="fill:#84DBFF" width="24.8" height="24.8" data-original="#84DBFF" class=""/>
	<rect x="97.6" y="330.8" style="fill:#84DBFF" width="24.8" height="24.8" data-original="#84DBFF" class=""/>
	<rect x="136.4" y="330.8" style="fill:#84DBFF" width="24.8" height="24.8" data-original="#84DBFF" class=""/>
	<rect x="175.2" y="330.8" style="fill:#84DBFF" width="24.8" height="24.8" data-original="#84DBFF" class=""/>
</g><g>
	<rect x="232.4" y="302" style="fill:#324A5E;" width="11.6" height="21.6" data-original="#324A5E"/>
	<rect x="247.2" y="302" style="fill:#324A5E;" width="11.6" height="21.6" data-original="#324A5E"/>
	<rect x="306.8" y="302" style="fill:#324A5E;" width="11.6" height="21.6" data-original="#324A5E"/>
	<rect x="322" y="302" style="fill:#324A5E;" width="11.6" height="21.6" data-original="#324A5E"/>
	<rect x="381.6" y="302" style="fill:#324A5E;" width="11.6" height="21.6" data-original="#324A5E"/>
	<rect x="396.8" y="302" style="fill:#324A5E;" width="11.6" height="21.6" data-original="#324A5E"/>
</g><path style="fill:#FFFFFF;" d="M294.4,127.2c0,0,0-0.4-0.4-0.8c0-0.4-0.4-1.2-0.8-2.4c0-1.2-0.4-2.4,0-4s0.8-3.6,2-5.6  s3.6-3.6,6-4.4s5.2-0.8,7.6-0.8s4.8,0.4,7.2,0.8c2.4,0.4,4.8,0.8,7.2,1.2c2.4,0.4,4.4,0.4,6.4,0.8c1.2,0,2,0,3.2,0s2-0.4,2.8-0.4  c4-0.8,7.2-2.8,10-4.4c2.8-2,4.8-4,6-5.6s2-2.8,2-2.8s0,0.4,0,0.8s0,1.6-0.4,2.4c-0.4,2-1.6,5.2-4.4,8.4c-2.4,3.2-6.4,6.4-11.2,8  c-1.2,0.4-2.8,0.8-4,1.2c-1.2,0.4-2.8,0.4-4,0.4c-2.8,0-5.2,0-8-0.4c-2.4-0.4-4.8-0.8-7.2-1.6c-2.4-0.4-4.4-1.2-6.4-1.2  c-2.4-0.4-4-0.4-5.6-0.4s-2.8,0.8-4,1.6c-2.4,2-3.2,4.8-4,6.8C294.4,125.6,294.4,127.2,294.4,127.2z" data-original="#FFFFFF"/></g> </svg>
