<?xml version="1.0" encoding="utf-8"?>
<!-- Generator: Adobe Illustrator 23.0.2, SVG Export Plug-In . SVG Version: 6.00 Build 0)  -->
<svg version="1.1" id="Camada_1" xmlns="http://www.w3.org/2000/svg" xmlns:xlink="http://www.w3.org/1999/xlink" x="0px" y="0px"
	 viewBox="0 0 536.14 317.57" style="enable-background:new 0 0 536.14 317.57;" xml:space="preserve">
<style type="text/css">
	.st0{fill-rule:evenodd;clip-rule:evenodd;fill:#00AEEF;}
	.st1{fill-rule:evenodd;clip-rule:evenodd;fill:#35363A;}
</style>
<g>
	<g>
		<g>
			<path class="st0" d="M314.33,85.18c1.07-0.58,3.74-1.31,5.06-1.78c4.65-1.68,9.47-3.85,13.97-5.85
				c12.61-5.63,30.19-16.04,37.61-28.49c3.17-5.31,2.18-4.61,4.14-9.07c1.06,1.12,33.73,77.46,35.22,80.93
				c0.73,1.71,1.45,3.52,2.23,5.21c1.19,2.57,1.73,2.54,0.29,5.34c-1.78,3.48-3.99,6.04-6.17,8.42
				c-10.19,11.11-31.01,20.47-45.17,27.27c-2.68,1.29-7.06,3.84-9.94,4.54l-9.45-21.68c-3.05-7.21-6.11-14.41-9.25-21.6
				C327,114.97,319.82,98.61,314.33,85.18L314.33,85.18z M404.34,70.78l28.08,80.69c-1.36,0.99-51.52,18.05-58.78,20.62
				c-2.04,0.72-6.98,2.16-8.52,3.09l0.5,2.21c3.83-0.43,71.6-17.46,71.87-17.64l-22.39-91.71
				C413.67,68.13,405.15,70.23,404.34,70.78L404.34,70.78z M396.55,60.23c-1.65,0.21-5.94,1.74-7.18,2.57l26.05,60.74
				c1.69,3.84,3.21,5,0.95,8.94c-1.66,2.91-3.11,5.09-4.97,7.43c-5.08,6.37-13.49,12.23-20.65,16.52
				c-5.04,3.02-10.7,5.88-16.26,8.53l-14.69,7.06c-1.07,0.49-1.62,0.41-2.04,1.24c1,0.67,3.19-0.43,4.37-0.83
				c1.55-0.52,2.96-0.97,4.52-1.53c9.62-3.45,60.27-20.9,61.15-21.61c-0.68-3.12-2.63-7.76-3.77-10.97l-11.65-33.52
				C411.24,101.54,397.86,62.13,396.55,60.23L396.55,60.23z M309.51,82.9c0.11,2.03,8.47,20.12,9.9,23.45l27.7,64.29
				c0.78,1.82,2.02,4.24,2.52,6.01c2.04-0.43,2.87-1.44,4.85-1.91l1.05,3.7l6.04-1.9l1.21,5.25c2.64-0.14,6.98-1.58,9.78-2.23
				c3.27-0.76,6.72-1.58,9.96-2.42l39.38-9.63c6.58-1.54,13.32-3.58,19.9-4.9c0.17-1.7-5.04-21.3-5.84-24.66l-12.15-49.56
				c-0.79-3.24-5.94-23.31-5.88-24.88l-14.75,3.53c-1.7-2.93-2.59-8.67-4.21-11.57l-11.28,3.82l-11.58-27.01
				c-3.51,0.05-3.64,0.14-3.86,3.23c-1.29,17.67-26.9,32.74-41.48,39.17c-3.39,1.49-6.65,2.94-10.32,4.28
				c-1.86,0.68-3.69,1.32-5.47,1.97C313.41,81.48,310.88,82.12,309.51,82.9z"/>
			<path class="st1" d="M33.06,236.29c4.13,0,8.27-0.01,12.4,0c3,0.01,4,0.8,3.91-2.42c-0.19-7.45-1.23-24.49,1.97-28.56
				c1.54-1.95,4.93-4.1,8.64-2.52c3.13,1.34,3.39,5.17,3.38,9.02c-0.01,7.84-0.39,16.76,0.04,24.46c2.55,0.03,14.61,0.55,15.88-0.26
				c0.96-1.15,0.37-8.11,0.37-10.16c0-3.4,0.01-6.79,0-10.19c-0.02-6.84,0.62-12.49,7.22-13.34c7.72-0.99,6.85,7.44,6.85,13.61
				c0,6.59-0.27,13.76,0.03,20.34l16.03-0.07c0.58-1.74,0.23-18.66,0.23-21.92c0-6.62,0.45-14.08-2.4-19.48
				c-4.64-8.79-20.6-9.16-28.83,2.15c-0.57-0.36-0.92-1.07-1.33-1.72c-1.24-1.95-2.37-3.27-4.41-4.68
				c-2.84-1.96-5.95-2.18-9.66-2.02c-5.29,0.23-8.77,2.33-12.18,5.59c-1.09,1.04-1.63,1.95-2.93,2.72
				c-1.05-9.03,4.75-7.23-15.25-7.23L33.06,236.29z"/>
			<path class="st1" d="M214.86,236.29c0.49-6.18,0.06-14.23,0.06-20.62c0-5.02,0.27-12.73,7.31-13.3c8.6-0.7,7.2,6.41,7.2,13.57
				c0,6.55-0.31,13.86,0.04,20.34l15.98-0.12l0.27-10.86c0-8.53,0.92-24.06-2.18-30.12c-2.47-4.83-7.83-7.35-14.87-6.64
				c-4.92,0.5-7.77,2.16-11.25,4.95c-0.66,0.53-0.77,0.79-1.37,1.39c-0.39,0.39-0.93,0.85-1.13,1.04l-0.01-35.63l-16.21,2.34
				c-0.52,5.11-0.06,12.92-0.06,18.32c0,7.37-0.36,54.4,0.25,55.04C199.53,236.69,214.02,236.29,214.86,236.29z"/>
			<path class="st1" d="M283.86,201.63c0.15,3.2,0.45,18.56-0.06,20.83c-0.4,1.81-4.2,3.65-6.77,3.66
				c-8.56,0.03-11.42-13.1-7.3-20.51C273.16,199.45,280.17,198.76,283.86,201.63L283.86,201.63z M300.18,189.65
				c-7.22-0.11-10.96,1.64-16.42-0.53c-4.57-1.81-10.08-2.2-15.05-0.77c-8.31,2.39-14.59,9.14-16.74,17.94
				c-3.74,15.34,5.27,31.37,19.28,32.12c7.59,0.41,11.09-3.34,13.28-4.19l1.3,4.06c4.3-0.39,10.65-2.93,15.12-3.94
				C299.76,219.52,300.15,204.63,300.18,189.65z"/>
			<path class="st1" d="M482.74,201.63c0.11,1.99,0.18,20.5-0.05,21.15c-0.2,0.57-2.17,1.9-2.94,2.31c-1.29,0.68-2.5,1.16-4.15,1.06
				c-8.57-0.5-11.25-13.76-6.85-20.9C472.1,199.79,479.02,198.68,482.74,201.63L482.74,201.63z M499.01,189.75
				c-2.29-0.25-6.14,0.11-8.58,0.19c-4.04,0.13-4.35,0.5-7.89-0.79c-21.17-7.75-37.48,12.96-31.2,33.13
				c2.64,8.47,9.6,15.64,18.99,16.19c7.1,0.41,9.54-2.68,12.95-4.25c0.7,1.01,0.75,3.01,1.66,4.03l14.71-4
				c0.19-2.54-0.56-7.57-0.6-10.6L499.01,189.75z"/>
			<path class="st1" d="M378.14,215.4c-0.42-5.56,0.84-13.4,6.51-15.19c6.69-2.12,10.91,4.52,11.26,10.25
				C397.16,231.03,379.22,229.88,378.14,215.4L378.14,215.4z M412.63,215.12c1.32-15.16-9.22-26.42-23.11-27.65
				c-14.81-1.31-27.42,9.43-27.94,22.96c-0.34,8.83,1.73,14.74,6.03,19.59c7.2,8.12,18.23,10.23,28.51,6.99
				C404.86,234.26,411.69,225.97,412.63,215.12z"/>
			<path class="st1" d="M143.31,236.24c3.74,0.3,8.45,0.05,12.3,0.05c3.11,0,4.13,0.87,4.03-2.43c-0.2-7.33-1.13-24.34,1.88-28.53
				c1.5-2.09,5.57-4.06,9.29-2.66c3.07,1.15,3.27,5.14,3.27,9.14c-0.01,7.86-0.37,16.71,0.04,24.47l15.97,0
				c0.52-6.58,0.06-15.19,0.06-21.99c0-7.08,0.9-14.21-2.39-19.76c-4.56-7.71-16.57-7.54-23.55-2.76c-3.06,2.1-4.58,4.61-5.97,5.22
				l-0.07-7.37l-14.89,0.03L143.31,236.24z"/>
			<path class="st1" d="M325.38,236.21c0.27-6.65,0.03-13.82,0.03-20.53c0-6.61,0.8-12.69,7.25-13.29c3.87-0.36,5.77,0.55,6.81,3.74
				c0.92,2.84,0.26,24.88,0.49,30.16l16.01-0.06c0.31-7.16,0.03-14.96,0.03-22.2c0-6.82,0.87-14.29-2.4-19.55
				c-2.64-4.25-8.4-6.95-15.67-5.76c-8.4,1.38-10.93,6.32-13.84,8.34l-0.1-7.42l-14.85,0.07l0.02,46.58L325.38,236.21z"/>
			<path class="st1" d="M438.13,202.15c2.01-0.06,4.05-0.02,6.06-0.02c3.04,0,4.62,0.5,4.87-0.8c0.16-0.79,0.06-10.65-0.08-11.7
				l-10.85-0.04l-0.05-16.04l-16.67,2.26l-0.02,13.81l-6.6,0l-0.04,12.52l6.64-0.02l-0.05,8.87c-0.02,7.46-0.9,19.63,3.43,24.1
				c3.08,3.18,4.91,1.94,9.79,1.68c3.8-0.2,7.45-0.61,11.28-0.73c-1.43-2.5-7.72-1.61-7.72-13.22
				C438.12,215.94,438.13,209.04,438.13,202.15z"/>
			<path class="st1" d="M118.18,189.59l-0.13,46.7h12.49c0.65,0,1.3,0.02,1.95,0.02c0.42,0,1.51,0.01,1.84-0.37
				c0.76-0.87,0.15-37.35,0.24-45.61c0.02-2.02,0.56-2.96-1.48-2.76C128.28,188.05,123.13,189.06,118.18,189.59z"/>
			<path class="st1" d="M431.21,273.22c-0.02,4.4-0.43,7.83-2.99,9.94c-2.2,1.82-7.21,2.95-9.6,0.51c-2.66-2.72-1.72-7.17,1.55-8.56
				C422.32,274.2,428.49,273.48,431.21,273.22L431.21,273.22z M415.01,265.17c2.62-1.34,3.81-2.93,7.98-3.51
				c3.78-0.52,6.65,0.73,7.61,3.69c0.46,1.43,1.14,3.69-0.44,4.07c-1.19,0.29-3.77,0.44-5.17,0.65c-3.12,0.45-6.45,0.93-8.87,2.37
				c-2.38,1.42-3.91,3.65-4.08,7.45c-0.48,10.77,12.51,11.03,16.58,6.98l2.56-2.83l0.17,4.51l4.68-0.05
				c0.49-3.25,0.09-10.23,0.09-13.88c0-4.2,0.58-9.17-1.39-12.57c-5.02-8.67-19.4-3.28-19.82-1.48L415.01,265.17z"/>
			<path class="st1" d="M397.07,258.03c-0.5,0.42,0.08,0.39-2.17,0.36c-0.93-0.01-1.87,0-2.81,0v3.82l3.93-0.02
				c1.4,0.11,0.7,0.09,1.05,0.39l0.13,25.98l4.76-0.05l0.02-25.99c1.01-0.54,5.7-0.27,6.91-0.27v-3.88l-4.91,0.01
				c-0.12,0-0.75,0-0.82-0.01c-1.27-0.18-0.38-0.03-0.78-0.32c-1.19-1.31-0.23-7.46,0.64-8.91c1.71-2.85,3.95-1.92,7.43-1.49
				l0.01-3.87c-0.38-1.11-6.13-2.45-10.74,2.06C396.64,248.83,397.01,253.07,397.07,258.03z"/>
			<path class="st1" d="M466.02,282.59c-2.33,0.66-2.36,1.87-5.86,2.25c-17.64,1.93-14.44-25.64,0.13-23.27
				c2.6,0.42,3.78,1.43,5.72,2.26l0.02-4.63c-0.49-1.73-9.79-3.36-16.04,0.57c-10.77,6.76-9.56,29.66,7.69,29.44
				c4.67-0.06,4.84-0.85,8.34-1.89L466.02,282.59z"/>
			<path class="st1" d="M124.38,163.73c-4.47,1.05-7.89,5.08-6.89,10.73c0.72,4.05,5.48,8.01,10.66,6.85
				C139.44,178.79,135.95,161.01,124.38,163.73z"/>
			<path class="st1" d="M488.35,243.57c-0.02,9.34,0,18.68,0,28.03c0,9.97-2.06,18.61,10.47,16.79l0.02-4.49
				c-5.6,0.5-5.59-0.83-5.58-5.96l0-34.5L488.35,243.57z"/>
			<path class="st1" d="M473.05,282.83c0.44,4.5,5.27,7.3,10.38,5.41l0.01-4.19c-2.41-0.5-4.98,1.15-5.42-2.66l-0.33-1.53
				c-0.21-5.15,0.01-16.31,0.01-21.62h-4.65V282.83z"/>
			<path class="st1" d="M424.42,252.35c0.93-2.07,6.39-7.53,7.29-9.8c-4.85,0-4.46-0.42-5.52,1.14c-1.43,2.11-5.07,7.15-5.78,8.69
				L424.42,252.35z"/>
			<path class="st1" d="M472.39,248.18c0.82,3.81,7.47,2.6,6.19-1.86C477.57,242.82,471.38,243.46,472.39,248.18z"/>
			<path class="st1" d="M473.05,282.83v-24.58h4.65c0,5.31-0.22,16.47-0.01,21.62l0.33,1.53c-0.11-3.54,0.32-21.61-0.24-23.3
				c-1.44-0.32-3.47-0.35-4.91,0.04c-0.34,2.51-0.08,16.97-0.1,21.72c0,0.52-0.04,1.22-0.01,1.71L473.05,282.83z"/>
			<path class="st1" d="M401.98,262.51l7.2-0.11l-0.06-4.28l-6.74-0.07c0.4,0.29-0.49,0.14,0.78,0.32c0.08,0.01,0.7,0.01,0.82,0.01
				l4.91-0.01v3.88C407.67,262.24,402.99,261.96,401.98,262.51z"/>
			<path class="st1" d="M397.07,262.57c-0.35-0.3,0.35-0.28-1.05-0.39l-3.93,0.02v-3.82c0.93,0,1.87-0.01,2.81,0
				c2.25,0.02,1.67,0.06,2.17-0.36l-5.21,0.13l0.08,4.3L397.07,262.57z"/>
		</g>
	</g>
</g>
</svg>
