<svg id="Gradient" enable-background="new 0 0 512 512" height="512" viewBox="0 0 512 512" width="512" xmlns="http://www.w3.org/2000/svg" xmlns:xlink="http://www.w3.org/1999/xlink"><linearGradient id="SVGID_1_" gradientUnits="userSpaceOnUse" x1="256" x2="256" y1="432" y2="80"><stop offset="0" stop-color="#12c2e9"/><stop offset=".5" stop-color="#c471ed"/><stop offset="1" stop-color="#f64f59"/></linearGradient><path d="m56 288h48c4.4 0 8-3.6 8-8v-32c0-4.4-3.6-8-8-8h-48c-4.4 0-8 3.6-8 8v32c0 4.4 3.6 8 8 8zm8-32h32v16h-32zm8 128h-16c-4.4 0-8 3.6-8 8s3.6 8 8 8h16c4.4 0 8-3.6 8-8s-3.6-8-8-8zm112 0h-80c-4.4 0-8 3.6-8 8s3.6 8 8 8h80c4.4 0 8-3.6 8-8s-3.6-8-8-8zm-96-80h-32c-4.4 0-8 3.6-8 8s3.6 8 8 8h32c4.4 0 8-3.6 8-8s-3.6-8-8-8zm32 16h32c4.4 0 8-3.6 8-8s-3.6-8-8-8h-32c-4.4 0-8 3.6-8 8s3.6 8 8 8zm96-16h-32c-4.4 0-8 3.6-8 8s3.6 8 8 8h32c4.4 0 8-3.6 8-8s-3.6-8-8-8zm72 8c0-4.4-3.6-8-8-8h-32c-4.4 0-8 3.6-8 8s3.6 8 8 8h32c4.4 0 8-3.6 8-8zm-232-88h48c4.4 0 8-3.6 8-8s-3.6-8-8-8h-48c-4.4 0-8 3.6-8 8s3.6 8 8 8zm304-16h-48c-4.4 0-8 3.6-8 8s3.6 8 8 8h48c4.4 0 8-3.6 8-8s-3.6-8-8-8zm-16 192h-32c-13.2 0-24-10.8-24-24s10.8-24 24-24h32c13.2 0 24 10.8 24 24s-10.8 24-24 24zm-32-32c-4.4 0-8 3.6-8 8s3.6 8 8 8h32c4.4 0 8-3.6 8-8s-3.6-8-8-8zm160-288h-336c-13.2 0-24 10.8-24 24v72h-72c-13.2 0-24 10.8-24 24v208c0 13.2 10.8 24 24 24h336c13.2 0 24-10.8 24-24v-72h72c13.2 0 24-10.8 24-24v-208c0-13.2-10.8-24-24-24zm-88 328c0 4.4-3.6 8-8 8h-336c-4.4 0-8-3.6-8-8v-208c0-4.4 3.6-8 8-8h336c4.4 0 8 3.6 8 8zm96-96c0 4.4-3.6 8-8 8h-72v-17.4c2.5.9 5.2 1.4 8 1.4h32c13.2 0 24-10.8 24-24s-10.8-24-24-24h-32c-2.8 0-5.5.5-8 1.4v-57.4c0-2.7-.5-5.4-1.4-8h81.4zm-80-32c0-4.4 3.6-8 8-8h32c4.4 0 8 3.6 8 8s-3.6 8-8 8h-32c-4.4 0-8-3.6-8-8zm80-104h-352v-32h352zm0-48h-352v-24c0-4.4 3.6-8 8-8h336c4.4 0 8 3.6 8 8z" fill="url(#SVGID_1_)"/></svg>