<svg width="139" height="136" xmlns="http://www.w3.org/2000/svg">
 <!-- Created with Method Draw - http://github.com/duopixel/Method-Draw/ -->

 <g>
  <title>background</title>
  <rect fill="none" id="canvas_background" height="138" width="141" y="-1" x="-1"/>
  <g display="none" overflow="visible" y="0" x="0" height="100%" width="100%" id="canvasGrid">
   <rect fill="url(#gridpattern)" stroke-width="0" y="0" x="0" height="100%" width="100%"/>
  </g>
 </g>
 <g>
  <title>Layer 1</title>
  <g transform="rotate(-180, 69, 69.002)" id="svg_27">
   <g transform="matrix(0.293793, 0, 0, 0.293793, 0, 0)" id="svg_5">
    <g id="svg_6">
     <g id="svg_7">
      <g id="svg_8">
       <g id="svg_9">
        <path id="svg_10" fill="#0061b7" class="active-path" d="m234.876297,7.944345c-125.307014,0 -226.901983,101.594999 -226.901983,226.902014c-0.030029,125.366989 101.565001,226.931992 226.901983,226.931992c125.306931,0 226.871017,-101.594971 226.871017,-226.901962c0.031006,-125.337044 -101.564087,-226.932043 -226.871017,-226.932043zm0,423.464987c-108.344002,0 -196.502022,-88.157959 -196.502022,-196.501999s88.15802,-196.502998 196.502022,-196.502998c108.34404,-0.029999 196.47197,88.127991 196.47197,196.502022c0.030029,108.314011 -88.12793,196.502975 -196.47197,196.502975z"/>
        <path id="svg_11" fill="#0061b7" class="active-path" d="m321.667236,185.143356l-87.884933,87.915024l-87.88501,-87.915024c-5.92804,-5.927979 -15.565002,-5.927979 -21.492012,0s-5.927979,15.565002 0,21.492004l98.584969,98.585007c2.979004,3.039978 6.901001,4.437988 10.792053,4.437988c3.921997,0 7.812988,-1.48999 10.791992,-4.437988l98.554977,-98.585007c5.927979,-5.927979 5.927979,-15.565002 0,-21.492004s-15.535034,-5.927979 -21.462036,0z"/>
       </g>
      </g>
     </g>
     <g id="svg_12"/>
     <g id="svg_13"/>
     <g id="svg_14"/>
     <g id="svg_15"/>
     <g id="svg_16"/>
     <g id="svg_17"/>
     <g id="svg_18"/>
     <g id="svg_19"/>
     <g id="svg_20"/>
     <g id="svg_21"/>
     <g id="svg_22"/>
     <g id="svg_23"/>
     <g id="svg_24"/>
     <g id="svg_25"/>
     <g id="svg_26"/>
    </g>
   </g>
  </g>
 </g>
</svg>