<?xml version="1.0" encoding="UTF-8"?><svg id="Layer_2" xmlns="http://www.w3.org/2000/svg" viewBox="0 0 206.59 55.51"><defs><style>.cls-1{fill:#65a300;}</style></defs><g id="Layer_1-2"><g><path id="hat" class="cls-1" d="M194.75,37.23h11.8c.02-.48,.04-.97,.04-1.46-.02-19.73-16-35.73-35.74-35.77V11.79c13.23,.02,23.95,10.75,23.94,23.98,0,.48-.02,.97-.05,1.46Z"/><path id="pagarme" d="M58.84,55.13c-.96-.21-1.9-.52-2.8-.91-.69-.31-1.35-.67-2-1.07-.46-.27-.9-.59-1.31-.94l-.39-.39,2.35-3.48,.33,.33c.29,.26,.59,.5,.91,.72,.48,.35,.99,.66,1.52,.94,1.45,.69,3.03,1.05,4.63,1.06,1.86,.17,3.71-.4,5.15-1.58,1.13-1.25,1.7-2.9,1.59-4.58v-1.87c-.08,.12-.17,.23-.26,.34-.26,.29-.53,.55-.82,.8-.43,.39-.91,.73-1.41,1.02-.66,.35-1.36,.61-2.09,.77-.92,.24-1.86,.35-2.81,.34-2.89,.11-5.71-.92-7.85-2.87-2.15-2.18-3.26-5.17-3.06-8.22-.12-3.02,1.01-5.95,3.13-8.11,2.03-2.05,4.81-3.17,7.69-3.11,1.45-.02,2.88,.25,4.21,.8,.95,.35,1.83,.89,2.56,1.59l.7,.77v-2.82h4.7v19.73c0,7.39-3.74,11.08-11.22,11.08h-.05c-1.15,0-2.29-.12-3.41-.38h0Zm-1.83-24.76c-1.24,1.42-1.88,3.27-1.8,5.15-.08,1.88,.59,3.71,1.84,5.11,1.27,1.33,3.05,2.05,4.89,1.98,1.89,.09,3.73-.62,5.09-1.94,1.31-1.39,2-3.24,1.91-5.15,.08-1.91-.63-3.77-1.96-5.15-1.35-1.34-3.19-2.05-5.09-1.98-1.84-.09-3.63,.64-4.89,1.98h0ZM0,55.04V24.69H4.69v2.91c.06-.09,.15-.21,.28-.37,.27-.29,.56-.56,.87-.81,.46-.38,.95-.72,1.48-1,.69-.34,1.42-.61,2.17-.8,.93-.25,1.88-.37,2.84-.37,2.88-.1,5.67,1.03,7.67,3.11,2.04,2.22,3.12,5.17,2.98,8.19,.18,3.08-.9,6.11-2.98,8.39-2.08,2.07-4.92,3.17-7.85,3.04-.94,0-1.87-.11-2.78-.35-.75-.18-1.46-.47-2.13-.85-.5-.3-.98-.62-1.43-.98-.32-.24-.62-.51-.87-.83l-.26-.35v11.39H0ZM6.48,30.35c-1.31,1.45-2,3.35-1.92,5.3-.11,1.97,.58,3.89,1.92,5.34,1.37,1.35,3.25,2.06,5.16,1.96,1.83,.08,3.6-.66,4.82-2.02,1.23-1.46,1.86-3.33,1.78-5.24,.08-1.95-.58-3.85-1.85-5.33-1.24-1.38-3.03-2.14-4.89-2.07-1.9-.07-3.73,.68-5.04,2.05h0Zm165.4,16.78c-3.97,0-7.03-1.04-9.19-3.11-2.24-2.26-3.41-5.36-3.24-8.54-.12-3.13,1.08-6.16,3.3-8.37,2.23-2.17,5.24-3.34,8.35-3.24,3.22-.17,6.35,1.06,8.59,3.39,2.19,2.6,3.3,5.94,3.11,9.34v1.13h-16.44c0,.15,.03,.3,.07,.44,.11,.32,.24,.62,.41,.91,.23,.44,.53,.83,.89,1.17,.48,.42,1.04,.74,1.65,.94,.83,.29,1.7,.43,2.58,.41,1.09,0,2.17-.21,3.18-.63,.81-.3,1.56-.73,2.22-1.28l.65-.65,3.57,4.17c-.09,.11-.21,.26-.37,.44-.35,.34-.73,.65-1.13,.93-.6,.45-1.24,.85-1.92,1.2-.87,.41-1.77,.73-2.71,.93-1.15,.28-2.33,.41-3.52,.41h-.05Zm-2.87-17.39c-.53,.21-1.01,.53-1.39,.96-.3,.35-.56,.73-.78,1.13-.17,.3-.29,.62-.35,.96l-.09,.39h9.43c-.03-.11-.06-.26-.08-.41-.09-.32-.22-.62-.37-.91-.21-.43-.48-.83-.8-1.17-.4-.39-.88-.7-1.39-.91-.66-.29-1.37-.43-2.09-.41h-.11c-.68,0-1.35,.13-1.98,.39h0Zm-53.39,16.23c-.75-.73-1.17-1.73-1.17-2.78,0-1.05,.42-2.05,1.17-2.78,.77-.75,1.8-1.15,2.87-1.13,1.07-.02,2.1,.39,2.87,1.13,.75,.73,1.17,1.74,1.17,2.78,0,1.05-.42,2.05-1.17,2.78-.78,.73-1.8,1.13-2.87,1.13-1.06,0-2.09-.4-2.87-1.13h0Zm-28.69,1.05c-2.9,.11-5.72-.94-7.85-2.91-2.15-2.22-3.26-5.26-3.06-8.34-.14-3.07,.99-6.05,3.13-8.26,2.02-2.06,4.81-3.19,7.69-3.13,1.45-.02,2.88,.25,4.21,.8,.95,.35,1.83,.89,2.56,1.58l.7,.78v-2.78h4.69v21.91h-4.7v-3c-.06,.09-.14,.21-.26,.37-.25,.29-.53,.56-.83,.81-.44,.38-.91,.71-1.41,1-.66,.35-1.36,.62-2.09,.8-.89,.25-1.8,.37-2.73,.37h-.08Zm-4.41-16.6c-1.25,1.46-1.9,3.34-1.81,5.26-.08,1.93,.58,3.81,1.85,5.26,1.25,1.37,3.04,2.12,4.89,2.04,1.9,.1,3.76-.61,5.11-1.96,1.32-1.46,2-3.38,1.89-5.35,.09-1.95-.62-3.84-1.96-5.26-1.34-1.35-3.18-2.07-5.08-2-1.84-.09-3.63,.65-4.89,2h0Zm-46.61,16.6c-2.9,.11-5.72-.94-7.84-2.91-2.15-2.22-3.27-5.25-3.07-8.34-.14-3.07,.99-6.05,3.13-8.26,2.02-2.06,4.81-3.19,7.69-3.13,1.45-.02,2.88,.25,4.22,.8,.95,.35,1.82,.89,2.56,1.58l.69,.78v-2.78h4.69v21.91h-4.69v-3c-.08,.12-.17,.25-.26,.37-.25,.29-.53,.56-.82,.81-.44,.38-.91,.71-1.41,1-.66,.35-1.36,.62-2.09,.8-.89,.25-1.81,.37-2.73,.37h-.08Zm-4.41-16.6c-1.25,1.46-1.89,3.34-1.8,5.26-.08,1.92,.58,3.81,1.84,5.26,1.25,1.37,3.04,2.12,4.89,2.04,1.9,.1,3.75-.61,5.11-1.96,1.32-1.46,2-3.38,1.89-5.35,.09-1.95-.62-3.84-1.96-5.26-1.34-1.35-3.18-2.07-5.08-2-1.85-.09-3.64,.64-4.89,2h0Zm119.75,16.25v-13.69c0-2.29-.84-3.43-2.52-3.43-2.09,0-3.13,1.52-3.13,4.56v12.56h-6.61v-13.69c0-2.29-.84-3.43-2.52-3.43-2.09,0-3.13,1.52-3.13,4.56v12.56h-6.61V24.36h6.61v2.91c.06-.09,.13-.2,.22-.35,.19-.27,.4-.53,.63-.77,.33-.37,.7-.71,1.11-1,.51-.34,1.06-.61,1.65-.78,.71-.24,1.46-.35,2.22-.34,.75,0,1.5,.1,2.22,.33,.57,.17,1.1,.44,1.59,.78,.35,.27,.68,.57,.98,.89,.22,.24,.41,.5,.57,.78l.13,.3c.06-.09,.14-.19,.24-.33,.22-.26,.46-.51,.72-.74,.37-.36,.78-.68,1.22-.96,.54-.32,1.13-.57,1.74-.74,.73-.22,1.49-.33,2.26-.33,4.7,0,7.04,2.71,7.04,8.13v14.56l-6.6-.02Zm-48.53,0V24.74h4.69v3.95c.05-.17,.11-.33,.19-.48,.21-.38,.44-.74,.7-1.09,.34-.5,.75-.95,1.21-1.35,.57-.44,1.21-.79,1.89-1.02,.83-.31,1.72-.43,2.61-.37l-.39,5.08c-1.66-.27-3.35,.26-4.56,1.41-1.15,1.24-1.75,2.9-1.65,4.58v11.21h-4.7Z"/></g></g></svg>